<svg  viewBox="0 0 260 196" fill="none" xmlns="http://www.w3.org/2000/svg">
<path fill-rule="evenodd" clip-rule="evenodd" d="M51.8123 0.164062H208.745C222.846 0.164062 235.646 5.91408 244.92 15.1882C254.194 24.4628 259.944 37.2641 259.944 51.3641V159.853C259.944 169.546 255.99 178.347 249.614 184.723C243.238 191.099 234.438 195.052 224.745 195.052H220.406C211.773 195.052 203.827 191.992 197.669 186.797C191.52 181.609 187.169 174.295 185.714 165.78L179.734 130.788C179.203 127.679 177.621 125.015 175.387 123.13C173.161 121.253 170.27 120.146 167.113 120.146H93.4432C90.2867 120.146 87.395 121.253 85.1696 123.131C82.9357 125.015 81.3529 127.681 80.8224 130.788L74.8428 165.78C73.3876 174.296 69.0375 181.61 62.888 186.797C56.7306 191.992 48.7854 195.052 40.1506 195.052H35.8122C26.1169 195.052 17.3163 191.1 10.9403 184.724C4.56487 178.349 0.612305 169.548 0.612305 159.853V51.3641C0.612305 37.2625 6.36248 24.4617 15.636 15.1882C24.9101 5.91408 37.7109 0.164594 51.8119 0.164594L51.8123 0.164062Z" fill="#FF7955"/>
<path d="M51.8123 0.164062H208.745C222.846 0.164062 235.646 5.91408 244.92 15.1882C254.194 24.4628 259.944 37.2641 259.944 51.3641V159.853C259.944 169.546 255.99 178.347 249.614 184.723C243.238 191.099 234.438 195.052 224.745 195.052H220.406C211.773 195.052 203.827 191.992 197.669 186.797C191.52 181.609 187.169 174.295 185.714 165.78L179.734 130.788C179.203 127.679 177.621 125.015 175.387 123.13C173.161 121.253 170.27 120.146 167.113 120.146H93.4432C90.2867 120.146 87.395 121.253 85.1696 123.131C82.9357 125.015 81.3529 127.681 80.8224 130.788L74.8428 165.78C73.3876 174.296 69.0375 181.61 62.888 186.797C56.7306 191.992 48.7854 195.052 40.1506 195.052H35.8122C26.1169 195.052 17.3163 191.1 10.9403 184.724C4.56487 178.349 0.612305 169.548 0.612305 159.853V51.3641C0.612305 37.2625 6.36248 24.4617 15.636 15.1882C24.9101 5.91408 37.7109 0.164594 51.8119 0.164594L51.8123 0.164062ZM183.943 50.9657H227.943V57.3661H183.943V50.9657ZM76.6141 57.3661H57.8139V76.1657H51.4132V57.3661H32.6139V50.9657H51.4132V32.1655H57.8139V50.9657H76.6141V57.3661ZM208.745 6.56446H51.8123C39.4773 6.56446 28.277 11.5967 20.161 19.7127C12.045 27.8287 7.01262 39.0285 7.01262 51.3641V159.853C7.01262 167.782 10.2483 174.982 15.4657 180.199C20.6836 185.417 27.8834 188.652 35.8122 188.652H40.1506C47.2412 188.652 53.7434 186.157 58.7634 181.923C63.7909 177.681 67.3501 171.69 68.5432 164.705L74.5228 129.713C75.3148 125.075 77.6896 121.087 81.045 118.256C84.4083 115.418 88.7428 113.746 93.444 113.746H167.113C171.816 113.746 176.149 115.418 179.513 118.256C182.868 121.086 185.242 125.073 186.035 129.713L192.014 164.705C193.207 171.689 196.767 177.68 201.794 181.922C206.815 186.157 213.318 188.652 220.407 188.652H224.745C232.672 188.652 239.872 185.415 245.09 180.197C250.308 174.98 253.544 167.779 253.544 159.853V51.3641C253.544 39.0301 248.512 27.8303 240.395 19.7133C232.28 11.5972 221.08 6.56446 208.745 6.56446Z" fill="#A3523B"/>
</svg>
