<svg viewBox="0 0 319 193" fill="none" xmlns="http://www.w3.org/2000/svg">
<path fill-rule="evenodd" clip-rule="evenodd" d="M305.887 7.16505V54.3853H318.724V60.7857H305.887H275.022H262.184V108.006H275.022H305.887H318.724V114.406H305.887V161.627H318.724V168.027H305.887H213.687V192.454L195.497 178.013L177.307 192.454V168.027H163.95H74.2675C66.0125 168.027 58.5078 164.651 53.0698 159.213C47.6322 153.776 44.2561 146.272 44.2561 138.016C44.2561 129.76 47.6318 122.257 53.0693 116.819C53.9266 115.962 54.8353 115.155 55.7902 114.406H30.5657C22.3107 114.406 14.8064 111.03 9.36833 105.593C3.93078 100.155 0.554688 92.6519 0.554688 84.3958C0.554688 76.1397 3.93036 68.6359 9.36792 63.1984C14.806 57.7608 22.3096 54.3853 30.5657 54.3853H55.7914C54.8366 53.6357 53.927 52.8299 53.0698 51.9721C47.6322 46.5345 44.2561 39.0312 44.2561 30.7752C44.2561 22.5191 47.6318 15.0153 53.0693 9.57773C58.5074 4.14018 66.0115 0.764648 74.2675 0.764648H163.95H305.887H318.724V7.16505H305.887Z" fill="#FF7955"/>
<path fill-rule="evenodd" clip-rule="evenodd" d="M213.687 141.215V161.626H299.486V141.215H213.687ZM55.7902 114.405H30.5657C22.3107 114.405 14.8064 111.029 9.36833 105.592C3.93078 100.154 0.554688 92.6509 0.554688 84.3948C0.554688 76.1388 3.93036 68.6349 9.36792 63.1974C14.806 57.7598 22.3096 54.3843 30.5657 54.3843H55.7914C54.8366 53.6347 53.927 52.8289 53.0698 51.9711C47.6322 46.5335 44.2561 39.0302 44.2561 30.7742C44.2561 22.5181 47.6318 15.0143 53.0693 9.57675C58.5074 4.1392 66.0115 0.763672 74.2675 0.763672H163.95H305.887H318.724V7.16407H305.887V54.3843H318.724V60.7847H305.887H275.022H262.184V108.005H275.022H305.887H318.724V114.405H305.887V161.626H318.724V168.026H305.887H213.687V192.453L195.497 178.013L177.307 192.453V168.026H163.95H74.2675C66.0125 168.026 58.5078 164.65 53.0698 159.212C47.6322 153.775 44.2561 146.272 44.2561 138.015C44.2561 129.759 47.6318 122.256 53.0693 116.818C53.9266 115.961 54.8353 115.154 55.7902 114.405ZM74.2675 60.7847H30.5657C24.0756 60.7847 18.1734 63.4419 13.8929 67.7225C9.61231 72.003 6.955 77.9053 6.955 84.3948C6.955 90.8849 9.61314 96.7866 13.8937 101.067C18.1742 105.348 24.077 108.005 30.5665 108.005H74.2679H101.773L101.747 107.985V107.985L101.466 107.76H101.465L101.185 107.532V107.532L100.909 107.3H100.908L100.634 107.066V107.065L100.363 106.828H100.363L100.095 106.587V106.586L99.8298 106.342V106.342L99.5675 106.095V106.095L99.308 105.844V105.844L99.0519 105.591V105.59L98.7991 105.334V105.334L98.5483 105.074V105.074L98.3013 104.812V104.811L98.0572 104.547V104.546L97.8164 104.279V104.278L97.5781 104.007L97.344 103.733V103.733L97.1119 103.456L96.8839 103.176V103.176L96.6589 102.894V102.894L96.4376 102.609V102.609L96.2196 102.322V102.321L96.0049 102.031L95.7935 101.738L95.5859 101.443L95.3815 101.145L95.1805 100.844L94.9833 100.541L94.7893 100.235L94.5995 99.9271V99.9266L94.413 99.6163L94.2298 99.3033V99.3027L94.0503 98.9876L93.875 98.6704V98.6699L93.703 98.35L93.5348 98.0274L93.3711 97.7033V97.7028L93.2103 97.376L93.0536 97.0471L92.9011 96.716L92.7519 96.3829L92.6068 96.0476L92.4659 95.7102L92.3291 95.3707L92.1965 95.0296L92.0676 94.6864V94.6859L91.9433 94.341L91.8231 93.9936L91.7066 93.6445L91.5947 93.2938L91.4866 92.9411L91.383 92.5867L91.2839 92.2302L91.1886 91.8721L91.0978 91.5124L91.0116 91.1512L90.9296 90.7878L90.852 90.4228L90.7791 90.0568L90.7103 89.6891L90.6465 89.3194L90.5868 88.9486L90.5321 88.5762L90.4819 88.2022L90.4364 87.8271L90.3953 87.4505L90.3593 87.0727L90.3282 86.6934L90.3008 86.3131L90.2793 85.9311L90.2623 85.5481L90.2494 85.164L90.242 84.7784L90.2395 84.3922C90.2395 76.1361 93.6148 68.6323 99.0523 63.1947C99.9096 62.3375 100.819 61.5311 101.774 60.782H74.2683L74.2675 60.7847ZM149.85 156.917C150.077 157.088 150.308 157.254 150.542 157.417L150.776 157.577V157.578L151.013 157.736C151.171 157.841 151.331 157.943 151.492 158.044H151.492C151.654 158.145 151.815 158.244 151.979 158.341C152.143 158.438 152.308 158.533 152.474 158.626L152.724 158.765H152.724C152.891 158.856 153.059 158.945 153.229 159.032L153.484 159.161H153.485L153.742 159.288H153.742L154.001 159.411H154.001L154.261 159.531H154.261L154.523 159.648H154.524L154.787 159.762H154.788L155.052 159.873H155.053L155.32 159.981L155.588 160.086H155.589L155.859 160.187L156.13 160.285H156.131L156.404 160.38L156.678 160.472H156.678L156.954 160.56H156.954L157.231 160.645H157.232L157.51 160.726H157.511L157.791 160.804L158.073 160.879L158.355 160.951H158.356L158.64 161.019H158.64L158.925 161.083L159.212 161.144H159.213L159.501 161.202L159.79 161.256L160.08 161.306H160.081L160.371 161.353L160.664 161.396H160.665L160.958 161.436L161.253 161.472H161.254L161.549 161.504H161.55L161.847 161.532H161.847L162.145 161.557L162.444 161.578L162.743 161.595H162.744L163.045 161.609L163.347 161.619L163.649 161.625L163.954 161.627H177.31V141.216H163.954V134.816H299.489V114.406H275.024H262.187H163.953C157.464 114.406 151.561 117.064 147.281 121.344C143 125.625 140.343 131.527 140.343 138.017L140.345 138.32L140.351 138.623L140.36 138.925L140.374 139.227L140.391 139.527L140.413 139.826L140.437 140.124L140.466 140.421L140.498 140.717L140.534 141.012L140.573 141.306L140.616 141.599L140.663 141.89L140.714 142.18V142.181L140.767 142.47L140.825 142.758L140.886 143.045L140.951 143.33L141.019 143.615L141.09 143.898L141.165 144.18L141.243 144.46L141.325 144.739L141.41 145.016L141.498 145.292V145.293L141.59 145.567L141.684 145.84V145.84L141.783 146.112L141.884 146.382V146.382L141.988 146.651L142.096 146.918V146.918L142.207 147.183V147.183L142.321 147.447V147.448L142.438 147.709V147.71L142.559 147.97V147.97L142.682 148.229V148.229L142.808 148.486V148.486L142.937 148.741V148.741L143.07 148.995V148.995L143.205 149.247V149.247L143.343 149.496V149.497L143.484 149.745V149.745L143.629 149.991V149.991L143.775 150.235V150.236L143.925 150.478V150.478L144.077 150.719V150.719L144.233 150.957V150.958L144.392 151.194V151.194L144.553 151.429V151.43L144.716 151.661V151.662L149.854 156.923L149.85 156.917ZM120.248 114.405H74.2667C67.7766 114.405 61.8744 117.063 57.5939 121.343C53.3133 125.624 50.656 131.526 50.656 138.015C50.656 144.506 53.3137 150.407 57.5943 154.688C61.8748 158.968 67.778 161.626 74.2675 161.626H145.474L145.43 161.591L145.385 161.556L145.34 161.521L145.296 161.485L145.252 161.449L145.208 161.414L145.166 161.382L145.163 161.378L145.119 161.342L145.075 161.306L145.031 161.27L144.987 161.234L144.943 161.198L144.899 161.162L144.888 161.153L144.855 161.126L144.812 161.09L144.768 161.053L144.724 161.017L144.68 160.981L144.637 160.944L144.61 160.922L144.593 160.907L144.55 160.871L144.507 160.834L144.464 160.796L144.421 160.759L144.378 160.722L144.298 160.653L144.292 160.648L144.249 160.61L144.206 160.573L144.163 160.535L144.12 160.497L144.077 160.46L144.034 160.422L143.992 160.384L143.949 160.347L143.907 160.308L143.865 160.271L143.822 160.232L143.796 160.209L143.78 160.194L143.738 160.156L143.697 160.117L143.655 160.079L143.613 160.04L143.571 160.001L143.531 159.964L143.53 159.962L143.489 159.923L143.447 159.884L143.406 159.846L143.323 159.768L143.282 159.729L143.269 159.717L143.241 159.69L143.2 159.651L143.118 159.572L143.077 159.532L143.036 159.492L143.009 159.466L142.995 159.453L142.954 159.412L142.914 159.373L142.874 159.332L142.834 159.292L142.793 159.252L142.753 159.212V159.211L142.5 158.956V158.955L142.249 158.696V158.695L142.002 158.433V158.433L141.758 158.168V158.167L141.517 157.9V157.899C141.358 157.72 141.2 157.538 141.045 157.355V157.354C140.889 157.17 140.736 156.985 140.585 156.798V156.798L140.36 156.516V156.515L140.139 156.231V156.23L139.921 155.943V155.943C139.705 155.654 139.493 155.36 139.286 155.064V155.064L139.083 154.766V154.766L138.882 154.466H138.882L138.684 154.163V154.162C138.553 153.959 138.426 153.755 138.3 153.549V153.548L138.113 153.238V153.237L137.93 152.925V152.924L137.751 152.609H137.751L137.575 152.292V152.292L137.403 151.972V151.971L137.235 151.649H137.235L137.071 151.325V151.324L136.91 150.998V150.997L136.753 150.669V150.668L136.601 150.338V150.337L136.452 150.004L136.307 149.669L136.166 149.331H136.166L136.029 148.992H136.029L135.896 148.651C135.809 148.423 135.725 148.193 135.643 147.962L135.523 147.615L135.407 147.266L135.295 146.915L135.186 146.562L135.083 146.208L134.984 145.851L134.889 145.493H134.888L134.798 145.134H134.798L134.712 144.772V144.772L134.629 144.409L134.552 144.044L134.479 143.678L134.41 143.31V143.31L134.346 142.941L134.287 142.57L134.232 142.197L134.182 141.823L134.136 141.448L134.095 141.072L134.059 140.694L134.028 140.315L134.001 139.934L133.979 139.552L133.962 139.169L133.949 138.785L133.942 138.4L133.939 138.013C133.939 129.757 137.315 122.253 142.752 116.816C143.61 115.959 144.518 115.152 145.473 114.403H120.248L120.248 114.405ZM145.474 7.16407H74.2675C67.7775 7.16407 61.8748 9.82131 57.5943 14.1019C53.3137 18.3824 50.6568 24.2847 50.6568 30.7742C50.6568 37.2642 53.3146 43.166 57.5951 47.4465C61.8757 51.7271 67.7784 54.3848 74.2679 54.3848H120.249H145.475L145.449 54.3647L145.43 54.3498L145.208 54.1726L145.167 54.1403L145.163 54.1371C144.977 53.9875 144.793 53.8347 144.611 53.6803L144.593 53.6655L144.337 53.4453L144.334 53.4432C144.163 53.2947 143.992 53.143 143.824 52.9902L143.797 52.9658L143.532 52.7217L143.531 52.7212L143.283 52.4873L143.27 52.4745L143.242 52.4475C143.078 52.2905 142.915 52.1313 142.755 51.9711V51.9706L142.501 51.7149V51.7143L142.251 51.4549V51.4544L142.004 51.1923V51.1918L141.76 50.9271V50.9266L141.519 50.6592V50.6586C141.359 50.4793 141.202 50.2969 141.046 50.1138V50.1133C140.891 49.9298 140.738 49.7441 140.587 49.5574V49.5568L140.362 49.2751V49.2746L140.141 48.9903V48.9897L139.923 48.7027V48.7022C139.706 48.4131 139.495 48.1197 139.288 47.8237V47.8232L139.084 47.5256V47.525L138.884 47.2248H138.883L138.686 46.9219V46.9213C138.555 46.7182 138.427 46.5139 138.301 46.3081V46.3076L138.115 45.9972V45.9967L137.932 45.6842V45.6837L137.753 45.3686H137.752L137.576 45.0513V45.0508L137.404 44.7309V44.7304L137.237 44.4084H137.236L137.072 44.0843V44.0837L136.912 43.7569V43.7564L136.755 43.428V43.4275L136.603 43.097V43.0965L136.453 42.7633L136.309 42.4281V42.4275L136.168 42.0901H136.167L136.031 41.7506H136.031L135.898 41.4095C135.81 41.1814 135.726 40.9517 135.645 40.7209L135.525 40.3735L135.408 40.0244L135.296 39.6737L135.188 39.321L135.085 38.9666L134.985 38.6101L134.89 38.252H134.89L134.8 37.8923H134.799L134.713 37.5311V37.5305L134.631 37.1677L134.553 36.8027L134.481 36.4367L134.412 36.069V36.0685L134.348 35.6993L134.288 35.3285L134.234 34.9561L134.183 34.5821L134.138 34.207L134.097 33.8304L134.061 33.4526L134.03 33.0733L134.002 32.693L133.981 32.311L133.964 31.928L133.951 31.5439L133.943 31.1583L133.941 30.7721C133.941 22.516 137.317 15.0122 142.754 9.57463C143.611 8.71735 144.52 7.911 145.475 7.16195L145.474 7.16407ZM163.95 27.5743H299.485V7.16407H163.95C157.46 7.16407 151.558 9.82131 147.277 14.1019C142.997 18.3824 140.34 24.2847 140.34 30.7742L140.342 31.0782L140.347 31.3811L140.357 31.6829L140.371 31.9842L140.388 32.2845L140.409 32.5837L140.434 32.8818L140.462 33.1789L140.495 33.4749L140.531 33.7699L140.57 34.0638L140.614 34.3566L140.66 34.6478L140.711 34.938V34.9386L140.764 35.2277L140.822 35.5157L140.883 35.8027L140.948 36.0881L141.016 36.3725L141.087 36.6558L141.162 36.9375L141.24 37.2176L141.322 37.4966L141.406 37.774L141.495 38.0499V38.0504L141.586 38.3247L141.681 38.5974V38.5979L141.779 38.8695L141.881 39.1395V39.1401L141.985 39.4085L142.093 39.6753V39.6759L142.204 39.9406V39.9411L142.318 40.2048V40.2053L142.435 40.4668V40.4674L142.556 40.7273V40.7278L142.679 40.9862V40.9867L142.805 41.2435V41.244L142.934 41.4986V41.4992L143.066 41.7522V41.7527L143.202 42.0042V42.0047L143.34 42.2541V42.2546L143.481 42.5023V42.5029L143.626 42.7485V42.749L143.772 42.993V42.9936L143.922 43.2355V43.236L144.074 43.4763V43.4768L144.23 43.715V43.7156L144.388 43.9516V43.9522L144.55 44.1866V44.1872L144.713 44.419V44.4195L149.85 49.6804C150.078 49.8507 150.308 50.0173 150.542 50.1796L150.777 50.3404V50.3409L151.013 50.499C151.172 50.6035 151.332 50.7059 151.492 50.8072H151.493C151.654 50.908 151.816 51.0067 151.98 51.1037C152.143 51.2008 152.308 51.2958 152.474 51.3891L152.724 51.5276H152.725C152.892 51.6188 153.06 51.708 153.23 51.795L153.485 51.9244H153.485L153.742 52.0507H153.742L154.001 52.1737H154.001L154.261 52.2942H154.262L154.524 52.4114H154.524L154.788 52.5255H154.788L155.053 52.6363H155.053L155.32 52.744L155.589 52.8485H155.589L155.859 52.9499L156.131 53.048H156.131L156.404 53.143L156.678 53.2347H156.679L156.954 53.3228H156.955L157.232 53.4077H157.232L157.511 53.4894H157.511L157.791 53.5673L158.073 53.6421L158.356 53.7138H158.356L158.64 53.7817H158.641L158.926 53.8464L159.213 53.9074H159.213L159.501 53.9652L159.79 54.0188L160.081 54.0692H160.081L160.372 54.1159L160.665 54.1594H160.665L160.959 54.1986L161.254 54.2347H161.254L161.55 54.2671H161.55L161.847 54.2952H161.847L162.145 54.3201L162.444 54.3413L162.744 54.3583H162.745L163.046 54.3721L163.347 54.3817L163.65 54.3875L163.954 54.3896H262.188H275.026H299.49V33.98H163.954V27.5796L163.95 27.5743ZM120.248 81.1944H255.784V60.7847H163.95H120.248C113.759 60.7847 107.857 63.4419 103.576 67.7225C99.2955 72.003 96.6382 77.9053 96.6382 84.3948L96.6402 84.6988L96.646 85.0017L96.6556 85.3036L96.6697 85.6049L96.6866 85.9051L96.7078 86.2043L96.7326 86.5025L96.7608 86.7995L96.7932 87.0956L96.8292 87.3905L96.8686 87.6844L96.9121 87.9772L96.9585 88.2685L97.0091 88.5592L97.0625 88.8483L97.1206 89.1364L97.1815 89.4234L97.2461 89.7088L97.3141 89.9931L97.3858 90.2764L97.4604 90.5581L97.5383 90.8382L97.62 91.1172L97.7049 91.3947L97.7932 91.6711L97.8848 91.9453L97.9797 92.2185L98.0779 92.4901L98.1795 92.7602L98.2839 93.0286L98.3917 93.296L98.5023 93.5612L98.6163 93.8249V93.8254L98.7336 94.0875L98.8542 94.3479L98.9773 94.6063V94.6068L99.1033 94.8636L99.233 95.1187L99.3648 95.3723L99.5003 95.6238L99.6388 95.8736L99.7797 96.1219L99.9239 96.368L100.071 96.6126L100.221 96.855L100.373 97.0959L100.529 97.3346L100.687 97.5712L100.848 97.8057L101.011 98.038L101.178 98.2688V98.2693L101.347 98.4974L101.518 98.724L101.692 98.9478L101.869 99.1701L102.049 99.3903L102.231 99.6078V99.6083L102.415 99.8231V99.8237L102.602 100.037L102.792 100.248V100.249L102.985 100.457L103.179 100.663V100.664L103.376 100.868V100.868L103.576 101.07V101.07L103.777 101.269V101.27L103.981 101.466V101.467L104.188 101.661V101.661L104.397 101.853L104.608 102.043L104.821 102.231V102.231L105.037 102.416H105.037L105.255 102.598L105.475 102.777L105.697 102.954V102.954L105.921 103.128V103.129L106.147 103.3C106.375 103.47 106.605 103.637 106.839 103.799L107.074 103.96V103.96L107.31 104.119C107.469 104.223 107.629 104.325 107.789 104.427H107.79C107.951 104.528 108.113 104.626 108.277 104.723C108.44 104.82 108.605 104.915 108.771 105.009L109.021 105.147H109.021C109.189 105.238 109.357 105.328 109.527 105.415L109.782 105.544H109.782L110.039 105.67H110.039L110.298 105.793H110.298L110.558 105.914H110.559L110.821 106.031H110.821L111.085 106.145H111.085L111.35 106.256H111.35L111.617 106.364L111.886 106.468H111.886L112.156 106.569L112.428 106.668H112.428L112.701 106.763L112.975 106.854H112.976L113.251 106.942H113.252L113.529 107.027H113.529L113.807 107.109H113.808L114.088 107.187L114.37 107.262L114.653 107.333H114.653L114.937 107.401H114.938L115.223 107.466L115.51 107.527H115.51L115.798 107.585L116.087 107.638L116.377 107.689H116.378L116.669 107.735L116.961 107.779H116.962L117.256 107.818L117.551 107.854H117.551L117.847 107.887H117.848L118.144 107.915H118.144L118.442 107.94L118.741 107.961L119.041 107.978H119.042L119.342 107.992L119.644 108.001L119.947 108.007L120.251 108.009H163.952H255.786V87.599H120.251V81.1986L120.248 81.1944ZM146.117 46.2004V46.2009L146.305 46.4137V46.4142L146.495 46.6253V46.6258L146.686 46.8343V46.8349L146.881 47.0412V47.0418L147.078 47.2455V47.246L147.277 47.4476V47.4481L147.479 47.647V47.6476L147.683 47.8439V47.8444L147.89 48.0386V48.0391L148.099 48.2311L148.31 48.421L148.523 48.6083V48.6088L148.738 48.7934H148.739L148.956 48.9754L149.176 49.1547L149.399 49.3314V49.3319L149.623 49.5059V49.5064L149.849 49.6778L146.117 46.202V46.2004ZM146.117 153.442V153.442L146.305 153.655V153.655L146.495 153.867V153.867L146.686 154.076V154.076L146.881 154.282V154.283L147.078 154.487V154.487L147.277 154.689V154.689L147.479 154.888V154.889L147.683 155.085V155.086L147.89 155.28V155.28L148.099 155.472L148.31 155.662L148.523 155.85V155.85L148.738 156.035H148.739L148.956 156.217L149.176 156.396L149.399 156.573V156.573L149.623 156.747V156.748L149.849 156.919L146.117 153.443V153.442Z" fill="#A3523B"/>
</svg>
