<svg  viewBox="0 0 319 193" fill="none" xmlns="http://www.w3.org/2000/svg">
<path fill-rule="evenodd" clip-rule="evenodd" d="M213.889 141.21V161.621H299.688V141.21H213.889ZM55.9923 114.4H30.7678C22.5128 114.4 15.0086 111.024 9.57048 105.587C4.13293 100.149 0.756836 92.646 0.756836 84.3899C0.756836 76.1339 4.13251 68.63 9.57006 63.1925C15.0081 57.7549 22.5118 54.3794 30.7678 54.3794H55.9936C55.0387 53.6298 54.1292 52.824 53.2719 51.9662C47.8344 46.5287 44.4583 39.0254 44.4583 30.7693C44.4583 22.5132 47.8339 15.0094 53.2715 9.57186C58.7096 4.13431 66.2136 0.758789 74.4697 0.758789H164.152H306.089H318.926V7.15918H306.089V54.3794H318.926V60.7798H306.089H275.224H262.386V108H275.224H306.089H318.926V114.4H306.089V161.621H318.926V168.021H306.089H213.889V192.448L195.699 178.008L177.509 192.448V168.021H164.152H74.4697C66.2147 168.021 58.71 164.645 53.2719 159.207C47.8344 153.77 44.4583 146.267 44.4583 138.011C44.4583 129.755 47.8339 122.251 53.2715 116.813C54.1288 115.956 55.0375 115.15 55.9923 114.4ZM74.4697 60.7798H30.7678C24.2778 60.7798 18.3756 63.4371 14.095 67.7176C9.81446 71.9982 7.15715 77.9004 7.15715 84.3899C7.15715 90.88 9.81528 96.7817 14.0958 101.062C18.3764 105.343 24.2791 108.001 30.7686 108.001H74.4701H101.975L101.95 107.98V107.98L101.668 107.756H101.667L101.388 107.527V107.527L101.111 107.296H101.11L100.836 107.061V107.061L100.565 106.823H100.565L100.297 106.582V106.582L100.032 106.337V106.337L99.7696 106.09V106.09L99.5102 105.839V105.839L99.254 105.586V105.585L99.0012 105.33V105.329L98.7505 105.07V105.069L98.5035 104.807V104.807L98.2594 104.542V104.541L98.0186 104.274V104.273L97.7803 104.002L97.5461 103.729V103.728L97.314 103.451L97.0861 103.172V103.171L96.861 102.889V102.889L96.6397 102.604V102.604L96.4217 102.317V102.316L96.207 102.026L95.9957 101.733L95.788 101.438L95.5837 101.14L95.3827 100.839L95.1854 100.536L94.9915 100.23L94.8016 99.9222V99.9217L94.6151 99.6114L94.4319 99.2984V99.2979L94.2525 98.9827L94.0772 98.6655V98.665L93.9052 98.3451L93.7369 98.0226L93.5732 97.6984V97.6979L93.4124 97.3711L93.2557 97.0422L93.1032 96.7112L92.954 96.378L92.809 96.0428L92.6681 95.7053L92.5313 95.3659L92.3987 95.0247L92.2698 94.6815V94.681L92.1454 94.3362L92.0252 93.9887L91.9088 93.6396L91.7969 93.289L91.6887 92.9362L91.5851 92.5818L91.4861 92.2253L91.3907 91.8672L91.3 91.5076L91.2138 91.1463L91.1317 90.7829L91.0542 90.4179L90.9813 90.0519L90.9125 89.6842L90.8486 89.3145L90.789 88.9437L90.7342 88.5713L90.6841 88.1973L90.6385 87.8222L90.5975 87.4456L90.5614 87.0679L90.5303 86.6886L90.503 86.3082L90.4814 85.9262L90.4644 85.5432L90.4516 85.1592L90.4441 84.7735L90.4416 84.3873C90.4416 76.1312 93.8169 68.6274 99.2545 63.1899C100.112 62.3326 101.021 61.5262 101.976 60.7772H74.4705L74.4697 60.7798ZM150.052 156.913C150.28 157.083 150.51 157.249 150.744 157.412L150.978 157.573V157.573L151.215 157.731C151.374 157.836 151.533 157.938 151.694 158.039H151.695C151.856 158.14 152.018 158.239 152.181 158.336C152.345 158.433 152.51 158.528 152.676 158.621L152.926 158.76H152.926C153.093 158.851 153.261 158.94 153.431 159.027L153.686 159.157H153.687L153.944 159.283H153.944L154.203 159.406H154.203L154.463 159.526H154.463L154.725 159.644H154.726L154.989 159.758H154.99L155.255 159.868H155.255L155.522 159.976L155.791 160.081H155.791L156.061 160.182L156.333 160.28H156.333L156.606 160.375L156.88 160.467H156.881L157.156 160.555H157.157L157.433 160.64H157.434L157.712 160.721H157.713L157.993 160.799L158.275 160.874L158.557 160.946H158.558L158.842 161.014H158.842L159.128 161.079L159.414 161.14H159.415L159.703 161.197L159.992 161.251L160.282 161.301H160.283L160.574 161.348L160.866 161.392H160.867L161.161 161.431L161.456 161.467H161.456L161.752 161.499H161.752L162.049 161.527H162.049L162.347 161.552L162.646 161.573L162.946 161.59H162.946L163.247 161.604L163.549 161.614L163.852 161.62L164.156 161.622H177.512V141.212H164.156V134.811H299.691V114.402H275.226H262.389H164.155C157.666 114.402 151.763 117.059 147.483 121.339C143.202 125.62 140.545 131.522 140.545 138.012L140.547 138.316L140.553 138.619L140.562 138.92L140.576 139.222L140.593 139.522L140.615 139.821L140.64 140.119L140.668 140.416L140.7 140.712L140.736 141.007L140.775 141.301L140.819 141.594L140.865 141.885L140.916 142.175V142.176L140.969 142.465L141.027 142.753L141.088 143.04L141.153 143.326L141.221 143.61L141.292 143.893L141.367 144.175L141.445 144.455L141.527 144.734L141.612 145.011L141.7 145.287V145.288L141.792 145.562L141.887 145.835V145.835L141.985 146.107L142.086 146.377V146.378L142.19 146.646L142.298 146.913V146.913L142.409 147.178V147.179L142.523 147.442V147.443L142.64 147.704V147.705L142.761 147.965V147.965L142.884 148.224V148.224L143.01 148.481V148.481L143.139 148.736V148.737L143.272 148.99V148.99L143.407 149.242V149.242L143.546 149.492V149.492L143.687 149.74V149.74L143.831 149.986V149.986L143.978 150.23V150.231L144.128 150.473V150.473L144.28 150.714V150.714L144.435 150.953V150.953L144.594 151.189V151.19L144.755 151.424V151.425L144.918 151.656V151.657L150.056 156.918L150.052 156.913ZM120.451 114.4H74.4688C67.9788 114.4 62.0766 117.058 57.796 121.338C53.5155 125.619 50.8582 131.521 50.8582 138.011C50.8582 144.501 53.5159 150.402 57.7964 154.683C62.077 158.963 67.9801 161.621 74.4697 161.621H145.676L145.632 161.586L145.587 161.551L145.542 161.516L145.498 161.48L145.454 161.445L145.41 161.409L145.368 161.377L145.365 161.373L145.321 161.337L145.277 161.301L145.233 161.265L145.189 161.229L145.145 161.193L145.101 161.157L145.09 161.148L145.058 161.121L145.014 161.085L144.97 161.048L144.926 161.012L144.882 160.976L144.839 160.939L144.812 160.917L144.795 160.902L144.753 160.866L144.709 160.829L144.666 160.792L144.623 160.754L144.58 160.717L144.5 160.648L144.494 160.643L144.451 160.605L144.408 160.568L144.365 160.53L144.322 160.492L144.279 160.455L144.237 160.417L144.194 160.379L144.151 160.342L144.109 160.303L144.067 160.266L144.024 160.228L143.998 160.204L143.982 160.189L143.941 160.151L143.899 160.113L143.857 160.074L143.815 160.035L143.774 159.996L143.733 159.959L143.732 159.957L143.691 159.918L143.649 159.88L143.608 159.841L143.525 159.763L143.484 159.724L143.471 159.712L143.443 159.685L143.402 159.646L143.32 159.567L143.279 159.527L143.238 159.488L143.211 159.462L143.198 159.448L143.156 159.407L143.116 159.368L143.076 159.327L143.036 159.287L142.995 159.247L142.955 159.207V159.206L142.702 158.951V158.95L142.452 158.691V158.69L142.204 158.428V158.428L141.96 158.163V158.162L141.72 157.895V157.894C141.56 157.715 141.402 157.533 141.247 157.35V157.349C141.091 157.166 140.938 156.98 140.787 156.793V156.793L140.562 156.511V156.51L140.341 156.226V156.226L140.123 155.939V155.938C139.907 155.649 139.696 155.356 139.489 155.06V155.059L139.285 154.761V154.761L139.084 154.461H139.084L138.886 154.158V154.157C138.756 153.954 138.628 153.75 138.502 153.544V153.543L138.315 153.233V153.233L138.132 152.92V152.92L137.953 152.604H137.953L137.777 152.287V152.287L137.605 151.967V151.966L137.438 151.644H137.437L137.273 151.32V151.32L137.112 150.993V150.992L136.956 150.664V150.663L136.803 150.333V150.332L136.654 149.999L136.509 149.664L136.368 149.327H136.368L136.231 148.987H136.231L136.098 148.646C136.011 148.418 135.927 148.188 135.845 147.957L135.725 147.61L135.609 147.261L135.497 146.91L135.388 146.557L135.285 146.203L135.186 145.847L135.091 145.488H135.091L135 145.129H135L134.914 144.767V144.767L134.831 144.404L134.754 144.039L134.681 143.673L134.613 143.305V143.305L134.548 142.936L134.489 142.565L134.434 142.192L134.384 141.818L134.338 141.443L134.297 141.067L134.261 140.689L134.23 140.31L134.203 139.929L134.181 139.547L134.164 139.164L134.151 138.78L134.144 138.395L134.141 138.008C134.141 129.752 137.517 122.249 142.955 116.811C143.812 115.954 144.721 115.147 145.675 114.398H120.45L120.451 114.4ZM145.676 7.15918H74.4697C67.9796 7.15918 62.077 9.81643 57.7964 14.097C53.5159 18.3775 50.859 24.2798 50.859 30.7693C50.859 37.2594 53.5167 43.1611 57.7973 47.4416C62.0778 51.7222 67.9806 54.38 74.4701 54.38H120.451H145.677L145.651 54.3598L145.632 54.3449L145.41 54.1678L145.369 54.1354L145.365 54.1322C145.179 53.9826 144.996 53.8298 144.813 53.6755L144.795 53.6606L144.539 53.4404L144.537 53.4383C144.365 53.2898 144.194 53.1381 144.026 52.9853L143.999 52.9609L143.734 52.7169L143.733 52.7163L143.485 52.4824L143.472 52.4696L143.444 52.4426C143.28 52.2856 143.117 52.1264 142.957 51.9662V51.9657L142.703 51.71V51.7094L142.453 51.4501V51.4495L142.206 51.1875V51.1869L141.962 50.9222V50.9217L141.721 50.6543V50.6538C141.562 50.4745 141.404 50.292 141.248 50.109V50.1084C141.093 49.9249 140.94 49.7392 140.789 49.5525V49.5519L140.564 49.2702V49.2697L140.343 48.9854V48.9848L140.125 48.6978V48.6973C139.908 48.4082 139.697 48.1148 139.49 47.8188V47.8183L139.286 47.5207V47.5202L139.086 47.2199H139.085L138.888 46.917V46.9164C138.757 46.7133 138.629 46.509 138.503 46.3032V46.3027L138.317 45.9923V45.9918L138.134 45.6793V45.6788L137.955 45.3637H137.954L137.779 45.0465V45.0459L137.607 44.7261V44.7255L137.439 44.4035H137.438L137.275 44.0794V44.0788L137.114 43.7521V43.7515L136.957 43.4232V43.4226L136.805 43.0921V43.0916L136.655 42.7584L136.511 42.4232V42.4226L136.37 42.0852H136.369L136.233 41.7457H136.233L136.1 41.4046C136.013 41.1765 135.929 40.9468 135.847 40.716L135.727 40.3686L135.61 40.0195L135.498 39.6689L135.39 39.3161L135.287 38.9617L135.187 38.6052L135.093 38.2471H135.092L135.002 37.8875H135.001L134.916 37.5262V37.5257L134.833 37.1628L134.756 36.7978L134.683 36.4318L134.614 36.0642V36.0636L134.55 35.6944L134.49 35.3236L134.436 34.9512L134.386 34.5772L134.34 34.2021L134.299 33.8255L134.263 33.4478L134.232 33.0685L134.204 32.6881L134.183 32.3062L134.166 31.9231L134.153 31.5391L134.146 31.1534L134.143 30.7672C134.143 22.5111 137.519 15.0073 142.956 9.56974C143.814 8.71246 144.722 7.90611 145.677 7.15706L145.676 7.15918ZM164.152 27.5694H299.688V7.15918H164.152C157.662 7.15918 151.76 9.81643 147.48 14.097C143.199 18.3775 140.542 24.2798 140.542 30.7693L140.544 31.0733L140.55 31.3762L140.559 31.678L140.573 31.9794L140.59 32.2796L140.611 32.5788L140.636 32.8769L140.664 33.174L140.697 33.47L140.733 33.765L140.772 34.0589L140.816 34.3517L140.862 34.643L140.913 34.9332V34.9337L140.966 35.2228L141.024 35.5108L141.085 35.7978L141.15 36.0832L141.218 36.3676L141.289 36.6509L141.364 36.9326L141.442 37.2127L141.524 37.4917L141.609 37.7692L141.697 38.045V38.0456L141.788 38.3198L141.883 38.5925V38.593L141.982 38.8646L142.083 39.1346V39.1352L142.188 39.4036L142.295 39.6704V39.671L142.406 39.9357V39.9362L142.52 40.1999V40.2004L142.637 40.4619V40.4625L142.758 40.7224V40.7229L142.881 40.9813V40.9818L143.007 41.2386V41.2391L143.137 41.4938V41.4943L143.268 41.7473V41.7479L143.404 41.9993V41.9998L143.542 42.2492V42.2497L143.683 42.4974V42.498L143.828 42.7436V42.7441L143.974 42.9881V42.9887L144.124 43.2306V43.2311L144.276 43.4714V43.472L144.433 43.7101V43.7107L144.59 43.9467V43.9473L144.752 44.1818V44.1823L144.915 44.4141V44.4147L150.052 49.6755C150.28 49.8458 150.51 50.0124 150.744 50.1747L150.979 50.3355V50.336L151.215 50.4941C151.374 50.5986 151.534 50.701 151.695 50.8023H151.695C151.856 50.9031 152.018 51.0018 152.182 51.0989C152.345 51.1959 152.51 51.2909 152.676 51.3843L152.926 51.5227H152.927C153.094 51.614 153.262 51.7031 153.432 51.7901L153.687 51.9195H153.688L153.944 52.0458H153.945L154.203 52.1689H154.204L154.463 52.2893H154.464L154.726 52.4065H154.726L154.99 52.5206H154.99L155.255 52.6314H155.255L155.522 52.7391L155.791 52.8436H155.791L156.062 52.945L156.333 53.0431H156.333L156.606 53.1381L156.881 53.2298H156.881L157.157 53.3179H157.157L157.434 53.4028H157.434L157.713 53.4845H157.714L157.993 53.5625L158.275 53.6373L158.558 53.7089H158.559L158.842 53.7768H158.843L159.128 53.8415L159.415 53.9025H159.415L159.703 53.9603L159.992 54.0139L160.283 54.0643H160.283L160.574 54.111L160.867 54.1545H160.867L161.161 54.1938L161.456 54.2298H161.456L161.752 54.2622H161.752L162.049 54.2903H162.049L162.347 54.3152L162.646 54.3365L162.946 54.3534H162.947L163.248 54.3672L163.549 54.3768L163.852 54.3826L164.156 54.3847H262.39H275.228H299.692V33.9751H164.157V27.5747L164.152 27.5694ZM120.451 81.1895H255.986V60.7798H164.152H120.451C113.961 60.7798 108.059 63.4371 103.778 67.7176C99.4976 71.9982 96.8403 77.9004 96.8403 84.3899L96.8424 84.6939L96.8482 84.9968L96.8577 85.2987L96.8718 85.6L96.8888 85.9002L96.9099 86.1995L96.9348 86.4976L96.963 86.7947L96.9953 87.0907L97.0314 87.3856L97.0707 87.6795L97.1143 87.9724L97.1607 88.2636L97.2112 88.5543L97.2647 88.8434L97.3227 89.1315L97.3836 89.4185L97.4483 89.7039L97.5163 89.9882L97.588 90.2715L97.6626 90.5532L97.7405 90.8333L97.8221 91.1123L97.9071 91.3898L97.9954 91.6662L98.087 91.9404L98.1819 92.2137L98.2801 92.4852L98.3816 92.7553L98.4861 93.0237L98.5938 93.2911L98.7045 93.5563L98.8185 93.82V93.8205L98.9357 94.0826L99.0564 94.3431L99.1794 94.6014V94.6019L99.3054 94.8587L99.4352 95.1139L99.567 95.3674L99.7025 95.6189L99.8409 95.8687L99.9818 96.117L100.126 96.3632L100.273 96.6077L100.423 96.8501L100.575 97.091L100.731 97.3297L100.889 97.5663L101.05 97.8008L101.214 98.0331L101.38 98.2639V98.2645L101.549 98.4926L101.72 98.7191L101.894 98.943L102.071 99.1653L102.251 99.3854L102.433 99.6029V99.6034L102.617 99.8183V99.8188L102.805 100.032L102.994 100.243V100.244L103.187 100.452L103.382 100.659V100.659L103.578 100.863V100.863L103.778 101.065V101.065L103.979 101.264V101.265L104.183 101.461V101.462L104.39 101.656V101.656L104.599 101.848L104.81 102.038L105.023 102.226V102.226L105.239 102.411H105.239L105.457 102.593L105.677 102.772L105.899 102.949V102.949L106.123 103.123V103.124L106.349 103.295C106.577 103.465 106.807 103.632 107.041 103.794L107.276 103.955V103.956L107.512 104.114C107.671 104.218 107.831 104.321 107.991 104.422H107.992C108.153 104.523 108.315 104.621 108.479 104.718C108.642 104.816 108.807 104.91 108.973 105.004L109.223 105.142H109.224C109.391 105.234 109.559 105.323 109.729 105.41L109.984 105.539H109.985L110.241 105.665H110.241L110.5 105.788H110.5L110.76 105.909H110.761L111.023 106.026H111.023L111.287 106.14H111.287L111.552 106.251H111.552L111.819 106.359L112.088 106.463H112.088L112.358 106.565L112.63 106.663H112.63L112.903 106.758L113.177 106.849H113.178L113.453 106.937H113.454L113.731 107.022H113.731L114.01 107.104H114.01L114.29 107.182L114.572 107.257L114.855 107.328H114.856L115.139 107.396H115.14L115.425 107.461L115.712 107.522H115.712L116 107.58L116.289 107.634L116.58 107.684H116.58L116.871 107.731L117.164 107.774H117.164L117.458 107.813L117.753 107.849H117.753L118.049 107.882H118.05L118.346 107.91H118.346L118.644 107.935L118.943 107.956L119.243 107.973H119.244L119.545 107.987L119.846 107.996L120.149 108.002L120.453 108.004H164.154H255.988V87.5941H120.453V81.1937L120.451 81.1895ZM146.32 46.1955V46.1961L146.507 46.4088V46.4093L146.697 46.6204V46.621L146.889 46.8295V46.83L147.083 47.0363V47.0369L147.28 47.2406V47.2411L147.48 47.4427V47.4432L147.681 47.6422V47.6427L147.885 47.839V47.8395L148.092 48.0337V48.0342L148.301 48.2262L148.512 48.4161L148.725 48.6034V48.6039L148.941 48.7886H148.941L149.159 48.9705L149.379 49.1498L149.601 49.3265V49.327L149.825 49.501V49.5015L150.052 49.6729L146.32 46.1971V46.1955ZM146.32 153.437V153.437L146.507 153.65V153.651L146.697 153.862V153.862L146.889 154.071V154.071L147.083 154.278V154.278L147.28 154.482V154.482L147.48 154.684V154.684L147.681 154.883V154.884L147.885 155.08V155.081L148.092 155.275V155.275L148.301 155.467L148.512 155.657L148.725 155.845V155.845L148.941 156.03H148.941L149.159 156.212L149.379 156.391L149.601 156.568V156.568L149.825 156.742V156.743L150.052 156.914L146.32 153.438V153.437Z" fill="#373435"/>
</svg>
