<svg viewBox="0 0 261 196" fill="none" xmlns="http://www.w3.org/2000/svg">
<path d="M52.0135 0.15918H208.946C223.047 0.15918 235.847 5.90919 245.121 15.1833C254.395 24.4579 260.145 37.2592 260.145 51.3592V159.848C260.145 169.541 256.192 178.342 249.816 184.718C243.44 191.094 234.639 195.047 224.945 195.047H220.607C211.974 195.047 204.028 191.987 197.87 186.792C191.721 181.604 187.37 174.29 185.914 165.775L179.935 130.783C179.404 127.674 177.822 125.01 175.589 123.125C173.363 121.248 170.471 120.141 167.314 120.141H93.6444C90.4879 120.141 87.5962 121.248 85.3707 123.126C83.1368 125.01 81.5541 127.676 81.0236 130.783L75.0435 165.775C73.5884 174.291 69.2387 181.605 63.0892 186.792C56.9318 191.987 48.9862 195.047 40.3514 195.047H36.0133C26.3181 195.047 17.5175 191.095 11.1415 184.719C4.76605 178.344 0.813477 169.543 0.813477 159.848V51.3592C0.813477 37.2576 6.56324 24.4568 15.8368 15.1833C25.1109 5.90919 37.9116 0.159698 52.0127 0.159698L52.0135 0.15918ZM184.144 50.9608H228.145V57.3612H184.144V50.9608ZM76.8149 57.3612H58.0147V76.1608H51.6144V57.3612H32.815V50.9608H51.6144V32.1606H58.0147V50.9608H76.8149V57.3612ZM208.946 6.55957H52.0135C39.6785 6.55957 28.4782 11.5918 20.3621 19.7078C12.2461 27.8239 7.21379 39.0236 7.21379 51.3592V159.848C7.21379 167.777 10.4495 174.977 15.6669 180.194C20.8848 185.412 28.0846 188.647 36.0133 188.647H40.3514C47.4419 188.647 53.9446 186.152 58.9646 181.918C63.9921 177.676 67.5508 171.685 68.7439 164.7L74.724 129.708C75.516 125.07 77.8908 121.082 81.2462 118.251C84.6095 115.414 88.9435 113.741 93.6448 113.741H167.314C172.017 113.741 176.35 115.413 179.714 118.251C183.069 121.081 185.443 125.069 186.236 129.708L192.215 164.7C193.408 171.684 196.968 177.675 201.995 181.917C207.016 186.152 213.519 188.647 220.608 188.647H224.946C232.873 188.647 240.073 185.411 245.291 180.193C250.509 174.975 253.745 167.774 253.745 159.848V51.3592C253.745 39.0252 248.713 27.8254 240.596 19.7084C232.481 11.5924 221.281 6.55957 208.946 6.55957Z" fill="#373435"/>
</svg>
