<svg  viewBox="0 0 154 197" fill="none" xmlns="http://www.w3.org/2000/svg">
<path d="M147.38 26.1449L76.9946 7.28482L6.60832 26.1449V108.786C6.60832 121.376 9.71597 133.055 15.5376 143.139C21.3714 153.243 29.9283 161.779 40.8145 168.064H40.8272L76.9942 188.946L113.161 168.064H113.174C124.06 161.78 132.617 153.244 138.451 143.139L138.457 143.142C144.274 133.06 147.38 121.382 147.38 108.786V26.1449ZM80.1945 77.1571C80.1945 81.1156 78.5772 84.7124 75.9719 87.3177C73.3667 89.9224 69.7699 91.5404 65.8113 91.5404L65.8107 85.14C68.0032 85.14 69.9985 84.2408 71.4468 82.7931C72.8945 81.3454 73.7936 79.3496 73.7936 77.1576H73.8064L73.8473 46.4766L73.764 45.4888C73.5788 43.2841 72.5486 41.3059 71.0006 39.882C69.4702 38.4752 67.4277 37.6126 65.1901 37.6126C62.9519 37.6126 60.9096 38.4746 59.3791 39.882C57.8311 41.3053 56.8009 43.2835 56.6158 45.4888L56.3686 48.4261H45.417C41.9094 48.4261 38.7179 49.8633 36.4034 52.1783C34.0883 54.4929 32.6512 57.6843 32.6512 61.1919C32.6512 61.6964 32.6731 62.1442 32.714 62.5357C32.7617 62.9738 32.8343 63.4195 32.9313 63.8704L33.3516 65.8226L31.7564 67.0581C30.2158 68.2512 28.95 69.7912 28.0784 71.5593C27.2503 73.2399 26.784 75.1407 26.784 77.1582C26.784 78.086 26.8789 78.9751 27.0582 79.8154C27.2486 80.7061 27.5272 81.5538 27.8832 82.3474L28.646 84.0477L27.5336 85.5474C26.7405 86.6169 26.1067 87.8274 25.6717 89.1404C25.2579 90.3913 25.0328 91.7314 25.0328 93.1239C25.0328 95.4087 25.6329 97.5482 26.6806 99.3916C27.7766 101.321 29.3579 102.941 31.2528 104.08L33.0789 105.178L32.778 107.267C32.7356 107.562 32.7028 107.867 32.68 108.179C32.6619 108.436 32.6518 108.739 32.6518 109.09C32.6518 111.46 33.3032 113.68 34.4337 115.582C35.6066 117.555 37.3004 119.192 39.3221 120.301L41.2251 121.345L40.9594 123.488C40.9196 123.81 40.8929 124.07 40.8813 124.266C40.8701 124.452 40.8639 124.715 40.8639 125.056C40.8639 128.565 42.301 131.756 44.6161 134.071C46.9306 136.386 50.1221 137.823 53.6297 137.823H64.4868V142.03C64.4868 143.306 65.0113 144.469 65.8559 145.314C66.7004 146.158 67.8638 146.683 69.1402 146.683C70.4171 146.683 71.5803 146.158 72.4249 145.314C73.2694 144.469 73.7942 143.306 73.7942 142.03H73.7644L73.8069 110.771H80.1813L80.2237 142.03H80.1941C80.1941 143.306 80.7187 144.469 81.5632 145.314C82.4078 146.158 83.5712 146.683 84.8475 146.683C86.1244 146.683 87.2877 146.158 88.1322 145.314C88.9768 144.469 89.5016 143.306 89.5016 142.03V137.823H100.359C103.866 137.823 107.058 136.386 109.372 134.071C111.687 131.756 113.124 128.565 113.124 125.057C113.124 124.714 113.119 124.451 113.107 124.265C113.095 124.07 113.068 123.81 113.029 123.488L112.763 121.345L114.666 120.3C116.688 119.191 118.381 117.554 119.554 115.581C120.685 113.68 121.336 111.459 121.336 109.09C121.336 108.738 121.326 108.435 121.308 108.178C121.286 107.866 121.253 107.562 121.21 107.267L120.909 105.178L122.735 104.08C124.63 102.941 126.211 101.321 127.308 99.3911C128.355 97.5477 128.955 95.4082 128.955 93.1244C128.955 91.7308 128.73 90.3913 128.317 89.1399C127.882 87.8274 127.248 86.6163 126.455 85.5469L125.342 84.0471L126.105 82.3469C126.461 81.5533 126.739 80.705 126.93 79.8149C127.109 78.974 127.204 78.0855 127.204 77.1582C127.204 75.1407 126.737 73.2405 125.909 71.5593C125.038 69.7917 123.772 68.2507 122.231 67.0576L120.636 65.8221L121.056 63.8699C121.153 63.4195 121.226 62.9733 121.273 62.5351C121.315 62.1431 121.336 61.6959 121.336 61.1914C121.336 57.6832 119.899 54.4918 117.584 52.1773C115.27 49.8622 112.078 48.4251 108.571 48.4251H97.6185L97.3719 45.4877C97.1868 43.283 96.1566 41.3048 94.6086 39.881C93.0781 38.4741 91.0357 37.6115 88.798 37.6115C86.5599 37.6115 84.5175 38.4736 82.9871 39.881C81.4391 41.3043 80.4089 43.2825 80.2237 45.4877L80.2231 45.492L80.1813 77.1571H80.1941H80.1945ZM73.7942 110.771C73.7942 106.812 75.4116 103.215 78.0168 100.61C80.6221 98.0044 84.219 96.387 88.177 96.387L88.1784 102.787C85.9854 102.787 83.9902 103.687 82.542 105.134C81.0942 106.582 80.1952 108.577 80.1952 110.77L73.7946 110.77L73.7942 110.771ZM50.6202 100.498C53.0997 98.0188 54.3394 94.7456 54.3394 91.4709C54.3394 88.9128 53.5829 86.3558 52.0699 84.1776C48.0902 86.698 43.38 88.1606 38.343 88.1606V81.7602C43.6691 81.7602 48.5129 79.5788 52.0264 76.0653C55.5398 72.5524 57.7213 67.7074 57.7213 62.3818L64.1216 62.3808C64.1216 69.231 61.4173 75.4781 57.0248 80.1045C59.5012 83.4673 60.7397 87.4699 60.7397 91.4709C60.7397 96.3806 58.8747 101.293 55.1453 105.023L50.6202 100.498ZM60.9903 125.834C60.9903 123.714 60.1206 121.783 58.7201 120.383C57.3196 118.983 55.3898 118.113 53.2699 118.113L53.2693 111.713C57.1557 111.713 60.6872 113.301 63.2453 115.858C65.8028 118.416 67.3906 121.947 67.3906 125.834H60.9903ZM98.844 105.023C95.1147 101.293 93.2494 96.3801 93.2494 91.4704C93.2494 87.4699 94.4882 83.4673 96.9645 80.104C92.572 75.4776 89.8675 69.2305 89.8675 62.3813L96.2681 62.3802C96.2681 67.7069 98.4493 72.5519 101.963 76.0648C105.476 79.5783 110.321 81.7597 115.646 81.7597V88.1601C110.61 88.1601 105.9 86.6975 101.919 84.1771C100.407 86.3553 99.6499 88.9123 99.6499 91.4704C99.6499 94.7451 100.89 98.0182 103.369 100.498L98.844 105.023ZM86.5988 125.834C86.5988 121.948 88.187 118.416 90.7445 115.858C93.302 113.301 96.8336 111.713 100.719 111.713L100.72 118.113C98.5995 118.113 96.6696 118.983 95.2696 120.383C93.8691 121.784 92.9991 123.714 92.9991 125.834H86.5988ZM26.2672 108.396C24.1819 106.816 22.427 104.822 21.131 102.541C19.5427 99.746 18.6329 96.5297 18.6329 93.1244C18.6329 91.0401 18.972 89.0274 19.5969 87.1399C20.0478 85.7776 20.6542 84.4763 21.3937 83.2567C21.1587 82.5644 20.9625 81.8573 20.8092 81.1401C20.5312 79.8382 20.3841 78.5051 20.3841 77.1582C20.3841 74.1529 21.0934 71.2915 22.3538 68.734C23.3633 66.6868 24.731 64.8412 26.3739 63.2805L26.3665 63.1977C26.2912 62.4879 26.2525 61.8169 26.2525 61.1919C26.2525 55.9178 28.4078 51.1248 31.8799 47.6527C35.352 44.1806 40.1444 42.0252 45.418 42.0252H50.7899C51.5687 39.3674 53.0661 37.0099 55.055 35.1813C57.7318 32.7198 61.2953 31.2122 65.1907 31.2122C69.0866 31.2122 72.65 32.7204 75.3268 35.1813C75.93 35.7362 76.488 36.3394 76.9946 36.9855C77.5012 36.3394 78.0594 35.7362 78.6625 35.1813C81.3394 32.7198 84.9026 31.2122 88.798 31.2122C92.694 31.2122 96.2573 32.7204 98.9342 35.1813C100.923 37.0099 102.421 39.3674 103.199 42.0252H108.571C113.845 42.0252 118.638 44.1806 122.109 47.6527C125.581 51.1248 127.737 55.9172 127.737 61.1909C127.737 61.8163 127.698 62.4874 127.623 63.1977L127.615 63.281C129.258 64.8417 130.626 66.6873 131.635 68.7345C132.895 71.2914 133.605 74.1519 133.605 77.1571C133.605 78.5051 133.459 79.8377 133.18 81.1395C133.027 81.8573 132.831 82.5639 132.596 83.2562C133.335 84.4752 133.942 85.7771 134.392 87.1394C135.017 89.0269 135.356 91.0396 135.356 93.1233C135.356 96.5296 134.447 99.746 132.858 102.541C131.562 104.822 129.807 106.816 127.722 108.396C127.732 108.639 127.737 108.87 127.737 109.089C127.737 112.635 126.758 115.969 125.055 118.831C123.653 121.189 121.76 123.224 119.522 124.792L119.525 125.055C119.525 130.329 117.37 135.122 113.898 138.595C110.426 142.067 105.633 144.222 100.36 144.222H95.6835C95.2437 146.389 94.1661 148.33 92.6584 149.838C90.6569 151.839 87.8921 153.082 84.8492 153.082C81.8063 153.082 79.0413 151.839 77.0398 149.838L76.9952 149.793L76.9506 149.838C74.9491 151.839 72.1841 153.082 69.1412 153.082C66.0983 153.082 63.3333 151.839 61.3318 149.838C59.8236 148.33 58.7467 146.389 58.3069 144.222H53.6307C48.3571 144.222 43.5641 142.067 40.0926 138.595C36.6205 135.122 34.465 130.33 34.465 125.056L34.4681 124.792C32.2305 123.224 30.3379 121.189 28.9352 118.831C27.2334 115.969 26.2529 112.635 26.2529 109.09C26.2529 108.87 26.2584 108.639 26.2685 108.396L26.2672 108.396ZM77.8202 0.888672L153.781 21.2426V108.786C153.781 122.49 150.368 135.254 143.976 146.326V146.339C137.597 157.387 128.247 166.718 116.358 173.584L116.362 173.59L76.9942 196.318L37.6279 173.59L37.631 173.584C25.7416 166.718 16.3922 157.387 10.013 146.339C3.62057 135.267 0.208008 122.499 0.208008 108.786V21.2432L76.1692 0.889216H77.8195L77.8202 0.888672Z" fill="#373435"/>
</svg>
