<svg width="291" height="196" viewBox="0 0 291 196" fill="none" xmlns="http://www.w3.org/2000/svg">
<path fill-rule="evenodd" clip-rule="evenodd" d="M278.437 0.164062V45.8002C281.425 46.4294 284.095 47.9196 286.176 50.0002C288.975 52.7996 290.707 56.6674 290.707 60.9389C290.707 65.2099 288.975 69.0783 286.176 71.8777C284.096 73.9577 281.425 75.4484 278.437 76.0776V195.052H12.2772V149.416C9.28944 148.787 6.619 147.297 4.53841 145.216C1.73899 142.417 0.00683594 138.549 0.00683594 134.277C0.00683594 130.006 1.73899 126.138 4.53841 123.339C6.61847 121.259 9.28944 119.768 12.2772 119.139V0.164062H278.437Z" fill="#FF7955"/>
<path d="M275.238 51.8686C272.733 51.8686 270.464 52.8839 268.824 54.5247C267.183 56.1655 266.168 58.4334 266.168 60.9384C266.168 63.4434 267.183 65.7118 268.824 67.3521C270.465 68.9929 272.733 70.0082 275.238 70.0082C277.743 70.0082 280.011 68.9929 281.651 67.3521C283.292 65.7112 284.307 63.4434 284.307 60.9384C284.307 58.4334 283.292 56.165 281.651 54.5247C280.01 52.8839 277.743 51.8686 275.238 51.8686ZM15.4781 125.207C12.9731 125.207 10.7046 126.222 9.06432 127.863C7.42351 129.504 6.40813 131.772 6.40813 134.277C6.40813 136.782 7.42351 139.05 9.06432 140.691C10.7051 142.331 12.9731 143.347 15.4781 143.347C17.9831 143.347 20.2514 142.331 21.8917 140.691C23.5325 139.05 24.5479 136.782 24.5479 134.277C24.5479 131.772 23.5325 129.504 21.8917 127.863C20.2509 126.222 17.9831 125.207 15.4781 125.207ZM4.53918 123.339C6.61924 121.259 9.29042 119.768 12.2782 119.139V0.164062H278.438V45.8002C281.426 46.4294 284.096 47.9196 286.177 50.0002C288.976 52.7996 290.708 56.6674 290.708 60.9389C290.708 65.2099 288.976 69.0783 286.177 71.8777C284.097 73.9577 281.426 75.4484 278.438 76.0776V195.052H12.2782V149.416C9.29042 148.787 6.61977 147.297 4.53918 145.216C1.73976 142.417 0.0078125 138.549 0.0078125 134.277C0.0078125 130.006 1.73976 126.138 4.53918 123.339ZM18.6781 119.139C21.6658 119.768 24.3362 121.258 26.4168 123.339C27.7171 124.639 28.7865 126.169 29.56 127.864L54.9107 122.199L54.9095 122.007C54.9095 117.736 56.6416 113.868 59.441 111.068C62.2405 108.269 66.1082 106.537 70.3798 106.537C73.463 106.537 76.3367 107.44 78.7493 108.995L81.2735 106.443C79.6614 104.001 78.7228 101.075 78.7228 97.9318C78.7228 93.6608 80.455 89.7924 83.2544 86.993C86.0538 84.1936 89.9216 82.4615 94.1931 82.4615C98.4641 82.4615 102.332 84.1936 105.132 86.993C107.81 89.671 109.511 93.3266 109.654 97.3774L133.073 101.45C133.858 99.4877 135.033 97.7233 136.503 96.2533C139.302 93.4539 143.17 91.7218 147.442 91.7218C151.713 91.7218 155.581 93.4539 158.381 96.2533C159.984 97.8565 161.237 99.8103 162.015 101.989L200.077 96.8109C200.352 92.986 202.017 89.5452 204.569 86.993C207.368 84.1936 211.236 82.4615 215.508 82.4615C219.779 82.4615 223.647 84.1936 226.447 86.993C226.532 87.0779 226.615 87.1644 226.699 87.2514L260.687 66.2019C260.092 64.559 259.768 62.7872 259.768 60.9395C259.768 56.6685 261.5 52.8001 264.299 50.0007C266.379 47.9206 269.05 46.4299 272.038 45.8008V6.56499H18.6791V119.14L18.6781 119.139ZM30.9472 134.086L30.9482 134.277C30.9482 138.548 29.2162 142.417 26.4168 145.216C24.3368 147.296 21.6658 148.787 18.6781 149.416V188.652H272.037V76.0771C269.049 75.4479 266.379 73.9577 264.298 71.8772C264.213 71.7923 264.13 71.7063 264.047 71.6193L230.059 92.6688C230.653 94.3112 230.977 96.0835 230.977 97.9313C230.977 102.202 229.245 106.071 226.446 108.87C223.646 111.669 219.778 113.401 215.507 113.401C211.236 113.401 207.367 111.669 204.568 108.87C202.965 107.267 201.712 105.313 200.934 103.134L162.871 108.313C162.597 112.137 160.932 115.579 158.38 118.131C155.58 120.93 151.712 122.662 147.441 122.662C143.17 122.662 139.301 120.93 136.502 118.131C133.824 115.453 132.123 111.797 131.98 107.746L108.561 103.674C107.776 105.636 106.601 107.401 105.131 108.871C102.331 111.67 98.4636 113.402 94.1921 113.402C91.1083 113.402 88.2352 112.499 85.8225 110.943L83.2983 113.495C84.9105 115.937 85.849 118.863 85.849 122.007C85.849 126.278 84.1169 130.146 81.3175 132.946C78.518 135.745 74.6503 137.477 70.3787 137.477C66.1077 137.477 62.2394 135.745 59.44 132.946C58.1398 131.646 57.0703 130.115 56.2968 128.42L30.9461 134.086H30.9472ZM218.707 121.742V179.096H212.307V121.742H218.707ZM150.642 131.003V179.096H144.241V131.003H150.642ZM97.392 121.742V179.096H90.9915V121.742H97.392ZM73.5797 147.034V179.096H67.1794V147.034H73.5797ZM215.507 88.8609C213.002 88.8609 210.733 89.8763 209.093 91.5171C207.452 93.1579 206.437 95.4257 206.437 97.9307C206.437 100.436 207.452 102.704 209.093 104.344C210.734 105.985 213.002 107.001 215.507 107.001C218.012 107.001 220.28 105.985 221.92 104.344C223.561 102.704 224.577 100.436 224.577 97.9307C224.577 95.4257 223.561 93.1574 221.92 91.5171C220.28 89.8763 218.012 88.8609 215.507 88.8609ZM147.441 98.1217C144.936 98.1217 142.668 99.1371 141.028 100.778C139.387 102.419 138.372 104.687 138.372 107.192C138.372 109.697 139.387 111.965 141.028 113.605C142.669 115.246 144.936 116.261 147.441 116.261C149.946 116.261 152.215 115.246 153.855 113.605C155.496 111.964 156.511 109.697 156.511 107.192C156.511 104.687 155.496 102.418 153.855 100.778C152.214 99.1371 149.946 98.1217 147.441 98.1217ZM94.1931 88.8609C91.6881 88.8609 89.4198 89.8763 87.7795 91.5171C86.1387 93.1579 85.1233 95.4257 85.1233 97.9307C85.1233 100.436 86.1387 102.704 87.7795 104.344C89.4203 105.985 91.6881 107.001 94.1931 107.001C96.6981 107.001 98.9664 105.985 100.607 104.344C102.247 102.704 103.263 100.436 103.263 97.9307C103.263 95.4257 102.247 93.1574 100.607 91.5171C98.9659 89.8763 96.6981 88.8609 94.1931 88.8609ZM70.3794 112.937C67.8744 112.937 65.6059 113.952 63.9656 115.593C62.3248 117.234 61.3094 119.502 61.3094 122.007C61.3094 124.512 62.3248 126.78 63.9656 128.42C65.6064 130.061 67.8744 131.076 70.3794 131.076C72.8843 131.076 75.1526 130.061 76.7929 128.42C78.4337 126.779 79.4491 124.512 79.4491 122.007C79.4491 119.502 78.4337 117.233 76.7929 115.593C75.1521 113.952 72.8843 112.937 70.3794 112.937Z" fill="#A3523B"/>
</svg>
