<svg  viewBox="0 0 291 196" fill="none" xmlns="http://www.w3.org/2000/svg">
<path d="M275.438 51.8647C272.933 51.8647 270.665 52.88 269.024 54.5208C267.383 56.1617 266.368 58.4295 266.368 60.9345C266.368 63.4395 267.383 65.7079 269.024 67.3481C270.665 68.989 272.933 70.0043 275.438 70.0043C277.943 70.0043 280.211 68.989 281.851 67.3481C283.492 65.7073 284.508 63.4395 284.508 60.9345C284.508 58.4295 283.492 56.1611 281.851 54.5208C280.211 52.88 277.943 51.8647 275.438 51.8647ZM15.6783 125.203C13.1733 125.203 10.905 126.219 9.26472 127.859C7.62391 129.5 6.60853 131.768 6.60853 134.273C6.60853 136.778 7.62391 139.046 9.26472 140.687C10.9055 142.328 13.1733 143.343 15.6783 143.343C18.1833 143.343 20.4516 142.328 22.0919 140.687C23.7327 139.046 24.7481 136.778 24.7481 134.273C24.7481 131.768 23.7327 129.5 22.0919 127.859C20.4511 126.219 18.1833 125.203 15.6783 125.203ZM4.73958 123.335C6.81964 121.255 9.49061 119.764 12.4784 119.135V0.160156H278.638V45.7964C281.626 46.4255 284.297 47.9157 286.377 49.9963C289.177 52.7957 290.909 56.6635 290.909 60.935C290.909 65.206 289.177 69.0744 286.377 71.8738C284.297 73.9538 281.626 75.4445 278.638 76.0737V195.048H12.4784V149.412C9.49061 148.783 6.82017 147.293 4.73958 145.212C1.94017 142.413 0.208008 138.545 0.208008 134.274C0.208008 130.003 1.94017 126.134 4.73958 123.335ZM18.8783 119.135C21.866 119.764 24.5364 121.254 26.617 123.335C27.9173 124.635 28.9867 126.165 29.7602 127.86L55.1109 122.195L55.1099 122.003C55.1099 117.732 56.8418 113.864 59.6412 111.064C62.4407 108.265 66.3086 106.533 70.5802 106.533C73.6634 106.533 76.5371 107.436 78.9497 108.991L81.4737 106.439C79.8616 103.997 78.9232 101.072 78.9232 97.9279C78.9232 93.6569 80.6552 89.7885 83.4546 86.9891C86.254 84.1897 90.1218 82.4576 94.3933 82.4576C98.6643 82.4576 102.533 84.1897 105.332 86.9891C108.01 89.667 109.711 93.3227 109.854 97.3735L133.273 101.446C134.058 99.4838 135.233 97.7194 136.703 96.2494C139.503 93.45 143.371 91.718 147.642 91.718C151.913 91.718 155.781 93.45 158.581 96.2494C160.184 97.8526 161.437 99.8064 162.215 101.985L200.278 96.807C200.552 92.9821 202.217 89.5413 204.769 86.9891C207.569 84.1897 211.437 82.4576 215.708 82.4576C219.979 82.4576 223.847 84.1897 226.647 86.9891C226.732 87.074 226.816 87.1605 226.899 87.2475L260.887 66.1981C260.293 64.5551 259.968 62.7833 259.968 60.9356C259.968 56.6646 261.7 52.7962 264.5 49.9968C266.58 47.9167 269.251 46.426 272.239 45.7969V6.56109H18.8793V119.136L18.8783 119.135ZM31.1476 134.082L31.1486 134.274C31.1486 138.545 29.4164 142.413 26.617 145.212C24.537 147.292 21.866 148.783 18.8783 149.412V188.648H272.238V76.0732C269.25 75.444 266.579 73.9539 264.499 71.8733C264.414 71.7884 264.33 71.7024 264.247 71.6154L230.259 92.6649C230.854 94.3073 231.177 96.0797 231.177 97.9274C231.177 102.198 229.445 106.067 226.646 108.866C223.846 111.666 219.979 113.398 215.707 113.398C211.436 113.398 207.568 111.666 204.768 108.866C203.165 107.263 201.912 105.309 201.134 103.13L163.072 108.309C162.797 112.133 161.132 115.575 158.58 118.127C155.78 120.926 151.913 122.658 147.641 122.658C143.37 122.658 139.502 120.926 136.702 118.127C134.024 115.449 132.323 111.793 132.18 107.743L108.761 103.67C107.976 105.632 106.801 107.397 105.331 108.867C102.532 111.666 98.6638 113.398 94.3923 113.398C91.3085 113.398 88.4354 112.495 86.0227 110.939L83.4987 113.491C85.1109 115.933 86.0492 118.859 86.0492 122.003C86.0492 126.274 84.3173 130.143 81.5179 132.942C78.7184 135.741 74.8505 137.473 70.5789 137.473C66.3079 137.473 62.4396 135.741 59.6402 132.942C58.34 131.642 57.2705 130.111 56.497 128.416L31.1465 134.082H31.1476ZM218.907 121.739V179.092H212.507V121.739H218.907ZM150.842 130.999V179.092H144.442V130.999H150.842ZM97.5922 121.739V179.092H91.1919V121.739H97.5922ZM73.7801 147.03V179.092H67.3796V147.03H73.7801ZM215.707 88.857C213.202 88.857 210.934 89.8723 209.293 91.5132C207.652 93.154 206.637 95.4219 206.637 97.9268C206.637 100.432 207.652 102.7 209.293 104.34C210.934 105.981 213.202 106.997 215.707 106.997C218.212 106.997 220.48 105.981 222.121 104.34C223.761 102.7 224.777 100.432 224.777 97.9268C224.777 95.4219 223.761 93.1534 222.121 91.5132C220.48 89.8723 218.212 88.857 215.707 88.857ZM147.642 98.1178C145.137 98.1178 142.868 99.1332 141.228 100.774C139.587 102.415 138.572 104.683 138.572 107.188C138.572 109.693 139.587 111.961 141.228 113.601C142.869 115.242 145.137 116.257 147.642 116.257C150.147 116.257 152.415 115.242 154.055 113.601C155.696 111.96 156.712 109.693 156.712 107.188C156.712 104.683 155.696 102.414 154.055 100.774C152.414 99.1332 150.147 98.1178 147.642 98.1178ZM94.3933 88.857C91.8883 88.857 89.62 89.8723 87.9797 91.5132C86.3389 93.154 85.3235 95.4219 85.3235 97.9268C85.3235 100.432 86.3389 102.7 87.9797 104.34C89.6205 105.981 91.8883 106.997 94.3933 106.997C96.8983 106.997 99.1668 105.981 100.807 104.34C102.448 102.7 103.463 100.432 103.463 97.9268C103.463 95.4219 102.448 93.1534 100.807 91.5132C99.1663 89.8723 96.8983 88.857 94.3933 88.857ZM70.5796 112.933C68.0746 112.933 65.8063 113.948 64.166 115.589C62.5252 117.23 61.5098 119.498 61.5098 122.003C61.5098 124.508 62.5252 126.776 64.166 128.416C65.8068 130.057 68.0746 131.073 70.5796 131.073C73.0845 131.073 75.3528 130.057 76.9931 128.416C78.6339 126.776 79.6493 124.508 79.6493 122.003C79.6493 119.498 78.6339 117.229 76.9931 115.589C75.3523 113.948 73.0845 112.933 70.5796 112.933Z" fill="#373435"/>
</svg>
