<svg  viewBox="0 0 180 196" fill="none" xmlns="http://www.w3.org/2000/svg">
<path d="M6.79638 188.647H173.567V167.486H163.648H160.372H15.6529H6.79638V188.647ZM120.013 88.7525H139.608V161.085H157.095L154.281 58.1516H25.0194L22.2062 161.085H56.0877V95.1524H42.8927V88.752H62.4876L62.4882 161.085H94.6475V95.1519H81.4527V88.7515H101.047V161.084H133.207V95.1513H120.012V88.751L120.013 88.7525ZM35.6511 70.2521H143.651V76.6526H35.6511V70.2521ZM24.3424 51.7517H154.96L162.788 23.4855H16.515L24.3431 51.7517H24.3424ZM18.7182 55.3511L9.89397 23.4855H0.396484V0.15918H179.967V23.4855H176.767H169.408L160.584 55.3501L163.474 161.086H179.967V195.047H176.767H0.397106V161.086H15.8291C16.7935 125.841 17.7597 90.596 18.7188 55.3511H18.7182ZM6.79701 17.0851H8.12117H171.181H173.567V6.55905H6.79701V17.0851Z" fill="#373435"/>
</svg>
