<svg  viewBox="0 0 180 196" fill="none" xmlns="http://www.w3.org/2000/svg">
<path fill-rule="evenodd" clip-rule="evenodd" d="M160.383 55.355L163.272 161.091H179.766V195.052H176.566H0.195312V161.091H15.6273C16.5917 125.846 17.5579 90.6009 18.517 55.356L9.69279 23.4904H0.195312V0.164062H179.766V23.4904H176.566H169.207L160.383 55.355H160.383Z" fill="#FF7955"/>
<path d="M6.59424 188.652H173.364V167.491H163.446H160.17H15.4508H6.59424V188.652ZM119.811 88.7574H139.406V161.09H156.893L154.079 58.1565H24.8173L22.004 161.09H55.8855V95.1573H42.6905V88.7569H62.2854L62.286 161.09H94.4453V95.1568H81.2505V88.7564H100.845V161.089H133.005V95.1562H119.81V88.7558L119.811 88.7574ZM35.4489 70.257H143.449V76.6574H35.4489V70.257ZM24.1403 51.7566H154.758L162.586 23.4904H16.3128L24.1409 51.7566H24.1403ZM18.516 55.356L9.69182 23.4904H0.194336V0.164062H179.765V23.4904H176.565H169.206L160.382 55.355L163.272 161.091H179.765V195.052H176.565H0.194958V161.091H15.6269C16.5914 125.846 17.5575 90.6009 18.5166 55.356H18.516ZM6.59486 17.09H7.91902H170.979H173.365V6.56393H6.59486V17.09Z" fill="#A3523B"/>
</svg>
