<svg  viewBox="0 0 196 196" fill="none" xmlns="http://www.w3.org/2000/svg">
<path d="M33.2499 94.4034H52.4251L73.2565 26.3809H79.3568L119.363 157.017L138.538 94.4034H162.42V100.804H143.244L122.413 168.826H116.313L76.3064 38.1902L57.1312 100.804H33.2499V94.4034ZM97.8349 0.15918C124.743 0.15918 149.104 11.0666 166.738 28.7002C184.371 46.3343 195.279 70.6957 195.279 97.6033C195.279 124.511 184.371 148.873 166.738 166.506C149.104 184.14 124.743 195.047 97.8349 195.047C70.9273 195.047 46.5659 184.14 28.9318 166.506C11.2982 148.873 0.390625 124.511 0.390625 97.6033C0.390625 70.6957 11.2982 46.3343 28.9318 28.7002C46.5659 11.0666 70.9273 0.15918 97.8349 0.15918ZM162.213 33.2253C145.737 16.7498 122.976 6.55957 97.8349 6.55957C72.6933 6.55957 49.9319 16.7503 33.4569 33.2253C16.9819 49.7009 6.79115 72.4622 6.79115 97.6033C6.79115 122.745 16.9814 145.506 33.4569 161.981C49.9324 178.456 72.6938 188.647 97.8349 188.647C122.977 188.647 145.738 178.457 162.213 161.981C178.688 145.506 188.878 122.744 188.878 97.6033C188.878 72.4617 178.688 49.7003 162.213 33.2253ZM138.753 68.7259H125.542V81.9357H119.142V68.7259H105.932V62.3255H119.142V49.1152H125.542V62.3255H138.753V68.7259Z" fill="#373435"/>
</svg>
