<svg  viewBox="0 0 196 196" fill="none" xmlns="http://www.w3.org/2000/svg">
<path fill-rule="evenodd" clip-rule="evenodd" d="M97.6335 0.164062C124.541 0.164062 148.903 11.0715 166.537 28.7051C184.17 46.3392 195.078 70.7005 195.078 97.6082C195.078 124.516 184.17 148.878 166.537 166.511C148.903 184.145 124.541 195.052 97.6335 195.052C70.7259 195.052 46.3647 184.145 28.7306 166.511C11.097 148.878 0.189453 124.516 0.189453 97.6082C0.189453 70.7005 11.097 46.3392 28.7306 28.7051C46.3647 11.0715 70.7259 0.164062 97.6335 0.164062Z" fill="#FF7955"/>
<path d="M33.0487 94.4083H52.224L73.0554 26.3858H79.1554L119.162 157.022L138.337 94.4083H162.218V100.809H143.043L122.212 168.831H116.112L76.1051 38.1951L56.93 100.809H33.0487V94.4083ZM97.6335 0.164062C124.541 0.164062 148.903 11.0715 166.537 28.7051C184.17 46.3392 195.078 70.7005 195.078 97.6082C195.078 124.516 184.17 148.878 166.537 166.511C148.903 184.145 124.541 195.052 97.6335 195.052C70.7259 195.052 46.3647 184.145 28.7306 166.511C11.097 148.878 0.189453 124.516 0.189453 97.6082C0.189453 70.7005 11.097 46.3392 28.7306 28.7051C46.3647 11.0715 70.7259 0.164062 97.6335 0.164062ZM162.012 33.2302C145.536 16.7547 122.775 6.56446 97.6335 6.56446C72.4919 6.56446 49.7305 16.7552 33.2555 33.2302C16.7805 49.7057 6.58977 72.4671 6.58977 97.6082C6.58977 122.75 16.78 145.511 33.2555 161.986C49.7311 178.461 72.4924 188.652 97.6335 188.652C122.775 188.652 145.537 178.462 162.012 161.986C178.487 145.511 188.677 122.749 188.677 97.6082C188.677 72.4665 178.487 49.7052 162.012 33.2302ZM138.552 68.7308H125.341V81.9406H118.941V68.7308H105.731V62.3304H118.941V49.1201H125.341V62.3304H138.552V68.7308Z" fill="#A3523B"/>
</svg>
