<svg  viewBox="0 0 122 123" fill="none" xmlns="http://www.w3.org/2000/svg">
<path fill-rule="evenodd" clip-rule="evenodd" d="M65.3272 2.36146L80.711 12.5156C80.8421 12.6032 80.9291 12.6467 81.0161 12.6896C81.1036 12.7331 81.2341 12.7772 81.3646 12.7772L99.4499 16.4816C101.106 16.8301 102.544 17.6147 103.633 18.7044C104.766 19.8375 105.551 21.2757 105.856 22.8878L109.561 40.9734C109.604 41.1044 109.604 41.2349 109.648 41.3219C109.692 41.4095 109.736 41.54 109.822 41.627L119.976 57.0107C120.891 58.4054 121.371 60.0176 121.371 61.5868C121.371 63.1554 120.892 64.7246 119.976 66.1628L109.822 81.5465C109.735 81.6341 109.691 81.7646 109.648 81.8516C109.605 81.9391 109.561 82.0696 109.561 82.2001L105.856 100.286C105.508 101.942 104.723 103.38 103.633 104.513C102.5 105.646 101.062 106.43 99.406 106.736L81.3203 110.44C81.1893 110.484 81.0587 110.484 80.9717 110.528C80.8842 110.571 80.7537 110.615 80.6667 110.702L65.2832 120.856C63.8886 121.771 62.2761 122.251 60.7069 122.251C59.1382 122.251 57.5692 121.772 56.131 120.856L40.7471 110.702C40.6161 110.614 40.5291 110.571 40.4421 110.528C40.3545 110.484 40.224 110.44 40.0935 110.44L22.0083 106.736C20.3521 106.387 18.9136 105.603 17.7805 104.513C16.6474 103.38 15.8634 101.942 15.5578 100.286L11.8535 82.2001C11.81 82.0691 11.8101 81.9386 11.766 81.8516C11.7225 81.7641 11.6784 81.6776 11.592 81.5465L1.43758 66.1628C0.522485 64.7681 0.0429688 63.1559 0.0429688 61.5868C0.0429688 60.0181 0.521954 58.4489 1.43758 57.0107L11.592 41.627C11.6795 41.4959 11.7231 41.4089 11.766 41.3219C11.8095 41.2344 11.8535 41.1039 11.8535 40.9734L15.5578 22.8878C15.9063 21.2316 16.6909 19.7935 17.7805 18.7044C18.9136 17.5712 20.3518 16.7872 21.9639 16.4816L40.0496 12.7772C40.1806 12.7337 40.3111 12.7337 40.3981 12.6896C40.4857 12.6461 40.5721 12.6021 40.7032 12.5156L56.0871 2.36146C57.4817 1.44636 59.0938 0.966797 60.663 0.966797C62.2316 0.966797 63.8007 1.44583 65.2389 2.36146H65.3268H65.3272Z" fill="#FF7955"/>
<path d="M65.3272 2.36146L80.711 12.5156C80.8421 12.6032 80.9291 12.6467 81.0161 12.6896C81.1036 12.7331 81.2341 12.7772 81.3646 12.7772L99.4499 16.4816C101.106 16.8301 102.544 17.6147 103.633 18.7044C104.766 19.8375 105.551 21.2757 105.856 22.8878L109.561 40.9734C109.604 41.1044 109.604 41.2349 109.648 41.3219C109.692 41.4095 109.736 41.54 109.822 41.627L119.976 57.0107C120.891 58.4054 121.371 60.0176 121.371 61.5868C121.371 63.1554 120.892 64.7246 119.976 66.1628L109.822 81.5465C109.735 81.6341 109.691 81.7646 109.648 81.8516C109.605 81.9391 109.561 82.0696 109.561 82.2001L105.856 100.286C105.508 101.942 104.723 103.38 103.633 104.513C102.5 105.646 101.062 106.43 99.406 106.736L81.3203 110.44C81.1893 110.484 81.0587 110.484 80.9717 110.528C80.8842 110.571 80.7537 110.615 80.6667 110.702L65.2832 120.856C63.8886 121.771 62.2761 122.251 60.7069 122.251C59.1382 122.251 57.5692 121.772 56.131 120.856L40.7471 110.702C40.6161 110.614 40.5291 110.571 40.4421 110.528C40.3545 110.484 40.224 110.44 40.0935 110.44L22.0083 106.736C20.3521 106.387 18.9136 105.603 17.7805 104.513C16.6474 103.38 15.8634 101.942 15.5578 100.286L11.8535 82.2001C11.81 82.0691 11.8101 81.9386 11.766 81.8516C11.7225 81.7641 11.6784 81.6776 11.592 81.5465L1.43758 66.1628C0.522485 64.7681 0.0429688 63.1559 0.0429688 61.5868C0.0429688 60.0181 0.521954 58.4489 1.43758 57.0107L11.592 41.627C11.6795 41.4959 11.7231 41.4089 11.766 41.3219C11.8095 41.2344 11.8535 41.1039 11.8535 40.9734L15.5578 22.8878C15.9063 21.2316 16.6909 19.7935 17.7805 18.7044C18.9136 17.5712 20.3518 16.7872 21.9639 16.4816L40.0496 12.7772C40.1806 12.7337 40.3111 12.7337 40.3981 12.6896C40.4857 12.6461 40.5721 12.6021 40.7032 12.5156L56.0871 2.36146C57.4817 1.44636 59.0938 0.966797 60.663 0.966797C62.2316 0.966797 63.8007 1.44583 65.2389 2.36146H65.3268H65.3272ZM49.6818 37.3995H71.8638V42.5421H49.6818V37.3995ZM49.6818 80.7179H71.8638V85.8605H49.6818V80.7179ZM51.512 65.8132V67.6869C51.512 68.5585 51.8605 69.3431 52.4271 69.9097C52.9936 70.4762 53.7776 70.8248 54.6498 70.8248H55.0422C55.9138 70.8248 56.6988 70.4762 57.2653 69.9097C57.8319 69.3431 58.1804 68.559 58.1804 67.6869V64.7236L46.3264 62.9369L46.3699 55.5715C46.3699 53.3052 47.285 51.2135 48.8102 49.7318C50.2919 48.2502 52.3835 47.2916 54.6498 47.2916H55.0422C57.3085 47.2916 59.4006 48.2067 60.8822 49.7318C62.3639 51.2135 63.3225 53.3052 63.3225 55.5715V57.4452H58.1796V55.5715C58.1796 54.6999 57.8311 53.9153 57.2645 53.3487C56.6979 52.7822 55.914 52.4336 55.0418 52.4336H54.6493C53.7777 52.4336 52.9932 52.7822 52.4267 53.3487C51.8601 53.9153 51.5116 54.6994 51.5116 55.5715V58.5348L63.3652 60.3215V67.6869C63.3652 69.9532 62.4501 72.0449 60.9249 73.5266C59.4432 75.0082 57.3516 75.9668 55.0853 75.9668H54.6929C52.4266 75.9668 50.335 75.0517 48.8533 73.5266C47.3716 72.0449 46.413 69.9532 46.413 67.6869V65.8132H51.5555H51.512ZM75.3941 47.2481H75.787C78.0533 47.2481 80.1014 48.1632 81.6266 49.6883C83.1082 51.2135 84.0668 53.2617 84.0668 55.528V67.6869C84.0668 69.9532 83.1517 72.0449 81.6266 73.5266C80.1449 75.0082 78.0533 75.9668 75.787 75.9668H75.3941C73.1278 75.9668 71.0362 75.0517 69.5545 73.5266C68.0729 72.0449 67.1143 69.9532 67.1143 67.6869V55.528C67.1143 53.2617 68.0294 51.17 69.5545 49.6883C71.0797 48.2067 73.1278 47.2481 75.3941 47.2481ZM75.7862 52.3907H75.3937C74.5221 52.3907 73.7376 52.7392 73.171 53.3058C72.6044 53.8723 72.2559 54.6564 72.2559 55.5285V67.6874C72.2559 68.559 72.6044 69.3436 73.171 69.9102C73.7376 70.4768 74.5216 70.8253 75.3937 70.8253H75.7862C76.6578 70.8253 77.4427 70.4768 78.0093 69.9102C78.5758 69.3436 78.9244 68.5596 78.9244 67.6874V55.5285C78.9244 54.6569 78.5758 53.8723 78.0093 53.3058C77.4427 52.7392 76.6583 52.3907 75.7862 52.3907ZM37.48 49.8194V47.2481H42.6225V75.9239H37.48V49.8194ZM60.7952 22.4512C71.6029 22.4512 81.4085 26.8527 88.4683 33.9125C95.5721 41.0164 99.9294 50.778 99.9294 61.5857C99.9294 72.3934 95.5281 82.1991 88.4683 89.2589C81.3644 96.3627 71.6029 100.72 60.7952 100.72C49.9875 100.72 40.1819 96.3187 33.1221 89.2589C26.0183 82.155 21.6606 72.3934 21.6606 61.5857C21.6606 50.778 26.0623 40.9723 33.1221 33.9125C40.2259 26.8087 49.9875 22.4512 60.7952 22.4512ZM83.9363 38.4456C78.0091 32.5184 69.8162 28.858 60.7952 28.858C51.7301 28.858 43.5813 32.5189 37.6541 38.4456C31.7269 44.3728 28.0663 52.5657 28.0663 61.5868C28.0663 70.6518 31.7274 78.8007 37.6541 84.7279C43.5813 90.6551 51.7742 94.3155 60.7952 94.3155C69.8602 94.3155 78.0091 90.6546 83.9363 84.7279C89.8635 78.8007 93.5237 70.6078 93.5237 61.5868C93.5237 52.5217 89.8629 44.3728 83.9363 38.4456ZM77.2251 17.8322L61.8412 7.67806C61.5362 7.46003 61.1441 7.37303 60.7956 7.37303C60.4471 7.37303 60.0985 7.46056 59.7499 7.67806L44.3661 17.8322C43.9305 18.1373 43.451 18.3553 42.9715 18.5728C42.4924 18.7908 42.0129 18.9213 41.4898 19.0083L23.4046 22.7128C23.012 22.8003 22.664 22.9743 22.4459 23.1918C22.1844 23.4533 22.0103 23.7584 21.9668 24.1504L18.2625 42.236C18.175 42.759 18.0009 43.2816 17.8269 43.7176C17.6089 44.1967 17.3913 44.6762 17.0863 45.1123L6.93192 60.4961C6.71388 60.8011 6.62688 61.1931 6.62688 61.5417C6.62688 61.8902 6.71441 62.2387 6.93192 62.5873L17.0863 77.971C17.3913 78.4066 17.6094 78.8861 17.8269 79.3657C18.0449 79.8447 18.1755 80.3243 18.2625 80.8474L21.9668 98.9329C22.0544 99.3255 22.2283 99.63 22.4899 99.8915C22.7514 100.153 23.0564 100.327 23.4485 100.371L41.5341 104.075C42.0572 104.206 42.5797 104.337 43.0158 104.511C43.4948 104.729 43.9743 104.946 44.4104 105.251L59.7939 115.405C60.0989 115.623 60.491 115.71 60.8395 115.71C61.1881 115.71 61.5366 115.623 61.8852 115.405L77.2691 105.251C77.7481 104.946 78.1841 104.685 78.6637 104.511C79.1427 104.292 79.6223 104.162 80.1453 104.075L98.231 100.371C98.6236 100.283 98.9281 100.109 99.1896 99.8475C99.4511 99.586 99.6251 99.2809 99.7126 98.8889L103.417 80.8033C103.548 80.2803 103.679 79.7577 103.853 79.3217C104.071 78.8426 104.288 78.4066 104.593 77.927L114.747 62.5432C114.965 62.2382 115.052 61.8462 115.052 61.4976C115.052 61.1491 114.965 60.8006 114.747 60.452L104.593 45.0683C104.288 44.5892 104.027 44.1532 103.853 43.6736C103.635 43.1946 103.504 42.715 103.417 42.1919L99.7126 24.1064C99.6251 23.7138 99.4511 23.4093 99.1896 23.1478C98.9281 22.8862 98.623 22.7122 98.231 22.6247L80.1453 18.9203C79.6223 18.8327 79.0997 18.6587 78.6637 18.4847C78.1846 18.2667 77.7051 18.0492 77.2691 17.7442L77.2251 17.8317V17.8322Z" fill="#A3523B"/>
</svg>
