<svg viewBox="0 0 122 123" fill="none" xmlns="http://www.w3.org/2000/svg">
<path d="M65.3272 2.35658L80.711 12.5108C80.8421 12.5983 80.9291 12.6418 81.0161 12.6847C81.1036 12.7282 81.2341 12.7723 81.3646 12.7723L99.4499 16.4767C101.106 16.8253 102.544 17.6099 103.633 18.6995C104.766 19.8326 105.551 21.2708 105.856 22.883L109.561 40.9685C109.604 41.0995 109.604 41.2301 109.648 41.3171C109.692 41.4046 109.736 41.5351 109.822 41.6221L119.976 57.0059C120.891 58.4005 121.371 60.0127 121.371 61.5819C121.371 63.1506 120.892 64.7197 119.976 66.1579L109.822 81.5417C109.735 81.6292 109.691 81.7597 109.648 81.8467C109.605 81.9343 109.561 82.0647 109.561 82.1952L105.856 100.281C105.508 101.937 104.723 103.375 103.633 104.508C102.5 105.641 101.062 106.426 99.406 106.731L81.3203 110.436C81.1893 110.479 81.0587 110.479 80.9717 110.523C80.8842 110.567 80.7537 110.611 80.6667 110.697L65.2832 120.851C63.8886 121.766 62.2761 122.246 60.7069 122.246C59.1382 122.246 57.5692 121.767 56.131 120.851L40.7471 110.697C40.6161 110.61 40.5291 110.566 40.4421 110.523C40.3545 110.48 40.224 110.436 40.0935 110.436L22.0083 106.731C20.3521 106.383 18.9136 105.598 17.7805 104.508C16.6474 103.375 15.8634 101.937 15.5578 100.281L11.8535 82.1952C11.81 82.0642 11.8101 81.9337 11.766 81.8467C11.7225 81.7592 11.6784 81.6727 11.592 81.5417L1.43758 66.1579C0.522485 64.7632 0.0429688 63.1511 0.0429688 61.5819C0.0429688 60.0132 0.521954 58.444 1.43758 57.0059L11.592 41.6221C11.6795 41.4911 11.7231 41.4041 11.766 41.3171C11.8095 41.2295 11.8535 41.099 11.8535 40.9685L15.5578 22.883C15.9063 21.2268 16.6909 19.7886 17.7805 18.6995C18.9136 17.5664 20.3518 16.7823 21.9639 16.4767L40.0496 12.7723C40.1806 12.7288 40.3111 12.7288 40.3981 12.6847C40.4857 12.6412 40.5721 12.5972 40.7032 12.5108L56.0871 2.35658C57.4817 1.44148 59.0938 0.961914 60.663 0.961914C62.2316 0.961914 63.8007 1.44095 65.2389 2.35658H65.3268H65.3272ZM49.6818 37.3946H71.8638V42.5372H49.6818V37.3946ZM49.6818 80.7131H71.8638V85.8556H49.6818V80.7131ZM51.512 65.8083V67.682C51.512 68.5536 51.8605 69.3382 52.4271 69.9048C52.9936 70.4713 53.7776 70.8199 54.6498 70.8199H55.0422C55.9138 70.8199 56.6988 70.4713 57.2653 69.9048C57.8319 69.3382 58.1804 68.5542 58.1804 67.682V64.7187L46.3264 62.932L46.3699 55.5666C46.3699 53.3003 47.285 51.2086 48.8102 49.7269C50.2919 48.2453 52.3835 47.2867 54.6498 47.2867H55.0422C57.3085 47.2867 59.4006 48.2018 60.8822 49.7269C62.3639 51.2086 63.3225 53.3003 63.3225 55.5666V57.4403H58.1796V55.5666C58.1796 54.695 57.8311 53.9104 57.2645 53.3439C56.6979 52.7773 55.914 52.4288 55.0418 52.4288H54.6493C53.7777 52.4288 52.9932 52.7773 52.4267 53.3439C51.8601 53.9104 51.5116 54.6945 51.5116 55.5666V58.53L63.3652 60.3166V67.682C63.3652 69.9483 62.4501 72.04 60.9249 73.5217C59.4432 75.0033 57.3516 75.9619 55.0853 75.9619H54.6929C52.4266 75.9619 50.335 75.0468 48.8533 73.5217C47.3716 72.04 46.413 69.9483 46.413 67.682V65.8083H51.5555H51.512ZM75.3941 47.2432H75.787C78.0533 47.2432 80.1014 48.1583 81.6266 49.6835C83.1082 51.2086 84.0668 53.2569 84.0668 55.5231V67.682C84.0668 69.9483 83.1517 72.04 81.6266 73.5217C80.1449 75.0033 78.0533 75.9619 75.787 75.9619H75.3941C73.1278 75.9619 71.0362 75.0468 69.5545 73.5217C68.0729 72.04 67.1143 69.9483 67.1143 67.682V55.5231C67.1143 53.2569 68.0294 51.1651 69.5545 49.6835C71.0797 48.2018 73.1278 47.2432 75.3941 47.2432ZM75.7862 52.3858H75.3937C74.5221 52.3858 73.7376 52.7343 73.171 53.3009C72.6044 53.8674 72.2559 54.6515 72.2559 55.5237V67.6826C72.2559 68.5542 72.6044 69.3387 73.171 69.9053C73.7376 70.4719 74.5216 70.8204 75.3937 70.8204H75.7862C76.6578 70.8204 77.4427 70.4719 78.0093 69.9053C78.5758 69.3387 78.9244 68.5547 78.9244 67.6826V55.5237C78.9244 54.6521 78.5758 53.8674 78.0093 53.3009C77.4427 52.7343 76.6583 52.3858 75.7862 52.3858ZM37.48 49.8145V47.2432H42.6225V75.919H37.48V49.8145ZM60.7952 22.4464C71.6029 22.4464 81.4085 26.8478 88.4683 33.9076C95.5721 41.0115 99.9294 50.7731 99.9294 61.5808C99.9294 72.3885 95.5281 82.1942 88.4683 89.254C81.3644 96.3578 71.6029 100.715 60.7952 100.715C49.9875 100.715 40.1819 96.3138 33.1221 89.254C26.0183 82.1502 21.6606 72.3885 21.6606 61.5808C21.6606 50.7731 26.0623 40.9674 33.1221 33.9076C40.2259 26.8038 49.9875 22.4464 60.7952 22.4464ZM83.9363 38.4407C78.0091 32.5135 69.8162 28.8531 60.7952 28.8531C51.7301 28.8531 43.5813 32.5141 37.6541 38.4407C31.7269 44.3679 28.0663 52.5609 28.0663 61.5819C28.0663 70.647 31.7274 78.7958 37.6541 84.723C43.5813 90.6502 51.7742 94.3107 60.7952 94.3107C69.8602 94.3107 78.0091 90.6497 83.9363 84.723C89.8635 78.7958 93.5237 70.6029 93.5237 61.5819C93.5237 52.5168 89.8629 44.3679 83.9363 38.4407ZM77.2251 17.8274L61.8412 7.67319C61.5362 7.45516 61.1441 7.36816 60.7956 7.36816C60.4471 7.36816 60.0985 7.45569 59.7499 7.67319L44.3661 17.8274C43.9305 18.1324 43.451 18.3504 42.9715 18.5679C42.4924 18.786 42.0129 18.9165 41.4898 19.0035L23.4046 22.7079C23.012 22.7954 22.664 22.9694 22.4459 23.1869C22.1844 23.4485 22.0103 23.7535 21.9668 24.1455L18.2625 42.2311C18.175 42.7542 18.0009 43.2767 17.8269 43.7128C17.6089 44.1918 17.3913 44.6714 17.0863 45.1074L6.93192 60.4912C6.71388 60.7962 6.62688 61.1882 6.62688 61.5368C6.62688 61.8853 6.71441 62.2338 6.93192 62.5824L17.0863 77.9661C17.3913 78.4017 17.6094 78.8813 17.8269 79.3608C18.0449 79.8399 18.1755 80.3194 18.2625 80.8425L21.9668 98.9281C22.0544 99.3206 22.2283 99.6251 22.4899 99.8866C22.7514 100.148 23.0564 100.322 23.4485 100.366L41.5341 104.07C42.0572 104.201 42.5797 104.332 43.0158 104.506C43.4948 104.724 43.9743 104.941 44.4104 105.246L59.7939 115.4C60.0989 115.618 60.491 115.705 60.8395 115.705C61.1881 115.705 61.5366 115.618 61.8852 115.4L77.2691 105.246C77.7481 104.941 78.1841 104.68 78.6637 104.506C79.1427 104.288 79.6223 104.157 80.1453 104.07L98.231 100.366C98.6236 100.278 98.9281 100.104 99.1896 99.8426C99.4511 99.5811 99.6251 99.2761 99.7126 98.884L103.417 80.7985C103.548 80.2754 103.679 79.7528 103.853 79.3168C104.071 78.8377 104.288 78.4017 104.593 77.9221L114.747 62.5383C114.965 62.2333 115.052 61.8413 115.052 61.4927C115.052 61.1442 114.965 60.7957 114.747 60.4471L104.593 45.0634C104.288 44.5844 104.027 44.1483 103.853 43.6687C103.635 43.1897 103.504 42.7101 103.417 42.1871L99.7126 24.1015C99.6251 23.7089 99.4511 23.4044 99.1896 23.1429C98.9281 22.8814 98.623 22.7074 98.231 22.6198L80.1453 18.9154C79.6223 18.8279 79.0997 18.6539 78.6637 18.4799C78.1846 18.2618 77.7051 18.0443 77.2691 17.7393L77.2251 17.8268V17.8274Z" fill="#373435"/>
</svg>
