<svg width="194" height="69" viewBox="0 0 194 69" fill="none" xmlns="http://www.w3.org/2000/svg">
<path d="M73.421 65.1952C73.0898 65.1952 72.7926 65.139 72.5274 65.0267C72.2622 64.9143 72.044 64.7536 71.8722 64.5452C71.7004 64.3369 71.5887 64.0893 71.5364 63.8045L72.1335 63.7104C72.2093 64.0044 72.3667 64.2343 72.6058 64.3996C72.8449 64.5655 73.1264 64.6478 73.4504 64.6478C73.6601 64.6478 73.8495 64.6151 74.018 64.5492C74.1866 64.4832 74.3211 64.3885 74.4217 64.265C74.5223 64.1416 74.5726 63.9959 74.5726 63.8273C74.5726 63.7254 74.5544 63.6366 74.5171 63.5608C74.4805 63.4851 74.4315 63.4217 74.3714 63.3694C74.3107 63.3178 74.2414 63.2734 74.1637 63.2368C74.086 63.1996 74.005 63.1682 73.9207 63.1428L72.7305 62.7894C72.6005 62.7521 72.4751 62.7045 72.3536 62.645C72.2328 62.5856 72.1243 62.5111 72.0296 62.4209C71.9343 62.3314 71.8585 62.2224 71.8023 62.095C71.7461 61.9676 71.718 61.8167 71.718 61.6443C71.718 61.3699 71.7899 61.1341 71.9336 60.9375C72.0773 60.7408 72.2726 60.5906 72.5195 60.4881C72.7665 60.3855 73.0441 60.3339 73.3531 60.3339C73.6666 60.3358 73.9468 60.392 74.1944 60.5011C74.4426 60.6102 74.6478 60.7663 74.8111 60.9695C74.9744 61.1726 75.0841 61.4156 75.1403 61.6991L74.5276 61.8063C74.4949 61.6181 74.423 61.4548 74.3113 61.3163C74.1996 61.1779 74.0612 61.072 73.8946 60.9969C73.728 60.9225 73.5458 60.8839 73.3465 60.882C73.1564 60.8793 72.984 60.9107 72.8305 60.974C72.677 61.0374 72.5548 61.1256 72.464 61.2366C72.3732 61.3477 72.3282 61.4751 72.3282 61.6181C72.3282 61.7625 72.3693 61.8788 72.4516 61.965C72.5333 62.0512 72.6345 62.1205 72.7547 62.1708C72.8749 62.2217 72.9918 62.2629 73.1068 62.2955L73.9952 62.5516C74.0971 62.5797 74.2147 62.6189 74.3473 62.6685C74.4805 62.7182 74.6099 62.7881 74.7346 62.8775C74.8601 62.967 74.9639 63.0859 75.0462 63.2342C75.1285 63.3825 75.1697 63.5687 75.1697 63.7934C75.1697 64.0187 75.1246 64.2186 75.0351 64.3937C74.945 64.5688 74.8202 64.7164 74.6602 64.8353C74.5001 64.9542 74.3146 65.0443 74.1023 65.1044C73.89 65.1652 73.6634 65.1952 73.421 65.1952ZM185.851 47.1681H192.029V48.9116H185.851V47.1681ZM188.94 53.1745C187.985 53.1745 187.143 52.9687 186.416 52.5572C185.688 52.1457 185.118 51.5787 184.707 50.8569C184.295 50.1351 184.089 49.3081 184.089 48.3759C184.089 47.3575 184.291 46.4711 184.694 45.7173C185.096 44.9634 185.652 44.3782 186.359 43.9608C187.067 43.544 187.881 43.335 188.802 43.335C189.78 43.335 190.611 43.5655 191.296 44.0254C191.98 44.4853 192.487 45.1326 192.815 45.9675C193.143 46.8016 193.257 47.7828 193.159 48.9103H190.838V48.0473C190.838 47.0982 190.687 46.4149 190.385 45.9975C190.083 45.5807 189.59 45.3717 188.905 45.3717C188.105 45.3717 187.517 45.6147 187.14 46.1014C186.763 46.5874 186.575 47.3053 186.575 48.2544C186.575 49.1232 186.763 49.7947 187.14 50.2696C187.517 50.7439 188.071 50.981 188.801 50.981C189.261 50.981 189.656 50.8804 189.984 50.6792C190.311 50.478 190.562 50.1873 190.735 49.8078L193.082 50.4813C192.731 51.3331 192.177 51.9948 191.421 52.4664C190.664 52.938 189.837 53.1739 188.939 53.1739L188.94 53.1745ZM179.343 53.1745C178.377 53.1745 177.548 52.9589 176.858 52.5272C176.167 52.096 175.637 51.5088 175.27 50.7667C174.901 50.0247 174.717 49.1879 174.717 48.2557C174.717 47.3118 174.908 46.4691 175.291 45.7271C175.673 44.985 176.213 44.401 176.909 43.9751C177.605 43.5492 178.428 43.3363 179.378 43.3363C180.476 43.3363 181.398 43.6145 182.143 44.1691C182.889 44.7244 183.364 45.4828 183.572 46.443L181.225 47.0649C181.087 46.5815 180.847 46.2046 180.505 45.9341C180.162 45.6637 179.776 45.5291 179.344 45.5291C178.849 45.5291 178.444 45.6487 178.127 45.8871C177.811 46.1262 177.577 46.4508 177.428 46.8624C177.278 47.2739 177.204 47.7384 177.204 48.2564C177.204 49.0677 177.383 49.7248 177.743 50.2278C178.103 50.7314 178.636 50.9829 179.344 50.9829C179.874 50.9829 180.276 50.8621 180.552 50.6204C180.829 50.3787 181.036 50.0331 181.173 49.585L183.573 50.0854C183.308 51.075 182.807 51.8374 182.071 52.3724C181.335 52.9073 180.425 53.1752 179.344 53.1752L179.343 53.1745ZM171.041 52.9158V48.5144C171.041 48.3014 171.029 48.0297 171.006 47.6985C170.982 47.368 170.911 47.0355 170.79 46.7017C170.67 46.3679 170.472 46.089 170.199 45.8642C169.926 45.6395 169.539 45.5278 169.038 45.5278C168.837 45.5278 168.621 45.5592 168.391 45.6226C168.161 45.6859 167.945 45.8081 167.744 45.9897C167.543 46.1713 167.377 46.4371 167.247 46.7879C167.118 47.1387 167.053 47.6044 167.053 48.1858L165.707 47.547C165.707 46.8101 165.857 46.1203 166.156 45.4756C166.455 44.8315 166.905 44.3102 167.507 43.9137C168.108 43.5166 168.866 43.3186 169.78 43.3186C170.511 43.3186 171.107 43.4421 171.567 43.6897C172.027 43.9372 172.385 44.2501 172.642 44.6303C172.898 45.0098 173.08 45.4057 173.19 45.8172C173.299 46.2287 173.365 46.6044 173.388 46.9434C173.411 47.2824 173.423 47.5306 173.423 47.6855V52.9152H171.041L171.041 52.9158ZM164.672 52.9158V43.5949H166.76V46.6847H167.054V52.9158H164.672H164.672ZM156.128 47.1681H162.307V48.9116H156.128V47.1681ZM159.218 53.1745C158.263 53.1745 157.421 52.9687 156.694 52.5572C155.965 52.1457 155.396 51.5787 154.985 50.8569C154.573 50.1351 154.368 49.3081 154.368 48.3759C154.368 47.3575 154.569 46.4711 154.972 45.7173C155.375 44.9634 155.93 44.3782 156.638 43.9608C157.345 43.544 158.159 43.335 159.079 43.335C160.057 43.335 160.889 43.5655 161.573 44.0254C162.258 44.4853 162.764 45.1326 163.092 45.9675C163.42 46.8016 163.535 47.7828 163.437 48.9103H161.115V48.0473C161.115 47.0982 160.965 46.4149 160.663 45.9975C160.36 45.5807 159.867 45.3717 159.183 45.3717C158.382 45.3717 157.794 45.6147 157.418 46.1014C157.041 46.5874 156.852 47.3053 156.852 48.2544C156.852 49.1232 157.041 49.7947 157.418 50.2696C157.794 50.7439 158.348 50.981 159.079 50.981C159.539 50.981 159.933 50.8804 160.261 50.6792C160.589 50.478 160.839 50.1873 161.012 49.8078L163.359 50.4813C163.008 51.3331 162.454 51.9948 161.697 52.4664C160.941 52.938 160.114 53.1739 159.217 53.1739L159.218 53.1745ZM149.776 52.9158V43.6296C149.776 43.3937 149.782 43.1259 149.794 42.8267C149.805 42.5282 149.852 42.2258 149.936 41.9214C150.02 41.6163 150.173 41.34 150.398 41.0924C150.685 40.7704 150.998 40.5503 151.335 40.432C151.671 40.3144 151.997 40.2504 152.314 40.2426C152.631 40.2341 152.901 40.2295 153.125 40.2295H154.282V42.1284H153.212C152.844 42.1284 152.57 42.2219 152.392 42.4093C152.214 42.5962 152.124 42.8189 152.124 43.0776V52.9165H149.777L149.776 52.9158ZM148.309 43.5949H154.281V45.407H148.309V43.5949ZM140.18 47.1681H146.358V48.9116H140.18V47.1681ZM143.269 53.1745C142.314 53.1745 141.473 52.9687 140.745 52.5572C140.018 52.1457 139.448 51.5787 139.036 50.8569C138.625 50.1351 138.42 49.3081 138.42 48.3759C138.42 47.3575 138.621 46.4711 139.023 45.7173C139.426 44.9634 139.982 44.3782 140.689 43.9608C141.396 43.544 142.21 43.335 143.131 43.335C144.109 43.335 144.94 43.5655 145.625 44.0254C146.31 44.4853 146.816 45.1326 147.144 45.9675C147.472 46.8016 147.587 47.7828 147.489 48.9103H145.168V48.0473C145.168 47.0982 145.017 46.4149 144.715 45.9975C144.412 45.5807 143.919 45.3717 143.235 45.3717C142.434 45.3717 141.847 45.6147 141.47 46.1014C141.093 46.5874 140.905 47.3053 140.905 48.2544C140.905 49.1232 141.093 49.7947 141.47 50.2696C141.847 50.7439 142.4 50.981 143.131 50.981C143.591 50.981 143.985 50.8804 144.314 50.6792C144.642 50.478 144.892 50.1873 145.064 49.8078L147.411 50.4813C147.061 51.3331 146.507 51.9948 145.75 52.4664C144.994 52.938 144.167 53.1739 143.269 53.1739V53.1745ZM129.496 50.706H131.136C131.291 50.706 131.501 50.7014 131.765 50.6929C132.03 50.6844 132.269 50.6602 132.482 50.6197C133.023 50.5107 133.464 50.2572 133.807 49.8601C134.149 49.4629 134.402 48.9854 134.566 48.4275C134.73 47.8697 134.812 47.2942 134.812 46.7017C134.812 46.0805 134.727 45.4906 134.557 44.9327C134.387 44.3749 134.13 43.9026 133.785 43.5172C133.439 43.1318 133.006 42.8875 132.482 42.7836C132.269 42.7379 132.031 42.7118 131.765 42.7059C131.501 42.7 131.29 42.6974 131.136 42.6974H129.496V50.7066V50.706ZM127.114 52.9152V40.4875H131.136C131.233 40.4875 131.435 40.4908 131.74 40.496C132.044 40.5019 132.338 40.5222 132.62 40.5561C133.62 40.677 134.47 41.0251 135.166 41.6006C135.862 42.1761 136.391 42.9064 136.754 43.7929C137.117 44.6786 137.297 45.6487 137.297 46.701C137.297 47.754 137.116 48.7234 136.754 49.6099C136.391 50.4956 135.862 51.2266 135.166 51.8014C134.47 52.3769 133.621 52.7251 132.62 52.8459C132.338 52.8806 132.044 52.9008 131.74 52.9067C131.434 52.9126 131.233 52.9152 131.136 52.9152H127.114ZM119.588 40.2282H121.936V52.9152H119.588V40.2282ZM112.875 51.3272C113.306 51.3272 113.67 51.2508 113.966 51.0986C114.263 50.9464 114.498 50.7726 114.674 50.5766C114.849 50.3807 114.968 50.2167 115.032 50.0848C115.152 49.832 115.223 49.5367 115.243 49.2003C115.263 48.8639 115.273 48.583 115.273 48.3589L115.964 48.5314C115.267 48.6463 114.704 48.743 114.272 48.8208C113.84 48.8985 113.492 48.969 113.227 49.0324C112.963 49.0958 112.73 49.165 112.528 49.2395C112.298 49.3316 112.113 49.4302 111.972 49.5367C111.831 49.6432 111.728 49.7601 111.661 49.8862C111.595 50.0129 111.562 50.154 111.562 50.3095C111.562 50.5224 111.615 50.7053 111.722 50.8575C111.828 51.0104 111.979 51.1266 112.175 51.207C112.37 51.2873 112.604 51.3278 112.874 51.3278L112.875 51.3272ZM112.374 53.1745C111.707 53.1745 111.142 53.0465 110.678 52.7904C110.215 52.5344 109.864 52.1921 109.625 51.7635C109.387 51.335 109.267 50.8614 109.267 50.3441C109.267 49.9123 109.333 49.5184 109.466 49.1611C109.599 48.8051 109.813 48.4896 110.109 48.2165C110.405 47.9435 110.803 47.7142 111.304 47.53C111.649 47.4039 112.061 47.2916 112.538 47.1936C113.016 47.0962 113.557 47.0028 114.161 46.9133C114.765 46.8245 115.429 46.7252 116.154 46.6155L115.309 47.0812C115.309 46.5286 115.176 46.1229 114.911 45.8642C114.647 45.6056 114.204 45.4756 113.583 45.4756C113.237 45.4756 112.878 45.5592 112.504 45.7258C112.13 45.893 111.868 46.1889 111.718 46.6148L109.595 45.942C109.831 45.1705 110.274 44.5434 110.924 44.06C111.575 43.5773 112.46 43.335 113.583 43.335C114.405 43.335 115.136 43.4617 115.775 43.7151C116.414 43.9679 116.897 44.4056 117.225 45.0268C117.409 45.3717 117.518 45.7173 117.553 46.0622C117.588 46.4077 117.605 46.7931 117.605 47.2184V52.9145H115.55V50.9986L115.844 51.3958C115.389 52.0229 114.898 52.4762 114.372 52.7551C113.846 53.0341 113.18 53.1739 112.374 53.1739V53.1745ZM103.641 51.0862C104.147 51.0862 104.561 50.9594 104.883 50.7066C105.205 50.4532 105.444 50.1128 105.6 49.6837C105.755 49.2551 105.833 48.779 105.833 48.2551C105.833 47.7371 105.752 47.2641 105.591 46.8356C105.43 46.4071 105.182 46.0648 104.845 45.8087C104.509 45.5527 104.078 45.4246 103.555 45.4246C103.066 45.4246 102.671 45.5422 102.369 45.778C102.066 46.0138 101.846 46.3444 101.708 46.7703C101.571 47.1962 101.502 47.6907 101.502 48.2551C101.502 48.8188 101.571 49.3133 101.708 49.7392C101.847 50.1651 102.072 50.4956 102.386 50.7321C102.699 50.9679 103.118 51.0855 103.641 51.0855L103.641 51.0862ZM104.02 53.1745C103.094 53.1745 102.32 52.9589 101.699 52.5272C101.077 52.096 100.61 51.5094 100.296 50.7667C99.9825 50.0247 99.8258 49.1872 99.8258 48.2557C99.8258 47.3236 99.9812 46.4861 100.292 45.7441C100.602 45.002 101.06 44.4154 101.664 43.9836C102.268 43.5525 103.013 43.3363 103.899 43.3363C104.791 43.3363 105.568 43.5492 106.229 43.9751C106.891 44.401 107.404 44.9837 107.77 45.7225C108.135 46.462 108.318 47.3059 108.318 48.2557C108.318 49.1879 108.137 50.0247 107.778 50.7667C107.418 51.5094 106.916 52.0954 106.272 52.5272C105.628 52.9589 104.876 53.1745 104.019 53.1745H104.02ZM99.4286 52.9158V40.4882H101.793V46.5292H101.5V52.9158H99.4286ZM93.2497 50.9823C94.0035 50.9823 94.566 50.7275 94.937 50.2187C95.308 49.7092 95.4935 49.0553 95.4935 48.2551C95.4935 47.4261 95.3048 46.765 94.9279 46.2699C94.5509 45.7754 93.9918 45.5272 93.2491 45.5272C92.7369 45.5272 92.3169 45.6428 91.989 45.8727C91.6611 46.1027 91.4181 46.4221 91.2593 46.831C91.1012 47.2393 91.0222 47.7142 91.0222 48.2551C91.0222 49.0892 91.2103 49.7523 91.5872 50.2441C91.9641 50.736 92.5181 50.9816 93.2484 50.9816L93.2497 50.9823ZM93.2497 53.1745C92.3123 53.1745 91.4893 52.9642 90.7818 52.5441C90.0737 52.1248 89.523 51.5447 89.1292 50.8053C88.7346 50.0658 88.538 49.216 88.538 48.2551C88.538 47.2824 88.7392 46.4267 89.1422 45.6872C89.5446 44.9478 90.0998 44.371 90.8073 43.9568C91.5147 43.5427 92.3293 43.3356 93.2497 43.3356C94.1871 43.3356 95.0115 43.5453 95.7222 43.9653C96.4322 44.386 96.9862 44.9648 97.3833 45.7042C97.7805 46.4437 97.9791 47.2935 97.9791 48.2544C97.9791 49.2212 97.7792 50.0743 97.3788 50.8131C96.979 51.5526 96.4237 52.1307 95.713 52.5474C95.003 52.9648 94.1812 53.1732 93.2497 53.1732V53.1745ZM84.5507 40.2289H86.8977V52.9158H84.5507V40.2289ZM77.1973 53.1745C76.4147 53.1745 75.6701 53.0354 74.9626 52.7558C74.2552 52.4769 73.6287 52.064 73.0859 51.5173C72.5418 50.9705 72.1132 50.2951 71.7997 49.489C71.4861 48.6842 71.3294 47.7547 71.3294 46.7017C71.3294 45.3266 71.5933 44.1574 72.1191 43.1932C72.645 42.2297 73.3531 41.4948 74.2421 40.9886C75.1311 40.4823 76.1162 40.2289 77.198 40.2289C78.7971 40.2289 80.0545 40.5999 80.969 41.342C81.8842 42.0847 82.4969 43.1344 82.8072 44.4918L80.4079 44.8367C80.1832 44.1116 79.8167 43.5322 79.3079 43.0978C78.7984 42.6634 78.1471 42.4433 77.3528 42.4374C76.5643 42.4263 75.9085 42.5955 75.3852 42.9469C74.8614 43.2977 74.4688 43.7955 74.2075 44.4402C73.9449 45.0843 73.8142 45.8381 73.8142 46.701C73.8142 47.5639 73.9449 48.3119 74.2075 48.9449C74.4688 49.5779 74.8614 50.0697 75.3852 50.4212C75.9091 50.7719 76.5643 50.9535 77.3528 50.9646C77.8878 50.9764 78.3725 50.8843 78.8069 50.6883C79.2413 50.4924 79.6077 50.1847 79.9069 49.7647C80.2061 49.3446 80.419 48.8064 80.5451 48.1512H78.5776V46.3391H83.0483C83.0594 46.4136 83.0685 46.5462 83.0737 46.7363C83.0796 46.9257 83.0829 47.0355 83.0829 47.0642C83.0829 48.2551 82.8412 49.3107 82.3578 50.2311C81.8744 51.1515 81.1924 51.8726 80.3119 52.3932C79.432 52.9139 78.3934 53.1745 77.1966 53.1745H77.1973ZM165.139 35.6556V23.228H173.251V25.4202H167.486V28.0782H172.216V30.2704H167.486V33.4634H173.251V35.6556H165.139ZM160.84 35.6556L158.39 30.5983L160.806 30.1326L163.498 35.6563H160.84L160.84 35.6556ZM156.18 29.252H158.977C159.098 29.252 159.23 29.2462 159.374 29.2351C159.518 29.2233 159.65 29.2004 159.771 29.1658C160.087 29.0796 160.332 28.9339 160.505 28.7301C160.677 28.5256 160.797 28.299 160.863 28.0488C160.929 27.7986 160.962 27.5608 160.962 27.3361C160.962 27.1121 160.929 26.8749 160.863 26.6247C160.796 26.3746 160.677 26.1472 160.505 25.9428C160.332 25.739 160.087 25.5933 159.771 25.5071C159.65 25.4725 159.518 25.4496 159.374 25.4378C159.23 25.4261 159.098 25.4209 158.977 25.4209H156.18V29.2527V29.252ZM153.833 35.6556V23.228H159.081C159.201 23.228 159.364 23.2326 159.568 23.2404C159.772 23.2495 159.955 23.2678 160.116 23.2966C160.859 23.4122 161.467 23.6565 161.941 24.0301C162.416 24.4044 162.765 24.8748 162.99 25.4411C163.214 26.0081 163.326 26.6398 163.326 27.3355C163.326 28.3774 163.067 29.2677 162.549 30.0065C162.031 30.746 161.221 31.2019 160.115 31.3744L159.08 31.4436H156.18V35.6556H153.833ZM143.719 30.8746H150.278V33.0669H143.719V30.8746ZM141.44 35.6556L145.237 23.228H148.741L152.539 35.6556H150.122L146.739 24.6951H147.188L143.857 35.6556H141.44ZM129.306 35.6556L125.664 23.228H128.133L130.463 31.7715L132.793 23.245L135.261 23.228L137.591 31.7715L139.921 23.228H142.389L138.748 35.6556H136.435L134.027 27.2669L131.619 35.6556H129.306ZM122.401 35.6556L119.95 30.5983L122.367 30.1326L125.059 35.6563H122.401L122.401 35.6556ZM117.741 29.252H120.538C120.658 29.252 120.79 29.2462 120.935 29.2351C121.078 29.2233 121.211 29.2004 121.332 29.1658C121.648 29.0796 121.893 28.9339 122.066 28.7301C122.238 28.5256 122.358 28.299 122.423 28.0488C122.489 27.7986 122.523 27.5608 122.523 27.3361C122.523 27.1121 122.489 26.8749 122.423 26.6247C122.357 26.3746 122.238 26.1472 122.066 25.9428C121.893 25.739 121.648 25.5933 121.332 25.5071C121.211 25.4725 121.078 25.4496 120.935 25.4378C120.791 25.4261 120.658 25.4209 120.538 25.4209H117.741V29.2527V29.252ZM115.394 35.6556V23.228H120.641C120.762 23.228 120.925 23.2326 121.129 23.2404C121.333 23.2495 121.516 23.2678 121.677 23.2966C122.42 23.4122 123.028 23.6565 123.502 24.0301C123.977 24.4044 124.326 24.8748 124.55 25.4411C124.774 26.0081 124.887 26.6398 124.887 27.3355C124.887 28.3774 124.628 29.2677 124.11 30.0065C123.592 30.746 122.781 31.2019 121.676 31.3744L120.641 31.4436H117.741V35.6556H115.394ZM105.47 35.6556V23.228H113.582V25.4202H107.817V28.0782H112.547V30.2704H107.817V33.4634H113.582V35.6556H105.47ZM97.1155 33.4464H99.9975C100.314 33.4464 100.596 33.3785 100.843 33.2432C101.091 33.108 101.285 32.9186 101.426 32.6736C101.567 32.4293 101.638 32.1399 101.638 31.8061C101.638 31.5122 101.578 31.2509 101.456 31.021C101.335 30.7904 101.153 30.6081 100.909 30.4729C100.664 30.3377 100.361 30.2698 99.9982 30.2698H97.1162V33.4458L97.1155 33.4464ZM97.1155 28.0782H99.6696C99.9342 28.0782 100.17 28.0325 100.377 27.9397C100.584 27.8476 100.748 27.7052 100.869 27.5125C100.99 27.3198 101.051 27.0709 101.051 26.7659C101.051 26.3863 100.932 26.0669 100.696 25.8082C100.461 25.5495 100.118 25.4195 99.6696 25.4195H97.1155V28.0782ZM94.7338 35.6556V23.228H99.7049C100.591 23.228 101.307 23.4043 101.853 23.7584C102.4 24.1124 102.8 24.5573 103.053 25.0916C103.306 25.6273 103.433 26.1681 103.433 26.7142C103.433 27.4106 103.276 27.9887 102.963 28.4492C102.648 28.9097 102.219 29.2174 101.672 29.3729V28.9411C102.449 29.1018 103.031 29.4617 103.42 30.0196C103.808 30.5781 104.002 31.2019 104.002 31.8924C104.002 32.6344 103.865 33.2877 103.592 33.8514C103.319 34.4151 102.903 34.8567 102.345 35.1762C101.787 35.4949 101.085 35.655 100.239 35.655H94.7332L94.7338 35.6556ZM87.1564 35.6556V30.5983L82.9104 23.2286H85.6546L88.3479 27.9064L91.0405 23.2286H93.7847L89.5387 30.5983V35.6556H87.1571H87.1564ZM77.3528 35.9143C76.1097 35.9143 75.0384 35.6439 74.1376 35.103C73.2374 34.5621 72.5437 33.8057 72.0577 32.8337C71.5717 31.861 71.3281 30.7309 71.3281 29.4415C71.3281 28.1527 71.5717 27.0226 72.0577 26.0499C72.5437 25.0779 73.2374 24.3215 74.1376 23.78C75.0384 23.2391 76.1097 22.9686 77.3528 22.9686C78.7801 22.9686 79.9781 23.322 80.9475 24.0301C81.9169 24.7376 82.5995 25.6959 82.9967 26.9037L80.632 27.5595C80.4014 26.8057 80.0134 26.2204 79.4666 25.803C78.9199 25.3862 78.215 25.1772 77.3521 25.1772C76.5637 25.1772 75.9065 25.3529 75.38 25.7037C74.8535 26.0545 74.4583 26.5496 74.1931 27.1878C73.9286 27.826 73.7966 28.5772 73.7966 29.4402C73.7966 30.3031 73.9292 31.0543 74.1931 31.6931C74.4583 32.332 74.8535 32.8265 75.38 33.1773C75.9065 33.5281 76.5637 33.7038 77.3521 33.7038C78.215 33.7038 78.9199 33.4941 79.4666 33.0741C80.0134 32.654 80.4014 32.0701 80.632 31.3221L82.9967 31.978C82.5995 33.1864 81.9169 34.1441 80.9475 34.8522C79.9781 35.5596 78.7801 35.9137 77.3528 35.9137V35.9143ZM33.3566 60.5606C40.7087 57.7752 46.8673 53.0001 51.1865 46.7298C51.225 46.6742 51.2635 46.6181 51.3021 46.5613H15.4118C15.453 46.6213 15.4935 46.6814 15.5346 46.7409C19.8544 53.006 26.0098 57.7771 33.3566 60.5599V60.5606ZM62.4017 25.9774C62.3997 26.1551 62.3991 26.3321 62.3952 26.5098C62.3952 26.5176 62.3952 26.5255 62.3952 26.534C62.3815 27.1682 61.8628 27.6745 61.2292 27.6745H9.0324C9.20159 30.7309 9.74377 33.7528 10.6498 36.6733C11.1979 38.4423 11.8929 40.1962 12.7186 41.8965H53.9953C54.7694 40.3027 55.4285 38.6611 55.9596 37.0045H33.3573C32.7132 37.0045 32.1913 36.4826 32.1913 35.8385V33.5058C32.1913 32.8618 32.7132 32.3392 33.3573 32.3392H60.4688C61.2037 32.3392 61.755 33.01 61.6133 33.7306C61.6133 33.7312 61.6133 33.7312 61.6133 33.7312C61.5747 33.9272 61.5296 34.1245 61.4878 34.3211C61.4375 34.5582 61.3879 34.796 61.3337 35.0324C61.2801 35.2656 61.222 35.4975 61.1645 35.7301C61.0998 35.9901 61.0365 36.2507 60.9666 36.5087C60.9424 36.5989 60.9182 36.689 60.8934 36.7779C60.7771 37.2005 60.6563 37.6212 60.5263 38.0392C60.5263 38.0399 60.5256 38.0405 60.525 38.0419C60.4832 38.1771 60.4394 38.3116 60.3963 38.4462C60.363 38.5507 60.3303 38.6546 60.2957 38.7598C60.2467 38.9087 60.1951 39.057 60.1448 39.2053C60.1154 39.2921 60.086 39.379 60.056 39.4659C60.0089 39.6005 59.9599 39.7344 59.9116 39.8683C59.7934 40.1923 59.6725 40.5163 59.5465 40.8396V40.8455C59.1885 41.764 58.7985 42.6713 58.3772 43.5603C57.9905 44.3788 57.5763 45.1862 57.1471 45.9596C56.4972 47.1302 55.7852 48.2799 55.03 49.376C49.9943 56.6869 42.7703 62.1734 34.1392 65.2435C33.8877 65.333 33.6244 65.3788 33.3573 65.3788C33.0901 65.3788 32.8269 65.333 32.5747 65.2435C23.9502 62.176 16.7294 56.6941 11.6936 49.3897C10.9353 48.2897 10.2193 47.1354 9.56739 45.9603C9.13887 45.1888 8.72538 44.3814 8.33671 43.561C7.71484 42.2467 7.15895 40.8932 6.6834 39.5384C6.50964 39.0439 6.34437 38.5448 6.19283 38.0543C5.03596 34.323 4.40625 30.4468 4.31937 26.5333C4.31283 26.2211 4.30827 25.9088 4.30827 25.5966L4.31022 17.3097C4.45981 14.6981 5.34101 12.1865 6.85781 10.0459C9.48574 6.33683 13.7559 4.12238 18.2808 4.12238H33.3592C34.0033 4.12238 34.5252 4.64432 34.5252 5.28905V7.62107C34.5252 8.26515 34.0033 8.78709 33.3592 8.78709H18.2808C13.3783 8.78709 9.28977 12.6176 8.97296 17.5083C8.95793 17.7435 8.95075 17.9368 8.95075 18.1171V23.0091H61.2422C61.8863 23.0091 62.4089 23.5311 62.4089 24.1751V25.6057C62.4089 25.7298 62.4056 25.8533 62.4043 25.9768L62.4017 25.9774ZM65.905 24.1758C65.905 21.604 63.812 19.5105 61.2403 19.5105H12.4475V18.1178C12.4475 18.0139 12.452 17.8918 12.4625 17.7324C12.6604 14.6798 15.2145 12.2864 18.2782 12.2864H33.3566C35.929 12.2864 38.022 10.1935 38.022 7.62172V5.28971C38.022 2.7173 35.929 0.625 33.3566 0.625H18.2782C12.6206 0.625 7.28306 3.39077 3.99994 8.02476C2.10297 10.7017 1.00162 13.8437 0.814802 17.1112L0.808925 17.2111V17.3104L0.807617 25.5972C0.807617 25.9036 0.81154 26.2354 0.819379 26.6117C0.913443 30.8511 1.59606 35.0494 2.84895 39.0916C3.01552 39.6292 3.19451 40.1694 3.38068 40.6992C3.89738 42.1703 4.50032 43.6374 5.17314 45.0595C5.59382 45.9485 6.04258 46.8238 6.50702 47.6606C7.21316 48.9338 7.9892 50.1847 8.81226 51.3781C14.2687 59.292 22.08 65.2272 31.4015 68.5423C32.0306 68.7657 32.6884 68.8794 33.356 68.8794C34.0236 68.8794 34.6807 68.7657 35.3104 68.5423C44.6392 65.2246 52.4544 59.2842 57.9108 51.3631C58.7286 50.1756 59.5014 48.9298 60.2062 47.66C60.5119 47.1093 60.8091 46.5423 61.0959 45.9675C61.1371 45.8852 61.1795 45.8035 61.22 45.7205C61.2226 45.7153 61.2252 45.7101 61.2279 45.7049C61.333 45.4906 61.4369 45.2757 61.5394 45.0595C61.546 45.0458 61.5519 45.0314 61.5584 45.0177C61.6982 44.7218 61.8334 44.4245 61.9667 44.1247C62.0111 44.0261 62.0548 43.9261 62.098 43.8268C62.2084 43.574 62.3168 43.3206 62.422 43.0658C62.452 42.9933 62.4834 42.9215 62.5128 42.849C62.6336 42.5537 62.7505 42.2565 62.8655 41.9586C62.9119 41.8384 62.957 41.7182 63.0027 41.5974C63.0896 41.3668 63.1738 41.1349 63.2568 40.903C63.281 40.8351 63.3077 40.7671 63.3313 40.6992C63.3404 40.6737 63.3489 40.6469 63.358 40.6214C63.3881 40.5346 63.4175 40.4477 63.4469 40.3602C63.5044 40.1929 63.5618 40.0264 63.6174 39.8578C63.6566 39.7389 63.6938 39.6194 63.7317 39.5005C63.7754 39.364 63.8205 39.2281 63.863 39.0916C63.8708 39.0661 63.878 39.0406 63.8858 39.0152C63.9401 38.8401 63.993 38.6624 64.0459 38.4821C64.0812 38.3639 64.1151 38.2457 64.1484 38.1281C64.1641 38.0732 64.1791 38.0183 64.1948 37.9628C64.4045 37.2175 64.5959 36.4663 64.7677 35.7118C64.7677 35.7105 64.7684 35.7085 64.7684 35.7066C65.4458 32.7259 65.824 29.6799 65.8919 26.6123C65.8958 26.4575 65.8978 26.3132 65.8997 26.1721C65.9004 26.1257 65.901 26.0793 65.9017 26.0336C65.9017 26.016 65.9024 25.9963 65.9024 25.9787C65.903 25.8539 65.9043 25.7298 65.9043 25.6103V24.1771L65.905 24.1758ZM190.019 63.0448H192.608V63.5086H190.019V63.0448ZM191.313 65.1952C190.97 65.1952 190.67 65.1188 190.413 64.9666C190.157 64.8137 189.958 64.6014 189.815 64.3277C189.673 64.0547 189.601 63.7346 189.601 63.3688C189.601 62.986 189.671 62.6548 189.812 62.3746C189.952 62.0943 190.148 61.8781 190.4 61.7253C190.652 61.5731 190.948 61.4973 191.287 61.4973C191.639 61.4973 191.94 61.5783 192.187 61.7403C192.435 61.9029 192.621 62.1342 192.745 62.4347C192.87 62.7352 192.924 63.0931 192.906 63.5086H192.322V63.3008C192.316 62.8704 192.228 62.549 192.059 62.336C191.89 62.1231 191.639 62.0166 191.306 62.0166C190.95 62.0166 190.678 62.1316 190.492 62.3608C190.306 62.5901 190.213 62.9187 190.213 63.3466C190.213 63.7601 190.306 64.0801 190.492 64.3068C190.678 64.5341 190.942 64.6471 191.287 64.6471C191.518 64.6471 191.719 64.5942 191.89 64.4884C192.061 64.3819 192.195 64.2304 192.292 64.0305L192.847 64.2219C192.711 64.5315 192.506 64.7713 192.233 64.9404C191.959 65.1103 191.652 65.1952 191.313 65.1952H191.313ZM188.245 60.3293H188.823V65.0979H188.245V60.3293ZM185.614 64.7118C185.822 64.7118 186.001 64.6746 186.154 64.6001C186.306 64.5256 186.429 64.427 186.522 64.3049C186.615 64.1827 186.676 64.0494 186.704 63.9044C186.734 63.7966 186.751 63.6765 186.756 63.5445C186.76 63.4126 186.762 63.31 186.762 63.2362L186.964 63.3237C186.775 63.3518 186.59 63.3779 186.407 63.4014C186.224 63.4249 186.052 63.4498 185.892 63.4759C185.731 63.5014 185.585 63.5334 185.455 63.57C185.36 63.6 185.271 63.6399 185.188 63.6882C185.105 63.7365 185.037 63.798 184.986 63.8731C184.935 63.9475 184.91 64.0396 184.91 64.1474C184.91 64.2421 184.934 64.3336 184.983 64.4198C185.031 64.5067 185.107 64.5766 185.21 64.6308C185.313 64.685 185.447 64.7118 185.614 64.7118ZM185.527 65.1952C185.265 65.1952 185.046 65.1469 184.87 65.0508C184.694 64.9548 184.56 64.8274 184.471 64.67C184.381 64.5119 184.336 64.3388 184.336 64.1507C184.336 63.9665 184.371 63.8078 184.44 63.6738C184.509 63.5399 184.608 63.4269 184.737 63.3368C184.865 63.246 185.019 63.1748 185.196 63.1225C185.363 63.0774 185.549 63.0376 185.754 63.0043C185.959 62.9703 186.168 62.9396 186.38 62.9115C186.592 62.8834 186.791 62.8566 186.976 62.8305L186.769 62.9507C186.774 62.6411 186.711 62.4118 186.581 62.2616C186.451 62.1107 186.227 62.0362 185.907 62.0362C185.694 62.0362 185.509 62.0845 185.35 62.1819C185.191 62.2792 185.079 62.4347 185.014 62.6489L184.466 62.483C184.551 62.176 184.714 61.9349 184.956 61.7599C185.199 61.5848 185.517 61.4973 185.913 61.4973C186.231 61.4973 186.504 61.5541 186.732 61.6671C186.961 61.7808 187.124 61.9519 187.224 62.1812C187.274 62.289 187.305 62.4066 187.318 62.5333C187.331 62.6594 187.338 62.792 187.338 62.9305V65.0972H186.826V64.2572L186.946 64.3349C186.814 64.6204 186.629 64.8353 186.391 64.979C186.153 65.1227 185.866 65.1946 185.528 65.1946L185.527 65.1952ZM182.368 65.1952C182.013 65.1952 181.712 65.1162 181.464 64.9568C181.217 64.798 181.027 64.5785 180.896 64.2996C180.766 64.0207 180.699 63.7032 180.697 63.3459C180.7 62.9827 180.768 62.662 180.902 62.3844C181.036 62.1061 181.226 61.8892 181.476 61.7325C181.725 61.5757 182.024 61.4973 182.374 61.4973C182.744 61.4973 183.063 61.5881 183.329 61.7697C183.596 61.9513 183.775 62.2002 183.866 62.5157L183.295 62.6875C183.219 62.4843 183.098 62.3262 182.933 62.2139C182.767 62.1015 182.579 62.0453 182.368 62.0453C182.128 62.0453 181.929 62.1009 181.774 62.2126C181.618 62.3236 181.502 62.4778 181.427 62.6731C181.351 62.8691 181.313 63.0931 181.311 63.3459C181.315 63.7352 181.405 64.0494 181.581 64.2885C181.757 64.5276 182.019 64.6471 182.368 64.6471C182.596 64.6471 182.786 64.5949 182.937 64.4904C183.087 64.3852 183.202 64.2337 183.283 64.0351L183.867 64.1873C183.745 64.5139 183.556 64.7641 183.298 64.9372C183.041 65.1096 182.731 65.1965 182.368 65.1965V65.1952ZM178.773 65.1919C178.356 65.1919 178.014 65.1005 177.747 64.9182C177.479 64.7353 177.315 64.4799 177.255 64.1513L177.846 64.0573C177.894 64.2474 178.003 64.3983 178.174 64.51C178.344 64.6217 178.557 64.6765 178.809 64.6765C179.047 64.6765 179.235 64.6269 179.372 64.5276C179.51 64.4283 179.578 64.2931 179.578 64.1226C179.578 64.0253 179.555 63.9456 179.51 63.8842C179.465 63.8228 179.371 63.7646 179.229 63.7111C179.088 63.6568 178.875 63.5909 178.589 63.5131C178.28 63.4308 178.037 63.3459 177.86 63.2584C177.682 63.1708 177.556 63.069 177.48 62.952C177.404 62.8351 177.367 62.692 177.367 62.5235C177.367 62.3184 177.423 62.1388 177.536 61.9852C177.648 61.8317 177.805 61.7122 178.008 61.6266C178.21 61.541 178.446 61.4986 178.713 61.4986C178.979 61.4986 179.218 61.541 179.427 61.6253C179.637 61.7096 179.806 61.8291 179.935 61.9839C180.064 62.1381 180.14 62.3184 180.164 62.5242L179.573 62.6313C179.545 62.4451 179.454 62.2975 179.301 62.1884C179.147 62.0793 178.951 62.0212 178.713 62.0146C178.487 62.0081 178.302 62.0493 178.161 62.1381C178.019 62.2269 177.948 62.3458 177.948 62.4948C177.948 62.581 177.975 62.6542 178.028 62.7136C178.081 62.773 178.18 62.8299 178.323 62.8841C178.467 62.9376 178.676 62.9997 178.951 63.069C179.26 63.1467 179.504 63.2316 179.683 63.3237C179.861 63.4158 179.988 63.5236 180.064 63.6484C180.139 63.7725 180.177 63.926 180.177 64.1076C180.177 64.4446 180.053 64.7105 179.804 64.9039C179.555 65.0972 179.212 65.1939 178.776 65.1939L178.773 65.1919ZM174.602 60.3293H175.179V65.0979H174.602V60.3293ZM171.971 64.7118C172.179 64.7118 172.359 64.6746 172.512 64.6001C172.664 64.5256 172.787 64.427 172.879 64.3049C172.972 64.1827 173.033 64.0494 173.062 63.9044C173.092 63.7966 173.109 63.6765 173.113 63.5445C173.118 63.4126 173.12 63.31 173.12 63.2362L173.321 63.3237C173.133 63.3518 172.947 63.3779 172.764 63.4014C172.582 63.4249 172.41 63.4498 172.249 63.4759C172.088 63.5014 171.943 63.5334 171.813 63.57C171.717 63.6 171.628 63.6399 171.545 63.6882C171.462 63.7365 171.395 63.798 171.344 63.8731C171.293 63.9475 171.267 64.0396 171.267 64.1474C171.267 64.2421 171.291 64.3336 171.34 64.4198C171.389 64.5067 171.465 64.5766 171.568 64.6308C171.67 64.685 171.805 64.7118 171.971 64.7118ZM171.884 65.1952C171.622 65.1952 171.403 65.1469 171.227 65.0508C171.051 64.9548 170.918 64.8274 170.828 64.67C170.739 64.5119 170.694 64.3388 170.694 64.1507C170.694 63.9665 170.728 63.8078 170.798 63.6738C170.867 63.5399 170.965 63.4269 171.095 63.3368C171.223 63.246 171.376 63.1748 171.553 63.1225C171.72 63.0774 171.906 63.0376 172.111 63.0043C172.316 62.9703 172.525 62.9396 172.737 62.9115C172.949 62.8834 173.148 62.8566 173.333 62.8305L173.126 62.9507C173.131 62.6411 173.068 62.4118 172.938 62.2616C172.809 62.1107 172.584 62.0362 172.264 62.0362C172.052 62.0362 171.866 62.0845 171.708 62.1819C171.549 62.2792 171.436 62.4347 171.372 62.6489L170.824 62.483C170.908 62.176 171.071 61.9349 171.314 61.7599C171.556 61.5848 171.875 61.4973 172.271 61.4973C172.588 61.4973 172.861 61.5541 173.09 61.6671C173.318 61.7808 173.482 61.9519 173.581 62.1812C173.631 62.289 173.662 62.4066 173.676 62.5333C173.689 62.6594 173.695 62.792 173.695 62.9305V65.0972H173.183V64.2572L173.303 64.3349C173.171 64.6204 172.987 64.8353 172.748 64.979C172.51 65.1227 172.223 65.1946 171.886 65.1946L171.884 65.1952ZM168.533 64.6667C168.763 64.6667 168.953 64.6086 169.106 64.4917C169.259 64.3748 169.372 64.2167 169.448 64.0168C169.524 63.8169 169.562 63.5922 169.562 63.344C169.562 63.097 169.524 62.8749 169.448 62.6757C169.372 62.4765 169.258 62.319 169.104 62.2021C168.95 62.0852 168.755 62.0271 168.517 62.0271C168.29 62.0271 168.102 62.0826 167.952 62.1943C167.803 62.3053 167.691 62.4608 167.618 62.6594C167.544 62.8586 167.508 63.0866 167.508 63.344C167.508 63.5987 167.544 63.8267 167.616 64.0266C167.689 64.2265 167.801 64.3832 167.952 64.4969C168.104 64.6106 168.297 64.6674 168.533 64.6674L168.533 64.6667ZM168.605 65.1952C168.276 65.1952 167.999 65.1136 167.774 64.9502C167.55 64.7869 167.379 64.5661 167.264 64.2872C167.148 64.0083 167.09 63.6941 167.09 63.3433C167.09 62.9906 167.148 62.6757 167.264 62.3974C167.379 62.1198 167.55 61.9003 167.776 61.739C168.002 61.5776 168.28 61.4973 168.609 61.4973C168.933 61.4973 169.213 61.5776 169.447 61.739C169.682 61.8997 169.861 62.1198 169.987 62.3987C170.112 62.6777 170.175 62.9925 170.175 63.3427C170.175 63.6928 170.112 64.0083 169.987 64.2885C169.861 64.5681 169.682 64.7895 169.447 64.9515C169.213 65.1135 168.932 65.1946 168.605 65.1946L168.605 65.1952ZM166.993 65.0979V60.4267H167.573V62.5189H167.508V65.0979H166.993ZM164.593 64.6471C164.954 64.6471 165.223 64.5263 165.402 64.2839C165.58 64.0423 165.67 63.7281 165.67 63.3433C165.67 62.9494 165.58 62.6352 165.401 62.3994C165.221 62.1636 164.952 62.046 164.593 62.046C164.349 62.046 164.148 62.1009 163.99 62.2113C163.832 62.3217 163.714 62.4739 163.636 62.6685C163.559 62.8632 163.52 63.0879 163.52 63.3433C163.52 63.7365 163.611 64.0527 163.792 64.2905C163.974 64.5283 164.241 64.6471 164.594 64.6471H164.593ZM164.593 65.1952C164.244 65.1952 163.944 65.1162 163.692 64.9581C163.44 64.8007 163.246 64.5825 163.11 64.3042C162.974 64.0266 162.906 63.7058 162.906 63.3427C162.906 62.9775 162.975 62.6555 163.114 62.3778C163.252 62.1002 163.448 61.884 163.701 61.7292C163.954 61.5744 164.252 61.4973 164.593 61.4973C164.943 61.4973 165.245 61.5763 165.498 61.7344C165.751 61.8918 165.945 62.1094 166.08 62.3863C166.215 62.6633 166.282 62.9821 166.282 63.3433C166.282 63.7091 166.215 64.0305 166.078 64.3081C165.941 64.5864 165.747 64.8033 165.494 64.96C165.241 65.1168 164.941 65.1952 164.593 65.1952ZM161.55 60.3293H162.127V65.0979H161.55V60.3293ZM159.039 64.6661C159.275 64.6661 159.468 64.6092 159.62 64.4956C159.771 64.3819 159.883 64.2252 159.955 64.0253C160.028 63.8254 160.064 63.5974 160.064 63.3427C160.064 63.0853 160.027 62.8573 159.953 62.6581C159.88 62.4595 159.769 62.304 159.621 62.193C159.473 62.0813 159.284 62.0257 159.055 62.0257C158.817 62.0257 158.621 62.0839 158.467 62.2008C158.312 62.3177 158.197 62.4752 158.122 62.6744C158.048 62.8736 158.011 63.0964 158.011 63.3427C158.011 63.5915 158.049 63.8156 158.124 64.0155C158.199 64.2154 158.313 64.3741 158.466 64.4904C158.618 64.6073 158.81 64.6654 159.038 64.6654L159.039 64.6661ZM159.01 66.7512C158.826 66.7512 158.647 66.7231 158.471 66.6669C158.296 66.6107 158.135 66.5258 157.99 66.4122C157.843 66.2985 157.722 66.1554 157.625 65.983L158.153 65.7041C158.239 65.8752 158.363 65.9993 158.521 66.0764C158.68 66.1541 158.844 66.1933 159.012 66.1933C159.235 66.1933 159.42 66.1528 159.565 66.0718C159.712 65.9908 159.82 65.8706 159.891 65.7099C159.962 65.5499 159.997 65.3507 159.995 65.1136V64.1566H160.063V61.594H160.576V65.1194C160.576 65.2168 160.573 65.3095 160.568 65.397C160.562 65.4846 160.551 65.5715 160.533 65.6583C160.488 65.9066 160.398 66.1117 160.264 66.273C160.13 66.4337 159.957 66.5539 159.745 66.633C159.533 66.712 159.287 66.7512 159.009 66.7512H159.01ZM158.968 65.1946C158.642 65.1946 158.361 65.1135 158.128 64.9515C157.894 64.7889 157.714 64.5681 157.587 64.2885C157.461 64.0083 157.397 63.6934 157.397 63.3427C157.397 62.9925 157.461 62.6777 157.587 62.3987C157.713 62.1198 157.894 61.8997 158.128 61.739C158.361 61.5776 158.64 61.4973 158.964 61.4973C159.296 61.4973 159.573 61.5776 159.798 61.739C160.023 61.8997 160.193 62.1198 160.309 62.3974C160.424 62.6757 160.482 62.9906 160.482 63.3433C160.482 63.6934 160.424 64.0083 160.309 64.2872C160.193 64.5661 160.023 64.7876 159.798 64.9502C159.573 65.1136 159.296 65.1952 158.968 65.1952V65.1946ZM153.729 64.7112C153.936 64.7112 154.117 64.6739 154.27 64.5995C154.422 64.525 154.545 64.4264 154.637 64.3042C154.73 64.182 154.791 64.0488 154.82 63.9038C154.85 63.796 154.867 63.6758 154.871 63.5438C154.876 63.4119 154.878 63.3093 154.878 63.2355L155.079 63.3231C154.891 63.3511 154.705 63.3773 154.522 63.4008C154.34 63.4243 154.168 63.4491 154.007 63.4753C153.846 63.5007 153.7 63.5327 153.571 63.5693C153.476 63.5994 153.386 63.6392 153.303 63.6876C153.22 63.7359 153.153 63.7973 153.102 63.8724C153.051 63.9469 153.025 64.039 153.025 64.1468C153.025 64.2415 153.049 64.3329 153.098 64.4192C153.147 64.506 153.222 64.5759 153.325 64.6302C153.428 64.6844 153.562 64.7112 153.729 64.7112ZM153.642 65.1946C153.38 65.1946 153.161 65.1462 152.985 65.0502C152.809 64.9542 152.676 64.8268 152.586 64.6694C152.497 64.5113 152.452 64.3382 152.452 64.15C152.452 63.9658 152.486 63.8071 152.556 63.6732C152.625 63.5393 152.723 63.4263 152.853 63.3361C152.981 63.2453 153.134 63.1741 153.311 63.1219C153.478 63.0768 153.664 63.0369 153.869 63.0036C154.074 62.9697 154.283 62.9389 154.495 62.9109C154.707 62.8828 154.906 62.856 155.091 62.8299L154.884 62.9501C154.889 62.6404 154.826 62.4111 154.696 62.2609C154.567 62.11 154.342 62.0355 154.022 62.0355C153.81 62.0355 153.624 62.0839 153.465 62.1812C153.307 62.2785 153.194 62.434 153.13 62.6483L152.582 62.4824C152.666 62.1753 152.829 61.9343 153.072 61.7592C153.314 61.5842 153.633 61.4966 154.029 61.4966C154.346 61.4966 154.619 61.5535 154.848 61.6665C155.076 61.7801 155.24 61.9513 155.339 62.1806C155.389 62.2883 155.42 62.4059 155.433 62.5327C155.446 62.6587 155.453 62.7913 155.453 62.9298V65.0966H154.94V64.2565L155.061 64.3342C154.929 64.6197 154.744 64.8346 154.505 64.9783C154.268 65.122 153.98 65.1939 153.643 65.1939L153.642 65.1946ZM149.921 65.0972V63.342C149.921 63.178 149.906 63.0186 149.876 62.8651C149.846 62.7116 149.795 62.5732 149.724 62.4497C149.652 62.3269 149.555 62.2296 149.433 62.1584C149.311 62.0872 149.157 62.0512 148.971 62.0512C148.826 62.0512 148.695 62.076 148.577 62.1257C148.459 62.176 148.358 62.2498 148.274 62.3478C148.189 62.4464 148.123 62.5705 148.077 62.7208C148.031 62.871 148.007 63.048 148.007 63.2512L147.628 63.1343C147.628 62.7966 147.689 62.5059 147.811 62.2616C147.933 62.0173 148.105 61.8298 148.327 61.6991C148.548 61.5678 148.809 61.5025 149.11 61.5025C149.336 61.5025 149.53 61.5384 149.69 61.6096C149.851 61.6808 149.984 61.7762 150.09 61.8951C150.195 62.014 150.278 62.1459 150.339 62.2909C150.4 62.436 150.442 62.5843 150.468 62.7358C150.493 62.8873 150.505 63.0291 150.505 63.1611V65.0972H149.921ZM147.423 65.0972V61.594H147.942V62.5313H148.008V65.0972H147.424H147.423ZM145.023 64.6465C145.384 64.6465 145.654 64.5256 145.833 64.2833C146.011 64.0416 146.1 63.7274 146.1 63.3427C146.1 62.9488 146.01 62.6346 145.831 62.3987C145.652 62.1629 145.382 62.0453 145.024 62.0453C144.78 62.0453 144.578 62.1002 144.42 62.2106C144.262 62.321 144.145 62.4732 144.067 62.6679C143.989 62.8625 143.95 63.0872 143.95 63.3427C143.95 63.7359 144.041 64.0521 144.222 64.2898C144.404 64.5276 144.671 64.6465 145.024 64.6465H145.023ZM145.023 65.1946C144.675 65.1946 144.375 65.1155 144.123 64.9574C143.871 64.8 143.677 64.5818 143.541 64.3035C143.404 64.0259 143.337 63.7052 143.337 63.342C143.337 62.9768 143.406 62.6548 143.544 62.3772C143.683 62.0996 143.879 61.8833 144.132 61.7285C144.384 61.5737 144.682 61.4966 145.023 61.4966C145.373 61.4966 145.675 61.5757 145.928 61.7338C146.181 61.8912 146.375 62.1087 146.51 62.3857C146.645 62.6626 146.712 62.9814 146.712 63.3427C146.712 63.7085 146.644 64.0298 146.508 64.3075C146.371 64.5857 146.177 64.8026 145.924 64.9594C145.671 65.1162 145.37 65.1946 145.023 65.1946H145.023ZM139.23 66.6539L139.908 64.8118L139.918 65.3566L138.387 61.594H138.994L140.194 64.6204H139.986L141.111 61.594H141.698L139.791 66.6539H139.23ZM138.128 65.0972C137.92 65.1403 137.716 65.158 137.513 65.1508C137.311 65.1429 137.13 65.1018 136.971 65.0273C136.813 64.9529 136.693 64.8359 136.613 64.6759C136.544 64.5374 136.506 64.3976 136.501 64.2559C136.496 64.1141 136.493 63.9541 136.493 63.7744V60.6213H137.071V63.7483C137.071 63.8907 137.072 64.0135 137.075 64.1148C137.079 64.2167 137.101 64.3036 137.142 64.3774C137.22 64.5159 137.344 64.5969 137.513 64.621C137.683 64.6445 137.888 64.638 138.128 64.6014V65.0979V65.0972ZM135.783 61.594H138.128V62.0708H135.783V61.594ZM134.622 61.594H135.199V65.0972H134.622V61.594ZM134.622 60.3777H135.199V60.9747H134.622V60.3777ZM132.134 65.0972V61.594H132.65V62.4405L132.565 62.3301C132.606 62.2224 132.66 62.1231 132.726 62.0316C132.792 61.9408 132.865 61.8664 132.948 61.8082C133.038 61.7344 133.141 61.6789 133.256 61.641C133.371 61.6031 133.487 61.5809 133.606 61.5731C133.725 61.5652 133.837 61.5724 133.941 61.594V62.1355C133.819 62.1054 133.686 62.0976 133.541 62.1126C133.397 62.1283 133.262 62.1799 133.14 62.2681C133.027 62.3511 132.94 62.4484 132.878 62.562C132.817 62.6757 132.774 62.7985 132.75 62.9318C132.726 63.065 132.714 63.2009 132.714 63.3394V65.0972H132.134ZM130.71 65.0972V64.1598H130.645V61.594H131.226V65.0972H130.71ZM129.542 65.188C129.315 65.188 129.121 65.1521 128.961 65.0809C128.801 65.0097 128.668 64.9143 128.562 64.7954C128.456 64.6765 128.372 64.5446 128.312 64.3996C128.252 64.2546 128.209 64.1063 128.184 63.9554C128.159 63.8038 128.147 63.6621 128.147 63.5301V61.594H128.73V63.3485C128.73 63.5131 128.745 63.6719 128.775 63.8254C128.806 63.9789 128.857 64.1174 128.93 64.2402C129.002 64.363 129.099 64.4603 129.222 64.5322C129.344 64.6034 129.497 64.6393 129.681 64.6393C129.826 64.6393 129.957 64.6145 130.075 64.5648C130.193 64.5152 130.294 64.4414 130.378 64.3427C130.463 64.2441 130.529 64.12 130.575 63.9678C130.621 63.8169 130.645 63.6399 130.645 63.4393L131.025 63.5563C131.025 63.8933 130.964 64.184 130.841 64.429C130.719 64.6726 130.547 64.8607 130.326 64.9914C130.104 65.122 129.843 65.188 129.542 65.188H129.542ZM126.048 65.1946C125.694 65.1946 125.392 65.1155 125.145 64.9561C124.897 64.7974 124.708 64.5779 124.577 64.299C124.446 64.02 124.379 63.7026 124.377 63.3453C124.379 62.9821 124.448 62.6613 124.582 62.3837C124.716 62.1054 124.906 61.8886 125.156 61.7318C125.405 61.575 125.704 61.4966 126.054 61.4966C126.424 61.4966 126.743 61.5874 127.009 61.769C127.276 61.9506 127.455 62.1995 127.546 62.515L126.975 62.6868C126.899 62.4837 126.779 62.3256 126.613 62.2132C126.447 62.1009 126.259 62.0447 126.048 62.0447C125.808 62.0447 125.609 62.1002 125.454 62.2119C125.298 62.323 125.182 62.4771 125.107 62.6724C125.031 62.8684 124.993 63.0925 124.991 63.3453C124.995 63.7346 125.085 64.0488 125.261 64.2879C125.437 64.5269 125.699 64.6465 126.048 64.6465C126.276 64.6465 126.466 64.5942 126.617 64.4897C126.767 64.3846 126.882 64.233 126.963 64.0344L127.547 64.1866C127.425 64.5132 127.236 64.7634 126.978 64.9365C126.721 65.109 126.411 65.1959 126.048 65.1959L126.048 65.1946ZM120.965 63.0441H123.554V63.5079H120.965V63.0441ZM122.26 65.1946C121.915 65.1946 121.616 65.1181 121.359 64.9659C121.103 64.8131 120.904 64.6008 120.761 64.3271C120.619 64.054 120.547 63.7339 120.547 63.3681C120.547 62.9853 120.617 62.6541 120.758 62.3739C120.898 62.0937 121.094 61.8775 121.346 61.7246C121.598 61.5724 121.894 61.4966 122.233 61.4966C122.585 61.4966 122.886 61.5776 123.134 61.7396C123.381 61.9023 123.567 62.1335 123.691 62.434C123.816 62.7345 123.87 63.0925 123.852 63.5079H123.268V63.3002C123.262 62.8697 123.174 62.5483 123.005 62.3354C122.836 62.1224 122.585 62.0159 122.252 62.0159C121.896 62.0159 121.624 62.1309 121.438 62.3602C121.252 62.5895 121.159 62.9181 121.159 63.3459C121.159 63.7594 121.252 64.0795 121.438 64.3062C121.624 64.5335 121.888 64.6465 122.233 64.6465C122.464 64.6465 122.665 64.5936 122.836 64.4878C123.007 64.3813 123.141 64.2297 123.238 64.0298L123.793 64.2212C123.657 64.5309 123.452 64.7706 123.178 64.9398C122.904 65.1096 122.598 65.1946 122.258 65.1946H122.26ZM118.624 65.1913C118.206 65.1913 117.864 65.0998 117.597 64.9176C117.33 64.7347 117.166 64.4793 117.106 64.1507L117.696 64.0566C117.744 64.2467 117.853 64.3976 118.024 64.5093C118.194 64.621 118.407 64.6759 118.66 64.6759C118.897 64.6759 119.085 64.6262 119.223 64.5269C119.36 64.4277 119.428 64.2924 119.428 64.1219C119.428 64.0246 119.406 63.9449 119.361 63.8835C119.315 63.8221 119.221 63.764 119.08 63.7104C118.938 63.6562 118.724 63.5902 118.439 63.5125C118.13 63.4302 117.887 63.3453 117.709 63.2577C117.531 63.1702 117.405 63.0683 117.33 62.9514C117.254 62.8344 117.216 62.6914 117.216 62.5228C117.216 62.3177 117.272 62.1381 117.384 61.9846C117.497 61.8311 117.654 61.7115 117.857 61.626C118.059 61.5404 118.294 61.4979 118.562 61.4979C118.828 61.4979 119.067 61.5404 119.276 61.6247C119.486 61.7089 119.655 61.8285 119.784 61.9833C119.912 62.1374 119.989 62.3177 120.012 62.5235L119.422 62.6306C119.394 62.4445 119.303 62.2968 119.15 62.1877C118.996 62.0787 118.801 62.0205 118.562 62.014C118.336 62.0074 118.151 62.0486 118.01 62.1374C117.868 62.2263 117.797 62.3452 117.797 62.4941C117.797 62.5803 117.823 62.6535 117.876 62.7129C117.929 62.7724 118.028 62.8292 118.172 62.8834C118.315 62.937 118.524 62.9991 118.799 63.0683C119.108 63.146 119.352 63.2309 119.53 63.3231C119.709 63.4152 119.836 63.5229 119.912 63.6477C119.988 63.7718 120.025 63.9253 120.025 64.1069C120.025 64.444 119.901 64.7098 119.652 64.9032C119.404 65.0966 119.061 65.1932 118.624 65.1932L118.624 65.1913ZM113.557 64.6661C113.792 64.6661 113.986 64.6092 114.137 64.4956C114.289 64.3819 114.401 64.2252 114.473 64.0253C114.546 63.8254 114.582 63.5974 114.582 63.3427C114.582 63.0853 114.545 62.8573 114.471 62.6581C114.398 62.4595 114.287 62.304 114.139 62.193C113.99 62.0813 113.802 62.0257 113.573 62.0257C113.335 62.0257 113.139 62.0839 112.984 62.2008C112.83 62.3177 112.715 62.4752 112.64 62.6744C112.566 62.8736 112.528 63.0964 112.528 63.3427C112.528 63.5915 112.566 63.8156 112.641 64.0155C112.717 64.2154 112.831 64.3741 112.984 64.4904C113.136 64.6073 113.327 64.6654 113.556 64.6654L113.557 64.6661ZM113.528 66.7512C113.344 66.7512 113.165 66.7231 112.99 66.6669C112.815 66.6107 112.654 66.5258 112.508 66.4122C112.362 66.2985 112.24 66.1554 112.143 65.983L112.671 65.7041C112.758 65.8752 112.88 65.9993 113.039 66.0764C113.198 66.1541 113.362 66.1933 113.53 66.1933C113.753 66.1933 113.937 66.1528 114.083 66.0718C114.229 65.9908 114.337 65.8706 114.409 65.7099C114.48 65.5499 114.515 65.3507 114.513 65.1136V64.1566H114.581V61.594H115.094V65.1194C115.094 65.2168 115.091 65.3095 115.086 65.397C115.08 65.4846 115.069 65.5715 115.052 65.6583C115.007 65.9066 114.917 66.1117 114.783 66.273C114.648 66.4337 114.475 66.5539 114.263 66.633C114.051 66.712 113.806 66.7512 113.527 66.7512H113.528ZM113.486 65.1946C113.159 65.1946 112.88 65.1135 112.646 64.9515C112.412 64.7889 112.232 64.5681 112.106 64.2885C111.979 64.0083 111.916 63.6934 111.916 63.3427C111.916 62.9925 111.979 62.6777 112.106 62.3987C112.232 62.1198 112.412 61.8997 112.646 61.739C112.88 61.5776 113.158 61.4973 113.483 61.4973C113.813 61.4973 114.092 61.5776 114.316 61.739C114.541 61.8997 114.711 62.1198 114.827 62.3974C114.943 62.6757 115.001 62.9906 115.001 63.3433C115.001 63.6934 114.943 64.0083 114.827 64.2872C114.711 64.5661 114.541 64.7876 114.316 64.9502C114.092 65.1136 113.815 65.1952 113.486 65.1952V65.1946ZM110.684 65.0972V63.342C110.684 63.178 110.669 63.0186 110.639 62.8651C110.609 62.7116 110.557 62.5732 110.486 62.4497C110.415 62.3269 110.318 62.2296 110.195 62.1584C110.073 62.0872 109.919 62.0512 109.733 62.0512C109.588 62.0512 109.456 62.076 109.339 62.1257C109.221 62.176 109.12 62.2498 109.036 62.3478C108.951 62.4464 108.885 62.5705 108.839 62.7208C108.793 62.871 108.769 63.048 108.769 63.2512L108.39 63.1343C108.39 62.7966 108.451 62.5059 108.573 62.2616C108.695 62.0173 108.867 61.8298 109.089 61.6991C109.31 61.5678 109.571 61.5025 109.872 61.5025C110.099 61.5025 110.292 61.5384 110.452 61.6096C110.612 61.6808 110.746 61.7762 110.852 61.8951C110.957 62.014 111.04 62.1459 111.101 62.2909C111.162 62.436 111.204 62.5843 111.229 62.7358C111.254 62.8873 111.266 63.0291 111.266 63.1611V65.0972H110.682H110.684ZM108.186 65.0972V61.594H108.706V62.5313H108.77V65.0972H108.186ZM106.64 61.594H107.217V65.0972H106.64V61.594ZM106.64 60.3777H107.217V60.9747H106.64V60.3777ZM105.147 65.0972V63.342C105.147 63.178 105.132 63.0186 105.102 62.8651C105.072 62.7116 105.021 62.5732 104.949 62.4497C104.878 62.3269 104.781 62.2296 104.658 62.1584C104.536 62.0872 104.382 62.0512 104.196 62.0512C104.051 62.0512 103.92 62.076 103.802 62.1257C103.684 62.176 103.583 62.2498 103.499 62.3478C103.414 62.4464 103.349 62.5705 103.302 62.7208C103.256 62.871 103.232 63.048 103.232 63.2512L102.853 63.1343C102.853 62.7966 102.914 62.5059 103.036 62.2616C103.159 62.0173 103.33 61.8298 103.552 61.6991C103.773 61.5678 104.034 61.5025 104.335 61.5025C104.562 61.5025 104.756 61.5384 104.916 61.6096C105.076 61.6808 105.209 61.7762 105.315 61.8951C105.421 62.014 105.504 62.1459 105.564 62.2909C105.625 62.436 105.668 62.5843 105.693 62.7358C105.718 62.8873 105.73 63.0291 105.73 63.1611V65.0972H105.146H105.147ZM102.649 65.0972V61.594H103.168V62.5313H103.234V65.0972H102.65H102.649ZM99.1431 63.0441H101.732V63.5079H99.1431V63.0441ZM100.437 65.1946C100.093 65.1946 99.7931 65.1181 99.537 64.9659C99.2809 64.8131 99.0817 64.6008 98.9387 64.3271C98.7956 64.054 98.7244 63.7339 98.7244 63.3681C98.7244 62.9853 98.7943 62.6541 98.9354 62.3739C99.0752 62.0937 99.2718 61.8775 99.5239 61.7246C99.7754 61.5724 100.071 61.4966 100.411 61.4966C100.763 61.4966 101.064 61.5776 101.311 61.7396C101.559 61.9023 101.745 62.1335 101.869 62.434C101.994 62.7345 102.047 63.0925 102.03 63.5079H101.446V63.3002C101.439 62.8697 101.352 62.5483 101.183 62.3354C101.014 62.1224 100.763 62.0159 100.43 62.0159C100.073 62.0159 99.8022 62.1309 99.6154 62.3602C99.4299 62.5895 99.3365 62.9181 99.3365 63.3459C99.3365 63.7594 99.4292 64.0795 99.6154 64.3062C99.8016 64.5335 100.067 64.6465 100.41 64.6465C100.642 64.6465 100.843 64.5936 101.014 64.4878C101.184 64.3813 101.318 64.2297 101.416 64.0298L101.97 64.2212C101.834 64.5309 101.629 64.7706 101.356 64.9398C101.082 65.1096 100.776 65.1946 100.437 65.1946H100.437ZM98.3024 65.0972C98.0947 65.1403 97.8902 65.158 97.6877 65.1508C97.4852 65.1429 97.3049 65.1018 97.1462 65.0273C96.9875 64.9529 96.8679 64.8359 96.7876 64.6759C96.7183 64.5374 96.6811 64.3976 96.6752 64.2559C96.67 64.1141 96.6667 63.9541 96.6667 63.7744V60.6213H97.2442V63.7483C97.2442 63.8907 97.2462 64.0135 97.2494 64.1148C97.2527 64.2167 97.2749 64.3036 97.316 64.3774C97.3938 64.5159 97.5179 64.5969 97.6877 64.621C97.8576 64.6445 98.062 64.638 98.3024 64.6014V65.0979V65.0972ZM95.9573 61.594H98.3024V62.0708H95.9573V61.594ZM94.9193 65.0972V63.342C94.9193 63.178 94.9043 63.0186 94.8743 62.8651C94.8442 62.7116 94.7933 62.5732 94.7214 62.4497C94.6502 62.3269 94.5536 62.2296 94.4314 62.1584C94.3092 62.0872 94.1551 62.0512 93.9696 62.0512C93.8245 62.0512 93.6933 62.076 93.5757 62.1257C93.4581 62.176 93.3568 62.2498 93.2726 62.3478C93.1883 62.4464 93.1223 62.5705 93.076 62.7208C93.0296 62.871 93.0061 63.048 93.0061 63.2512L92.6265 63.1343C92.6265 62.7966 92.6879 62.5059 92.8101 62.2616C92.9322 62.0173 93.1047 61.8298 93.3261 61.6991C93.5476 61.5678 93.8082 61.5025 94.1094 61.5025C94.336 61.5025 94.53 61.5384 94.6901 61.6096C94.8501 61.6808 94.9834 61.7762 95.0885 61.8951C95.195 62.014 95.278 62.1459 95.3387 62.2909C95.3988 62.436 95.4419 62.5843 95.4668 62.7358C95.4916 62.8873 95.504 63.0291 95.504 63.1611V65.0972H94.92H94.9193ZM92.4214 65.0972V60.426H92.9407V63.0049H93.0061V65.0972H92.4221H92.4214ZM89.979 64.6661C90.2148 64.6661 90.4082 64.6092 90.5597 64.4956C90.7113 64.3819 90.823 64.2252 90.8948 64.0253C90.9673 63.8254 91.0039 63.5974 91.0039 63.3427C91.0039 63.0853 90.9667 62.8573 90.8935 62.6581C90.8204 62.4595 90.7093 62.304 90.5617 62.193C90.4134 62.0813 90.2246 62.0257 89.9953 62.0257C89.7576 62.0257 89.5609 62.0839 89.4068 62.2008C89.252 62.3177 89.1376 62.4752 89.0632 62.6744C88.9887 62.8736 88.9515 63.0964 88.9515 63.3427C88.9515 63.5915 88.9894 63.8156 89.0651 64.0155C89.1409 64.2154 89.2546 64.3741 89.4074 64.4904C89.5596 64.6073 89.751 64.6654 89.9803 64.6654L89.979 64.6661ZM89.9496 66.7512C89.7661 66.7512 89.5864 66.7231 89.4114 66.6669C89.2363 66.6107 89.0756 66.5258 88.9299 66.4122C88.7836 66.2985 88.6621 66.1554 88.5654 65.983L89.0939 65.7041C89.1808 65.8752 89.3029 65.9993 89.4623 66.0764C89.621 66.1541 89.785 66.1933 89.9535 66.1933C90.1763 66.1933 90.3611 66.1528 90.5068 66.0718C90.6525 65.9908 90.7616 65.8706 90.8328 65.7099C90.904 65.5499 90.9386 65.3507 90.9366 65.1136V64.1566H91.0046V61.594H91.5167V65.1194C91.5167 65.2168 91.5141 65.3095 91.5089 65.397C91.5036 65.4846 91.4919 65.5715 91.4749 65.6583C91.4298 65.9066 91.3397 66.1117 91.2058 66.273C91.0719 66.4337 90.8987 66.5539 90.6871 66.633C90.4748 66.712 90.2298 66.7512 89.9509 66.7512H89.9496ZM89.9078 65.1946C89.5818 65.1946 89.301 65.1135 89.0678 64.9515C88.8346 64.7889 88.6543 64.5681 88.5282 64.2885C88.4015 64.0083 88.3381 63.6934 88.3381 63.3427C88.3381 62.9925 88.4015 62.6777 88.5282 62.3987C88.6543 62.1198 88.8346 61.8997 89.0678 61.739C89.3016 61.5776 89.5805 61.4973 89.9045 61.4973C90.2357 61.4973 90.5133 61.5776 90.738 61.739C90.9628 61.8997 91.1339 62.1198 91.2495 62.3974C91.3652 62.6757 91.4226 62.9906 91.4226 63.3433C91.4226 63.6934 91.3645 64.0083 91.2495 64.2872C91.1339 64.5661 90.9634 64.7876 90.738 64.9502C90.5133 65.1136 90.2364 65.1952 89.9078 65.1952V65.1946ZM87.1055 65.0972V63.342C87.1055 63.178 87.0904 63.0186 87.0597 62.8651C87.0297 62.7116 86.9787 62.5732 86.9075 62.4497C86.8357 62.3269 86.739 62.2296 86.6168 62.1584C86.4947 62.0872 86.3405 62.0512 86.155 62.0512C86.01 62.0512 85.8787 62.076 85.7605 62.1257C85.6429 62.176 85.5416 62.2498 85.4574 62.3478C85.3731 62.4464 85.3078 62.5705 85.2607 62.7208C85.2144 62.871 85.1915 63.048 85.1915 63.2512L84.812 63.1343C84.812 62.7966 84.8727 62.5059 84.9955 62.2616C85.1177 62.0173 85.2895 61.8298 85.5116 61.6991C85.733 61.5678 85.9937 61.5025 86.2948 61.5025C86.5215 61.5025 86.7155 61.5384 86.8749 61.6096C87.0349 61.6808 87.1682 61.7762 87.274 61.8951C87.3798 62.014 87.4628 62.1459 87.5235 62.2909C87.5843 62.436 87.6267 62.5843 87.6516 62.7358C87.6764 62.8873 87.6888 63.0291 87.6888 63.1611V65.0972H87.1048H87.1055ZM84.6075 65.0972V61.594H85.1268V62.5313H85.1922V65.0972H84.6082H84.6075ZM81.101 63.0441H83.6897V63.5079H81.101V63.0441ZM82.395 65.1946C82.0508 65.1946 81.7509 65.1181 81.4949 64.9659C81.2388 64.8131 81.0389 64.6008 80.8965 64.3271C80.7541 64.054 80.6823 63.7339 80.6823 63.3681C80.6823 62.9853 80.7528 62.6541 80.8926 62.3739C81.0331 62.0937 81.2297 61.8775 81.4812 61.7246C81.7333 61.5724 82.0286 61.4966 82.3683 61.4966C82.7203 61.4966 83.0208 61.5776 83.2684 61.7396C83.516 61.9023 83.7021 62.1335 83.8263 62.434C83.9504 62.7345 84.0046 63.0925 83.987 63.5079H83.403V63.3002C83.3964 62.8697 83.3089 62.5483 83.1404 62.3354C82.9718 62.1224 82.7203 62.0159 82.3879 62.0159C82.0312 62.0159 81.7601 62.1309 81.5739 62.3602C81.3877 62.5895 81.295 62.9181 81.295 63.3459C81.295 63.7594 81.3877 64.0795 81.5739 64.3062C81.7601 64.5335 82.0247 64.6465 82.3683 64.6465C82.5995 64.6465 82.8007 64.5936 82.9718 64.4878C83.143 64.3813 83.2762 64.2297 83.3742 64.0298L83.9288 64.2212C83.7923 64.5309 83.5872 64.7706 83.3135 64.9398C83.0404 65.1096 82.7334 65.1946 82.3944 65.1946H82.395ZM78.5188 65.0972V61.594H79.0342V62.4405L78.9499 62.3301C78.9911 62.2224 79.0446 62.1231 79.1106 62.0316C79.1766 61.9408 79.2504 61.8664 79.3327 61.8082C79.4235 61.7344 79.5261 61.6789 79.6404 61.641C79.7553 61.6031 79.8716 61.5809 79.9905 61.5731C80.1094 61.5652 80.2211 61.5724 80.3243 61.594V62.1355C80.2035 62.1054 80.0702 62.0976 79.9252 62.1126C79.7802 62.1283 79.6463 62.1799 79.5228 62.2681C79.4111 62.3511 79.3236 62.4484 79.2615 62.562C79.2001 62.6757 79.157 62.7985 79.1335 62.9318C79.1093 63.065 79.0975 63.2009 79.0975 63.3394V65.0972H78.5168H78.5188ZM77.8055 65.0972C77.5977 65.1403 77.3926 65.158 77.1908 65.1508C76.9883 65.1429 76.808 65.1018 76.6486 65.0273C76.4899 64.9529 76.3703 64.8359 76.29 64.6759C76.2207 64.5374 76.1835 64.3976 76.1776 64.2559C76.1724 64.1141 76.1698 63.9541 76.1698 63.7744V60.6213H76.7472V63.7483C76.7472 63.8907 76.7492 64.0135 76.7525 64.1148C76.7557 64.2167 76.7773 64.3036 76.8191 64.3774C76.8968 64.5159 77.0209 64.5969 77.1908 64.621C77.36 64.6445 77.5651 64.638 77.8055 64.6014V65.0979V65.0972ZM75.4604 61.594H77.8055V62.0708H75.4604V61.594Z" fill="#FF7955"/>
</svg>
