<svg viewBox="0 0 154 197" fill="none" xmlns="http://www.w3.org/2000/svg">
<path fill-rule="evenodd" clip-rule="evenodd" d="M77.8202 0.893555L153.781 21.2475V108.791C153.781 122.495 150.368 135.258 143.976 146.331V146.344C137.597 157.392 128.247 166.723 116.358 173.589L116.362 173.594L101.438 182.21V193.659L93.0892 187.031L76.9942 196.323L60.9001 187.031L52.5511 193.659V182.21L37.6279 173.594L37.631 173.589C25.7416 166.723 16.3922 157.392 10.013 146.344C3.62057 135.272 0.208008 122.504 0.208008 108.791V21.248L76.1692 0.894086H77.8195L77.8202 0.893555Z" fill="#FF7955"/>
<path d="M147.38 26.1493L76.9942 7.28918L6.60797 26.1493V108.791C6.60797 121.381 9.71561 133.06 15.5372 143.143C21.3711 153.247 29.9279 161.784 40.8142 168.069H40.8268L52.5503 174.837V135.563L38.3107 132.649C36.6699 132.313 35.2317 131.53 34.1113 130.414L34.0987 130.401C32.9825 129.281 32.2001 127.842 31.8638 126.201L28.164 108.131C28.137 107.998 28.1031 107.882 28.0596 107.778C28.0256 107.696 27.9688 107.595 27.8892 107.474L17.7266 92.0816C16.7955 90.6705 16.3292 89.0954 16.3292 87.5188C16.3292 85.9411 16.795 84.3671 17.7266 82.956L27.8892 67.5633L27.895 67.567C27.9629 67.4635 28.0171 67.3627 28.0596 67.2598C28.1025 67.1553 28.1375 67.0386 28.164 66.907L31.8632 48.8369C32.199 47.196 32.9824 45.7573 34.0981 44.6369L34.1109 44.6242C35.2313 43.508 36.6695 42.725 38.3103 42.3892L56.3815 38.6896C56.513 38.6625 56.6292 38.6286 56.7337 38.5851C56.816 38.5511 56.9162 38.4944 57.0371 38.4148L72.4305 28.2521C73.8422 27.3206 75.4166 26.8553 76.9932 26.8553C78.5698 26.8553 80.1455 27.3211 81.556 28.2521L96.9493 38.4143C97.0707 38.4944 97.1711 38.5517 97.2528 38.5851C97.3573 38.628 97.4729 38.662 97.6055 38.6896L115.676 42.3887C117.332 42.7282 118.776 43.5112 119.888 44.6237C121 45.7361 121.784 47.1796 122.123 48.8363L125.823 66.9065C125.85 67.0391 125.884 67.1553 125.927 67.2593C125.969 67.3617 126.023 67.463 126.091 67.5664L126.097 67.5627L136.26 82.9555C137.191 84.3666 137.657 85.9411 137.657 87.5183C137.657 89.0949 137.192 90.6699 136.26 92.081L126.098 107.474C126.018 107.595 125.961 107.695 125.927 107.777C125.884 107.882 125.85 107.998 125.823 108.13L122.124 126.201C121.786 127.848 121.002 129.286 119.889 130.401L119.876 130.413C118.762 131.527 117.323 132.311 115.676 132.648L101.437 135.563V174.837L113.16 168.068H113.173C124.059 161.784 132.617 153.247 138.45 143.143L138.456 143.146C144.273 133.064 147.38 121.385 147.38 108.79V26.1487L147.38 26.1493ZM76.9942 66.9718L83.4754 80.7667L98.5992 82.6685L87.4812 93.0959L90.3463 108.066L76.9938 100.715L63.6413 108.066L66.5064 93.0959L55.3884 82.6685L70.5123 80.7667L76.9938 66.9718H76.9942ZM76.9942 48.3721C87.8035 48.3721 97.5908 52.7545 104.675 59.8382C111.759 66.9224 116.141 76.7095 116.141 87.5193C116.141 98.3287 111.759 108.116 104.675 115.2C97.5908 122.284 87.8035 126.666 76.9942 126.666C66.1849 126.666 56.398 122.284 49.3133 115.2C42.2291 108.116 37.8472 98.3287 37.8472 87.5193C37.8472 76.71 42.2296 66.9229 49.3133 59.8382C56.3975 52.754 66.1849 48.3721 76.9942 48.3721ZM100.15 64.3633C94.2248 58.4382 86.037 54.7725 76.9942 54.7725C67.9514 54.7725 59.7638 58.4382 53.8382 64.3633C47.9131 70.2889 44.2475 78.476 44.2475 87.5193C44.2475 96.5621 47.9131 104.75 53.8382 110.675C59.7638 116.6 67.9509 120.266 76.9942 120.266C86.0375 120.266 94.2248 116.6 100.15 110.675C106.075 104.75 109.741 96.5621 109.741 87.5193C109.741 78.476 106.075 70.2889 100.15 64.3633ZM58.9506 137.886V180.423L76.9942 166.099L95.037 180.422V137.886L81.5565 146.785C80.1464 147.716 78.571 148.183 76.9938 148.183C75.4161 148.183 73.8415 147.716 72.4309 146.785L58.9506 137.886ZM93.4252 43.7393L78.032 33.5772C77.7079 33.3634 77.3486 33.2557 76.9942 33.2557C76.6388 33.2557 76.2798 33.3629 75.9562 33.5772L60.5628 43.7399C60.1177 44.0338 59.6589 44.2789 59.1597 44.4857C58.6833 44.6826 58.1909 44.8306 57.6578 44.9398L39.5866 48.6395C39.1972 48.7191 38.8672 48.8936 38.6243 49.1371L38.6116 49.1498C38.3676 49.3933 38.1934 49.7233 38.1139 50.1127L34.4149 68.1829C34.3062 68.7165 34.1576 69.2088 33.9603 69.6858C33.764 70.1611 33.5183 70.6157 33.2149 71.0767V71.0894L23.0522 86.4822C22.8379 86.8069 22.7308 87.1655 22.7308 87.5204C22.7308 87.8748 22.8384 88.2344 23.0522 88.5586L33.2149 103.951C33.5093 104.396 33.7538 104.855 33.9607 105.355C34.1586 105.831 34.3062 106.324 34.4149 106.857L38.1145 124.928C38.1941 125.317 38.3685 125.647 38.612 125.89L38.6249 125.903C38.8678 126.147 39.1978 126.321 39.5872 126.401L57.6584 130.1C58.2085 130.212 58.7056 130.361 59.173 130.555L59.1709 130.559C59.6659 130.765 60.1215 131.009 60.5634 131.3L75.9567 141.463C76.2813 141.677 76.6394 141.785 76.9948 141.785C77.3492 141.785 77.7078 141.677 78.0324 141.463L93.4258 131.3C93.872 131.006 94.3303 130.761 94.8289 130.555C95.3053 130.357 95.7976 130.209 96.3313 130.1L114.401 126.401C114.788 126.322 115.12 126.145 115.371 125.897C115.619 125.646 115.796 125.314 115.875 124.928L119.574 106.857C119.682 106.324 119.831 105.832 120.028 105.355C120.235 104.856 120.48 104.397 120.774 103.952L130.936 88.5591C131.15 88.235 131.257 87.8753 131.257 87.5209C131.257 87.166 131.15 86.8074 130.936 86.4828L120.773 71.09V71.0772C120.47 70.6168 120.225 70.1621 120.028 69.6863C119.83 69.2094 119.682 68.7171 119.574 68.1834L115.874 50.1132C115.797 49.7339 115.617 49.404 115.364 49.1504C115.111 48.8973 114.78 48.718 114.401 48.6406L96.3307 44.9414C95.7975 44.8322 95.3054 44.6842 94.8285 44.4873C94.3288 44.2804 93.8708 44.0354 93.4252 43.7415V43.7393ZM52.5503 182.21L37.6269 173.594L37.6302 173.589C25.7408 166.722 16.3914 157.392 10.0122 146.343C3.6198 135.271 0.207031 122.503 0.207031 108.791V21.2475L76.1684 0.893555H77.8188L153.78 21.2475V108.791C153.78 122.495 150.367 135.258 143.975 146.331V146.344C137.596 157.392 128.246 166.723 116.357 173.589L116.36 173.594L101.437 182.21V193.659L93.0878 187.031L76.9928 196.323L60.8985 187.031L52.5497 193.659V182.21L52.5503 182.21ZM87.7114 182.762L76.9942 174.254L66.2758 182.762L76.9932 188.95L87.7114 182.762Z" fill="#A3523B"/>
</svg>
