<svg  viewBox="0 0 154 197" fill="none" xmlns="http://www.w3.org/2000/svg">
<path d="M147.372 26.1449L76.9864 7.28482L6.60015 26.1449V108.786C6.60015 120.393 9.24143 131.224 14.2148 140.746L22.177 96.6936L29.6749 55.2106L30.4786 50.7661L33.6652 33.1341L34.1222 30.6132L34.5147 28.443H40.9925L40.1443 33.1341L94.0111 33.1347L90.5018 52.5497L132.119 52.5502H139.817L107.578 84.7755L127.601 116.111L57.9566 116.109L58.6345 112.36L61.4664 96.6936L28.6548 96.693L19.2296 148.837C24.7711 156.47 32.032 162.998 40.8064 168.064H40.819L76.986 188.945L113.153 168.064H113.166C124.052 161.779 132.609 153.243 138.443 143.138L138.448 143.141C144.266 133.06 147.372 121.381 147.372 108.786V26.1444V26.1449ZM82.5236 96.6941L69.4762 109.735L115.964 109.736L99.4449 83.8832L124.417 58.9246L89.3506 58.9241L82.9215 94.491L82.5236 96.6936V96.6941ZM73.4968 96.6936H67.9446L66.721 103.466L73.4968 96.6936ZM77.1976 90.3192L82.8718 58.9246L84.0239 52.5502L86.3815 39.5091L38.9919 39.5086L36.086 55.5846L35.9486 56.3443L29.8076 90.3187H62.6185H65.2816L77.1976 90.3192ZM77.8114 0.888672L153.772 21.2426V108.786C153.772 122.49 150.359 135.254 143.968 146.326V146.339C137.588 157.387 128.238 166.718 116.35 173.584L116.353 173.59L76.9854 196.318L37.6191 173.59L37.6222 173.584C25.7328 166.718 16.3834 157.387 10.0042 146.339C3.61178 135.267 0.199219 122.499 0.199219 108.786V21.2432L76.1604 0.889216H77.8107L77.8114 0.888672Z" fill="#373435"/>
</svg>
