<svg  viewBox="0 0 154 197" fill="none" xmlns="http://www.w3.org/2000/svg">
<path d="M147.38 26.1453L76.9942 7.28525L6.60797 26.1453V108.787C6.60797 121.377 9.71561 133.056 15.5372 143.139C21.3711 153.244 29.9279 161.78 40.8142 168.065H40.8268L52.5503 174.834V135.56L38.3107 132.645C36.6699 132.309 35.2317 131.526 34.1113 130.41L34.0987 130.397C32.9825 129.277 32.2001 127.838 31.8638 126.197L28.164 108.127C28.137 107.995 28.1031 107.878 28.0596 107.774C28.0256 107.692 27.9688 107.591 27.8892 107.47L17.7266 92.0777C16.7955 90.6665 16.3292 89.0915 16.3292 87.5149C16.3292 85.9372 16.795 84.3632 17.7266 82.9521L27.8892 67.5593L27.895 67.5631C27.9629 67.4596 28.0171 67.3588 28.0596 67.2559C28.1025 67.1514 28.1375 67.0347 28.164 66.9031L31.8632 48.8329C32.199 47.1921 32.9824 45.7534 34.0981 44.633L34.1109 44.6203C35.2313 43.5041 36.6695 42.7211 38.3103 42.3853L56.3815 38.6857C56.513 38.6586 56.6292 38.6247 56.7337 38.5812C56.816 38.5472 56.9162 38.4905 57.0371 38.4109L72.4305 28.2482C73.8422 27.3167 75.4166 26.8514 76.9932 26.8514C78.5698 26.8514 80.1455 27.3172 81.556 28.2482L96.9493 38.4103C97.0707 38.4904 97.1711 38.5477 97.2528 38.5812C97.3573 38.6241 97.4729 38.6581 97.6055 38.6857L115.676 42.3848C117.332 42.7243 118.776 43.5073 119.888 44.6197C121 45.7322 121.784 47.1757 122.123 48.8324L125.823 66.9026C125.85 67.0352 125.884 67.1514 125.927 67.2554C125.969 67.3578 126.023 67.4591 126.091 67.5625L126.097 67.5588L136.26 82.9516C137.191 84.3627 137.657 85.9372 137.657 87.5144C137.657 89.091 137.192 90.666 136.26 92.0771L126.098 107.47C126.018 107.591 125.961 107.691 125.927 107.773C125.884 107.878 125.85 107.994 125.823 108.126L122.124 126.197C121.786 127.844 121.002 129.282 119.889 130.397L119.876 130.409C118.762 131.524 117.323 132.307 115.676 132.644L101.437 135.559V174.833L113.16 168.064H113.173C124.059 161.78 132.617 153.244 138.45 143.139L138.456 143.142C144.273 133.06 147.38 121.382 147.38 108.786V26.1448L147.38 26.1453ZM76.9942 66.9678L83.4754 80.7628L98.5992 82.6646L87.4812 93.092L90.3463 108.062L76.9938 100.711L63.6413 108.062L66.5064 93.092L55.3884 82.6646L70.5123 80.7628L76.9938 66.9678H76.9942ZM76.9942 48.3682C87.8035 48.3682 97.5908 52.7506 104.675 59.8343C111.759 66.9185 116.141 76.7056 116.141 87.5154C116.141 98.3247 111.759 108.112 104.675 115.196C97.5908 122.28 87.8035 126.662 76.9942 126.662C66.1849 126.662 56.398 122.28 49.3133 115.196C42.2291 108.112 37.8472 98.3247 37.8472 87.5154C37.8472 76.7061 42.2296 66.919 49.3133 59.8343C56.3975 52.7501 66.1849 48.3682 76.9942 48.3682ZM100.15 64.3594C94.2248 58.4343 86.037 54.7686 76.9942 54.7686C67.9514 54.7686 59.7638 58.4343 53.8382 64.3594C47.9131 70.285 44.2475 78.4721 44.2475 87.5154C44.2475 96.5582 47.9131 104.746 53.8382 110.671C59.7638 116.596 67.9509 120.262 76.9942 120.262C86.0375 120.262 94.2248 116.596 100.15 110.671C106.075 104.746 109.741 96.5582 109.741 87.5154C109.741 78.4721 106.075 70.285 100.15 64.3594ZM58.9506 137.882V180.419L76.9942 166.095L95.037 180.419V137.882L81.5565 146.781C80.1464 147.712 78.571 148.179 76.9938 148.179C75.4161 148.179 73.8415 147.712 72.4309 146.781L58.9506 137.882ZM93.4252 43.7354L78.032 33.5733C77.7079 33.3595 77.3486 33.2518 76.9942 33.2518C76.6388 33.2518 76.2798 33.359 75.9562 33.5733L60.5628 43.736C60.1177 44.0299 59.6589 44.275 59.1597 44.4818C58.6833 44.6787 58.1909 44.8267 57.6578 44.9359L39.5866 48.6356C39.1972 48.7152 38.8672 48.8897 38.6243 49.1332L38.6116 49.1459C38.3676 49.3894 38.1934 49.7194 38.1139 50.1088L34.4149 68.1789C34.3062 68.7126 34.1576 69.2049 33.9603 69.6818C33.764 70.1572 33.5183 70.6118 33.2149 71.0728V71.0855L23.0522 86.4783C22.8379 86.803 22.7308 87.1616 22.7308 87.5165C22.7308 87.8709 22.8384 88.2305 23.0522 88.5546L33.2149 103.947C33.5093 104.393 33.7538 104.851 33.9607 105.351C34.1586 105.828 34.3062 106.32 34.4149 106.853L38.1145 124.924C38.1941 125.314 38.3685 125.644 38.612 125.887L38.6249 125.899C38.8678 126.143 39.1978 126.317 39.5872 126.397L57.6584 130.096C58.2085 130.208 58.7056 130.357 59.173 130.551L59.1709 130.555C59.6659 130.761 60.1215 131.005 60.5634 131.296L75.9567 141.459C76.2813 141.673 76.6394 141.781 76.9948 141.781C77.3492 141.781 77.7078 141.673 78.0324 141.459L93.4258 131.296C93.872 131.002 94.3303 130.757 94.8289 130.551C95.3053 130.353 95.7976 130.205 96.3313 130.096L114.401 126.397C114.788 126.318 115.12 126.141 115.371 125.893C115.619 125.642 115.796 125.31 115.875 124.924L119.574 106.853C119.682 106.32 119.831 105.828 120.028 105.351C120.235 104.852 120.48 104.393 120.774 103.948L130.936 88.5552C131.15 88.2311 131.257 87.8714 131.257 87.517C131.257 87.1621 131.15 86.8035 130.936 86.4788L120.773 71.0861V71.0733C120.47 70.6129 120.225 70.1582 120.028 69.6824C119.83 69.2055 119.682 68.7132 119.574 68.1795L115.874 50.1093C115.797 49.73 115.617 49.4 115.364 49.1465C115.111 48.8934 114.78 48.7141 114.401 48.6367L96.3307 44.9375C95.7975 44.8282 95.3054 44.6802 94.8285 44.4834C94.3288 44.2765 93.8708 44.0314 93.4252 43.7375V43.7354ZM52.5503 182.206L37.6269 173.59L37.6302 173.585C25.7408 166.719 16.3914 157.388 10.0122 146.339C3.6198 135.267 0.207031 122.499 0.207031 108.787V21.2436L76.1684 0.889648H77.8188L153.78 21.2436V108.787C153.78 122.491 150.367 135.254 143.975 146.327V146.34C137.596 157.388 128.246 166.719 116.357 173.585L116.36 173.591L101.437 182.206V193.655L93.0878 187.027L76.9928 196.319L60.8985 187.027L52.5497 193.655V182.206L52.5503 182.206ZM87.7114 182.758L76.9942 174.25L66.2758 182.759L76.9932 188.946L87.7114 182.758Z" fill="#373435"/>
</svg>
