<svg  viewBox="0 0 154 197" fill="none" xmlns="http://www.w3.org/2000/svg">
<path d="M147.38 26.1448L76.9942 7.28473L6.60797 26.1448V108.786C6.60797 121.376 9.71561 133.055 15.5372 143.139C21.3711 153.243 29.9279 161.779 40.8142 168.064H40.8268L76.9938 188.946L113.161 168.064H113.173C124.06 161.78 132.617 153.244 138.451 143.139L138.456 143.142C144.274 133.06 147.38 121.382 147.38 108.786V26.1448ZM50.659 112.719H103.329V119.119H50.659V112.719ZM50.659 99.6865H103.329V106.087H50.659V99.6865ZM50.659 86.655H103.329V93.0554H50.659V86.655ZM50.659 73.6234H103.329V80.0238H50.659V73.6234ZM50.659 60.5913H103.329V66.9917H50.659V60.5913ZM63.4874 47.5592H90.5013V53.9596H63.4874V47.5592ZM37.7628 26.0812H119.425V37.5128V140.598V152.03H34.5623V140.598V37.5128V26.0812H37.7622H37.7628ZM113.025 140.598H40.9632V145.629H113.025V140.598ZM113.025 32.4816H40.9632V134.197H113.025V32.4816ZM77.8192 0.889648L153.78 21.2436V108.787C153.78 122.491 150.367 135.254 143.975 146.327V146.34C137.596 157.388 128.246 166.719 116.357 173.585L116.361 173.591L76.9932 196.319L37.6269 173.591L37.6302 173.585C25.7408 166.719 16.3914 157.388 10.0122 146.34C3.6198 135.268 0.207031 122.5 0.207031 108.787V21.2441L76.1682 0.890192H77.8188L77.8192 0.889648Z" fill="#373435"/>
</svg>
