<svg  viewBox="0 0 154 197" fill="none" xmlns="http://www.w3.org/2000/svg">
<path fill-rule="evenodd" clip-rule="evenodd" d="M77.8192 0.893555L153.78 21.2475V108.791C153.78 122.495 150.367 135.258 143.975 146.331V146.344C137.596 157.392 128.246 166.723 116.357 173.589L116.361 173.594L76.9932 196.323L37.6269 173.594L37.6302 173.589C25.7408 166.723 16.3914 157.392 10.0122 146.344C3.6198 135.272 0.207031 122.504 0.207031 108.791V21.248L76.1682 0.894086H77.8188L77.8192 0.893555Z" fill="#FF7955"/>
<path d="M147.38 26.1497L76.9942 7.28962L6.60797 26.1497V108.791C6.60797 121.381 9.71561 133.06 15.5372 143.144C21.3711 153.248 29.9279 161.784 40.8142 168.069H40.8268L76.9938 188.951L113.161 168.069H113.173C124.06 161.785 132.617 153.248 138.451 143.144L138.456 143.147C144.274 133.065 147.38 121.386 147.38 108.791V26.1497ZM50.659 112.724H103.329V119.124H50.659V112.724ZM50.659 99.6914H103.329V106.092H50.659V99.6914ZM50.659 86.6599H103.329V93.0602H50.659V86.6599ZM50.659 73.6283H103.329V80.0287H50.659V73.6283ZM50.659 60.5962H103.329V66.9966H50.659V60.5962ZM63.4874 47.5641H90.5013V53.9645H63.4874V47.5641ZM37.7628 26.0861H119.425V37.5176V140.602V152.035H34.5623V140.602V37.5176V26.0861H37.7622H37.7628ZM113.025 140.602H40.9632V145.634H113.025V140.602ZM113.025 32.4864H40.9632V134.202H113.025V32.4864ZM77.8192 0.894531L153.78 21.2485V108.791C153.78 122.496 150.367 135.259 143.975 146.332V146.345C137.596 157.393 128.246 166.724 116.357 173.59L116.361 173.595L76.9932 196.324L37.6269 173.595L37.6302 173.59C25.7408 166.724 16.3914 157.393 10.0122 146.345C3.6198 135.273 0.207031 122.505 0.207031 108.792V21.249L76.1682 0.895062H77.8188L77.8192 0.894531Z" fill="#A3523B"/>
</svg>
