<svg viewBox="0 0 154 197" fill="none" xmlns="http://www.w3.org/2000/svg">
<path fill-rule="evenodd" clip-rule="evenodd" d="M77.8192 0.894531L153.78 21.2485V108.791C153.78 122.496 150.367 135.259 143.975 146.332V146.345C137.596 157.393 128.246 166.724 116.357 173.59L116.361 173.595L76.9932 196.324L37.6269 173.595L37.6302 173.59C25.7408 166.724 16.3912 157.393 10.012 146.345C3.61959 135.273 0.207031 122.505 0.207031 108.792V21.249L76.1682 0.895062H77.8188L77.8192 0.894531Z" fill="#FF7955"/>
<path d="M147.38 26.1498L76.9946 7.28971L6.60832 26.1498V108.791C6.60832 121.381 9.71597 133.06 15.5376 143.144C21.3714 153.248 29.9283 161.784 40.8145 168.069H40.8272L76.9942 188.951L113.161 168.069H113.174C124.06 161.785 132.617 153.248 138.451 143.144L138.457 143.147C144.274 133.065 147.38 121.387 147.38 108.791V26.1498ZM80.1945 77.162C80.1945 81.1205 78.5772 84.7173 75.9719 87.3225C73.3667 89.9272 69.7699 91.5452 65.8113 91.5452L65.8107 85.1449C68.0032 85.1449 69.9985 84.2457 71.4468 82.7979C72.8945 81.3502 73.7936 79.3545 73.7936 77.1625H73.8064L73.8473 46.4815L73.764 45.4937C73.5788 43.289 72.5486 41.3107 71.0006 39.8869C69.4702 38.48 67.4277 37.6175 65.1901 37.6175C62.9519 37.6175 60.9096 38.4795 59.3791 39.8869C57.8311 41.3102 56.8009 43.2884 56.6158 45.4937L56.3686 48.431H45.417C41.9094 48.431 38.7179 49.8681 36.4034 52.1832C34.0883 54.4977 32.6512 57.6892 32.6512 61.1968C32.6512 61.7013 32.6731 62.149 32.714 62.5405C32.7617 62.9787 32.8343 63.4243 32.9313 63.8753L33.3516 65.8275L31.7564 67.063C30.2158 68.2561 28.95 69.7961 28.0784 71.5642C27.2503 73.2448 26.784 75.1456 26.784 77.1631C26.784 78.0909 26.8789 78.98 27.0582 79.8203C27.2486 80.711 27.5272 81.5587 27.8832 82.3523L28.646 84.0526L27.5336 85.5523C26.7405 86.6217 26.1067 87.8323 25.6717 89.1453C25.2579 90.3962 25.0328 91.7362 25.0328 93.1288C25.0328 95.4136 25.6329 97.5531 26.6806 99.3965C27.7766 101.325 29.3579 102.946 31.2528 104.085L33.0789 105.183L32.778 107.272C32.7356 107.567 32.7028 107.872 32.68 108.184C32.6619 108.44 32.6518 108.744 32.6518 109.095C32.6518 111.465 33.3032 113.685 34.4337 115.587C35.6066 117.56 37.3004 119.197 39.3221 120.305L41.2251 121.35L40.9594 123.493C40.9196 123.815 40.8929 124.075 40.8813 124.271C40.8701 124.456 40.8639 124.72 40.8639 125.061C40.8639 128.569 42.301 131.761 44.6161 134.075C46.9306 136.39 50.1221 137.828 53.6297 137.828H64.4868V142.034C64.4868 143.311 65.0113 144.474 65.8559 145.319C66.7004 146.163 67.8638 146.688 69.1402 146.688C70.4171 146.688 71.5803 146.163 72.4249 145.319C73.2694 144.474 73.7942 143.311 73.7942 142.034H73.7644L73.8069 110.776H80.1813L80.2237 142.034H80.1941C80.1941 143.311 80.7187 144.474 81.5632 145.319C82.4078 146.163 83.5712 146.688 84.8475 146.688C86.1244 146.688 87.2877 146.163 88.1322 145.319C88.9768 144.474 89.5016 143.311 89.5016 142.034V137.828H100.359C103.866 137.828 107.058 136.39 109.372 134.075C111.687 131.761 113.124 128.569 113.124 125.062C113.124 124.719 113.119 124.456 113.107 124.27C113.095 124.075 113.068 123.815 113.029 123.493L112.763 121.349L114.666 120.305C116.688 119.196 118.381 117.559 119.554 115.586C120.685 113.685 121.336 111.464 121.336 109.095C121.336 108.743 121.326 108.44 121.308 108.183C121.286 107.871 121.253 107.567 121.21 107.272L120.909 105.183L122.735 104.085C124.63 102.946 126.211 101.325 127.308 99.396C128.355 97.5525 128.955 95.4131 128.955 93.1293C128.955 91.7357 128.73 90.3962 128.317 89.1448C127.882 87.8323 127.248 86.6212 126.455 85.5517L125.342 84.052L126.105 82.3518C126.461 81.5582 126.739 80.7099 126.93 79.8198C127.109 78.9789 127.204 78.0904 127.204 77.1631C127.204 75.1456 126.737 73.2454 125.909 71.5642C125.038 69.7966 123.772 68.2555 122.231 67.0625L120.636 65.827L121.056 63.8747C121.153 63.4243 121.226 62.9782 121.273 62.54C121.315 62.148 121.336 61.7008 121.336 61.1963C121.336 57.6881 119.899 54.4967 117.584 52.1821C115.27 49.8671 112.078 48.43 108.571 48.43H97.6185L97.3719 45.4926C97.1868 43.2879 96.1566 41.3097 94.6086 39.8858C93.0781 38.479 91.0357 37.6164 88.798 37.6164C86.5599 37.6164 84.5175 38.4784 82.9871 39.8858C81.4391 41.3092 80.4089 43.2874 80.2237 45.4926L80.2231 45.4969L80.1813 77.162H80.1941H80.1945ZM73.7942 110.776C73.7942 106.817 75.4116 103.22 78.0168 100.615C80.6221 98.0093 84.219 96.3918 88.177 96.3918L88.1784 102.792C85.9854 102.792 83.9902 103.691 82.542 105.139C81.0942 106.587 80.1952 108.582 80.1952 110.775L73.7946 110.775L73.7942 110.776ZM50.6202 100.503C53.0997 98.0236 54.3394 94.7505 54.3394 91.4758C54.3394 88.9177 53.5829 86.3607 52.0699 84.1825C48.0902 86.7029 43.38 88.1655 38.343 88.1655V81.7651C43.6691 81.7651 48.5129 79.5837 52.0264 76.0702C55.5398 72.5573 57.7213 67.7123 57.7213 62.3867L64.1216 62.3856C64.1216 69.2359 61.4173 75.483 57.0248 80.1094C59.5012 83.4722 60.7397 87.4748 60.7397 91.4758C60.7397 96.3855 58.8747 101.298 55.1453 105.028L50.6202 100.503ZM60.9903 125.838C60.9903 123.719 60.1206 121.788 58.7201 120.388C57.3196 118.988 55.3898 118.118 53.2699 118.118L53.2693 111.718C57.1557 111.718 60.6872 113.306 63.2453 115.863C65.8028 118.421 67.3906 121.952 67.3906 125.838H60.9903ZM98.844 105.028C95.1147 101.298 93.2494 96.3849 93.2494 91.4752C93.2494 87.4748 94.4882 83.4722 96.9645 80.1089C92.572 75.4825 89.8675 69.2354 89.8675 62.3862L96.2681 62.3851C96.2681 67.7118 98.4493 72.5568 101.963 76.0697C105.476 79.5832 110.321 81.7645 115.646 81.7645V88.1649C110.61 88.1649 105.9 86.7024 101.919 84.182C100.407 86.3602 99.6499 88.9172 99.6499 91.4752C99.6499 94.75 100.89 98.0231 103.369 100.503L98.844 105.028ZM86.5988 125.838C86.5988 121.953 88.187 118.421 90.7445 115.863C93.302 113.306 96.8336 111.718 100.719 111.718L100.72 118.118C98.5995 118.118 96.6696 118.988 95.2696 120.388C93.8691 121.789 92.9991 123.719 92.9991 125.838H86.5988ZM26.2672 108.401C24.1819 106.821 22.427 104.827 21.131 102.546C19.5427 99.7509 18.6329 96.5345 18.6329 93.1293C18.6329 91.045 18.972 89.0323 19.5969 87.1448C20.0478 85.7825 20.6542 84.4812 21.3937 83.2616C21.1587 82.5693 20.9625 81.8622 20.8092 81.1449C20.5312 79.8431 20.3841 78.51 20.3841 77.1631C20.3841 74.1578 21.0934 71.2963 22.3538 68.7388C23.3633 66.6917 24.731 64.8461 26.3739 63.2854L26.3665 63.2026C26.2912 62.4928 26.2525 61.8217 26.2525 61.1968C26.2525 55.9226 28.4078 51.1296 31.8799 47.6576C35.352 44.1855 40.1444 42.0301 45.418 42.0301H50.7899C51.5687 39.3723 53.0661 37.0148 55.055 35.1862C57.7318 32.7247 61.2953 31.2171 65.1907 31.2171C69.0866 31.2171 72.65 32.7253 75.3268 35.1862C75.93 35.7411 76.488 36.3443 76.9946 36.9904C77.5012 36.3443 78.0594 35.7411 78.6625 35.1862C81.3394 32.7247 84.9026 31.2171 88.798 31.2171C92.694 31.2171 96.2573 32.7253 98.9342 35.1862C100.923 37.0148 102.421 39.3723 103.199 42.0301H108.571C113.845 42.0301 118.638 44.1855 122.109 47.6576C125.581 51.1296 127.737 55.9221 127.737 61.1957C127.737 61.8212 127.698 62.4923 127.623 63.2026L127.615 63.2859C129.258 64.8466 130.626 66.6922 131.635 68.7394C132.895 71.2963 133.605 74.1567 133.605 77.162C133.605 78.51 133.459 79.8426 133.18 81.1444C133.027 81.8622 132.831 82.5688 132.596 83.2611C133.335 84.4801 133.942 85.782 134.392 87.1443C135.017 89.0318 135.356 91.0445 135.356 93.1282C135.356 96.5345 134.447 99.7509 132.858 102.546C131.562 104.827 129.807 106.821 127.722 108.401C127.732 108.644 127.737 108.875 127.737 109.094C127.737 112.64 126.758 115.973 125.055 118.835C123.653 121.194 121.76 123.229 119.522 124.797L119.525 125.06C119.525 130.334 117.37 135.127 113.898 138.599C110.426 142.072 105.633 144.227 100.36 144.227H95.6835C95.2437 146.394 94.1661 148.335 92.6584 149.843C90.6569 151.844 87.8921 153.087 84.8492 153.087C81.8063 153.087 79.0413 151.844 77.0398 149.843L76.9952 149.798L76.9506 149.843C74.9491 151.844 72.1841 153.087 69.1412 153.087C66.0983 153.087 63.3333 151.844 61.3318 149.843C59.8236 148.335 58.7467 146.393 58.3069 144.227H53.6307C48.3571 144.227 43.5641 142.072 40.0926 138.599C36.6205 135.127 34.465 130.335 34.465 125.061L34.4681 124.797C32.2305 123.229 30.3379 121.194 28.9352 118.835C27.2334 115.973 26.2529 112.64 26.2529 109.095C26.2529 108.875 26.2584 108.644 26.2685 108.401L26.2672 108.401ZM77.8202 0.893555L153.781 21.2475V108.791C153.781 122.495 150.368 135.258 143.976 146.331V146.344C137.597 157.392 128.247 166.723 116.358 173.589L116.362 173.594L76.9942 196.323L37.6279 173.594L37.631 173.589C25.7416 166.723 16.3922 157.392 10.013 146.344C3.62057 135.272 0.208008 122.504 0.208008 108.791V21.248L76.1692 0.894084H77.8195L77.8202 0.893555Z" fill="#A3523B"/>
</svg>
