<svg  viewBox="0 0 154 197" fill="none" xmlns="http://www.w3.org/2000/svg">
<path fill-rule="evenodd" clip-rule="evenodd" d="M77.8114 0.894531L153.772 21.2485V108.791C153.772 122.496 150.359 135.259 143.968 146.332V146.345C137.588 157.393 128.238 166.724 116.35 173.59L116.353 173.595L76.9854 196.324L37.6191 173.595L37.6222 173.59C25.7328 166.724 16.3834 157.393 10.0042 146.345C3.61178 135.273 0.199219 122.505 0.199219 108.792V21.249L76.1604 0.895062H77.8107L77.8114 0.894531Z" fill="#FF7955"/>
<path d="M147.372 26.1498L76.9864 7.28971L6.60015 26.1498V108.791C6.60015 120.398 9.24143 131.229 14.2148 140.751L22.177 96.6985L29.6749 55.2155L30.4786 50.771L33.6652 33.139L34.1222 30.6181L34.5147 28.4479H40.9925L40.1443 33.139L94.0111 33.1396L90.5018 52.5545L132.119 52.5551H139.817L107.578 84.7804L127.601 116.116L57.9566 116.114L58.6345 112.364L61.4664 96.6985L28.6548 96.6979L19.2296 148.842C24.7711 156.475 32.032 163.003 40.8064 168.069H40.819L76.986 188.95L113.153 168.069H113.166C124.052 161.784 132.609 153.248 138.443 143.143L138.448 143.146C144.266 133.065 147.372 121.386 147.372 108.791V26.1493V26.1498ZM82.5236 96.699L69.4762 109.74L115.964 109.741L99.4449 83.8881L124.417 58.9295L89.3506 58.9289L82.9215 94.4958L82.5236 96.6985V96.699ZM73.4968 96.6985H67.9446L66.721 103.471L73.4968 96.6985ZM77.1976 90.324L82.8718 58.9295L84.0239 52.5551L86.3815 39.514L38.9919 39.5134L36.086 55.5895L35.9486 56.3492L29.8076 90.3235H62.6185H65.2816L77.1976 90.324ZM77.8114 0.893555L153.772 21.2475V108.791C153.772 122.495 150.359 135.258 143.968 146.331V146.344C137.588 157.392 128.238 166.723 116.35 173.589L116.353 173.594L76.9854 196.323L37.6191 173.594L37.6222 173.589C25.7328 166.723 16.3834 157.392 10.0042 146.344C3.61178 135.272 0.199219 122.504 0.199219 108.791V21.248L76.1604 0.894084H77.8107L77.8114 0.893555Z" fill="#A3523B"/>
</svg>
