<svg viewBox="0 0 140 196" fill="none" xmlns="http://www.w3.org/2000/svg">
<path d="M10.6082 50.4133H32.2519V38.0587C32.2519 27.6334 36.515 18.1572 43.3827 11.29C50.25 4.42274 59.7264 0.15918 70.1511 0.15918C80.5774 0.15918 90.0532 4.42221 96.9215 11.29C103.789 18.1572 108.052 27.6339 108.052 38.0587V50.4133H132.741C134.978 98.6245 137.211 146.836 139.438 195.047H0.866211L7.56244 50.4133H10.6082ZM8.55629 166.909H131.748L126.65 56.8132H108.052V75.9592H86.8554V69.5588H101.652V56.8132H38.6518V69.5588H53.4488V75.9592H32.2519V56.8132H13.6536L8.55629 166.909ZM132.044 173.309H8.26037L7.55001 188.647H132.755L132.044 173.309ZM38.6522 50.4133H101.652V38.0587C101.652 29.3999 98.1068 21.5248 92.3965 15.8145C86.6863 10.1043 78.8117 6.55905 70.1519 6.55905C61.4921 6.55905 53.617 10.1043 47.9073 15.8145C42.197 21.5248 38.6518 29.3994 38.6518 38.0587V50.4133H38.6522Z" fill="#373435"/>
</svg>
