<svg viewBox="0 0 140 196" fill="none" xmlns="http://www.w3.org/2000/svg">
<path fill-rule="evenodd" clip-rule="evenodd" d="M69.9503 0.164062C80.3766 0.164062 89.852 4.4271 96.7203 11.2949C103.588 18.1621 107.851 27.6388 107.851 38.0635V50.4182H132.54C134.777 98.6294 137.01 146.841 139.237 195.052H0.665039L7.36168 50.4182H10.407H32.0507V38.0635C32.0507 27.6383 36.3138 18.1621 43.1816 11.2949C50.0488 4.42763 59.5256 0.164062 69.9503 0.164062Z" fill="#FF7955"/>
<path d="M10.407 50.4182H32.0507V38.0635C32.0507 27.6383 36.3138 18.1621 43.1816 11.2949C50.0488 4.42763 59.5256 0.164062 69.9503 0.164062C80.3766 0.164062 89.852 4.4271 96.7203 11.2949C103.588 18.1621 107.851 27.6388 107.851 38.0635V50.4182H132.54C134.777 98.6294 137.01 146.841 139.237 195.052H0.665039L7.36168 50.4182H10.407ZM8.35511 166.914H131.547L126.449 56.8181H107.851V75.9641H86.6542V69.5637H101.45V56.8181H38.4506V69.5637H53.2477V75.9641H32.0507V56.8181H13.4528L8.35511 166.914ZM131.844 173.314H8.0592L7.34884 188.652H132.553L131.844 173.314ZM38.4511 50.4182H101.451V38.0635C101.451 29.4048 97.9056 21.5297 92.1954 15.8194C86.4852 10.1092 78.6105 6.56393 69.9507 6.56393C61.291 6.56393 53.4158 10.1092 47.7061 15.8194C41.9959 21.5297 38.4506 29.4043 38.4506 38.0635V50.4182H38.4511Z" fill="#A3523B"/>
</svg>
