<svg  viewBox="0 0 154 196" fill="none" xmlns="http://www.w3.org/2000/svg">
<path fill-rule="evenodd" clip-rule="evenodd" d="M78.5596 81.7277L80.289 73.0812L82.0179 81.7277C85.2115 97.6971 97.6945 110.18 113.664 113.374L122.31 115.103L113.664 116.832C97.6951 120.026 85.212 132.509 82.0179 148.479L80.289 157.124L78.5596 148.479C75.3661 132.509 62.883 120.026 46.9136 116.832L38.2671 115.103L46.9136 113.374C62.883 110.18 75.3661 97.6971 78.5596 81.7277ZM147.173 25.4344L76.7873 6.57434L6.40093 25.4344V108.076C6.40093 120.666 9.50855 132.345 15.3302 142.428C21.164 152.533 29.7209 161.069 40.6071 167.354H40.6198L76.7867 188.235L112.954 167.354H112.966C123.853 161.069 132.41 152.533 138.244 142.428L138.249 142.431C144.067 132.35 147.173 120.671 147.173 108.076V25.4344ZM77.6122 0.178711L153.573 20.5327V108.076C153.573 121.78 150.16 134.544 143.768 145.616V145.629C137.389 156.677 128.039 166.008 116.15 172.874L116.154 172.88L76.7862 195.608L37.4199 172.88L37.4231 172.874C25.5337 166.008 16.1843 156.677 9.8051 145.629C3.41266 134.557 0 121.789 0 108.076V20.5332L75.9613 0.179229H77.6116L77.6122 0.178711ZM114.731 47.9491L115.307 45.0674L115.883 47.9491C116.948 53.2726 121.108 57.4332 126.432 58.4979L129.314 59.074L126.432 59.6507C121.109 60.7148 116.948 64.876 115.883 70.1995L115.307 73.0812L114.731 70.1995C113.666 64.876 109.505 60.7154 104.182 59.6507L101.3 59.074L104.182 58.4979C109.505 57.4332 113.666 53.2726 114.731 47.9491ZM44.4065 42.3869L45.2712 38.0633L46.1354 42.3869C47.7327 50.3713 53.9739 56.6126 61.9589 58.2099L66.2819 59.074L61.9589 59.9387C53.9739 61.5355 47.7327 67.7773 46.1354 75.7623L45.2712 80.0853L44.4065 75.7623C42.8097 67.7773 36.5679 61.5355 28.5835 59.9387L24.2605 59.074L28.5835 58.2099C36.5679 56.6126 42.8097 50.3713 44.4065 42.3869Z" fill="#373435"/>
</svg>
