<svg viewBox="0 0 252 196" fill="none" xmlns="http://www.w3.org/2000/svg">
<path fill-rule="evenodd" clip-rule="evenodd" d="M98.3547 0.164594C125.262 0.164594 149.624 11.0721 167.258 28.7056C178.442 39.8895 186.917 53.7794 191.624 69.3085L207.497 65.0555L213.555 51.084L243.741 42.9961L236.058 60.7108L251.569 72.2114L221.384 80.2998L209.151 71.2289L193.276 75.4829C194.927 82.5915 195.799 89.9977 195.799 97.6082C195.799 124.516 184.892 148.877 167.258 166.511C149.625 184.145 125.263 195.052 98.3552 195.052C71.4476 195.052 47.0863 184.145 29.4522 166.511C11.8186 148.877 0.911133 124.516 0.911133 97.6082C0.911133 70.7005 11.8186 46.3387 29.4522 28.7051C47.0863 11.0715 71.4476 0.164062 98.3552 0.164062L98.3547 0.164594Z" fill="#FF7955"/>
<path d="M98.3547 0.164594C125.262 0.164594 149.624 11.0721 167.258 28.7056C178.442 39.8895 186.917 53.7794 191.624 69.3085L207.497 65.0555L213.555 51.084L243.741 42.9961L236.058 60.7108L251.569 72.2114L221.384 80.2998L209.151 71.2289L193.276 75.4829C194.927 82.5915 195.799 89.9977 195.799 97.6082C195.799 124.516 184.892 148.877 167.258 166.511C149.625 184.145 125.263 195.052 98.3552 195.052C71.4476 195.052 47.0863 184.145 29.4522 166.511C11.8186 148.877 0.911133 124.516 0.911133 97.6082C0.911133 70.7005 11.8186 46.3387 29.4522 28.7051C47.0863 11.0715 71.4476 0.164062 98.3552 0.164062L98.3547 0.164594ZM97.5303 94.5212L125.801 86.9463C124.308 83.1061 122.032 79.6558 119.17 76.7932C113.844 71.4666 106.484 68.1717 98.3547 68.1717C90.226 68.1717 82.8664 71.466 77.5392 76.7932C72.2126 82.1194 68.9177 89.4794 68.9177 97.6087C68.9177 105.737 72.212 113.097 77.5392 118.424C82.8659 123.751 90.2255 127.046 98.3547 127.046C106.484 127.046 113.844 123.751 119.17 118.424C124.497 113.098 127.792 105.738 127.792 97.6087C127.792 96.083 127.676 94.5838 127.452 93.1207L99.1812 100.696L97.5309 94.5212H97.5303ZM132.015 85.2811L158.691 78.1333C155.572 68.4624 150.192 59.8058 143.175 52.7884C131.705 41.3186 115.858 34.2238 98.3547 34.2238C80.8511 34.2238 65.0042 41.3186 53.5344 52.7884C42.0646 64.2582 34.9698 80.1051 34.9698 97.6087C34.9698 115.112 42.0646 130.959 53.5344 142.429C65.0042 153.899 80.8511 160.994 98.3547 160.994C115.858 160.994 131.705 153.899 143.175 142.429C154.645 130.959 161.74 115.112 161.74 97.6087C161.74 93.0465 161.256 88.5972 160.341 84.3082L133.665 91.4561C134.011 93.4555 134.192 95.5106 134.192 97.6087C134.192 107.504 130.18 116.463 123.695 122.949C117.21 129.434 108.25 133.446 98.3547 133.446C88.4594 133.446 79.4999 129.434 73.0147 122.949C66.5294 116.463 62.5178 107.504 62.5178 97.6087C62.5178 87.7129 66.5294 78.7534 73.0147 72.2687C79.4999 65.7834 88.4594 61.7718 98.3547 61.7718C108.251 61.7718 117.21 65.7834 123.695 72.2687C127.341 75.9147 130.206 80.3438 132.015 85.2811ZM164.881 76.4749L185.437 70.9668C181.028 56.5385 173.134 43.6316 162.733 33.2307C146.257 16.7552 123.496 6.56499 98.3547 6.56499C73.2131 6.56499 50.4517 16.7558 33.9767 33.2307C17.5012 49.7063 7.31098 72.4676 7.31098 97.6087C7.31098 122.75 17.5018 145.512 33.9767 161.987C50.4523 178.462 73.2136 188.652 98.3547 188.652C123.496 188.652 146.258 178.462 162.733 161.987C179.208 145.511 189.398 122.75 189.398 97.6087C189.398 90.5712 188.6 83.7199 187.088 77.1412L166.532 82.6493C167.585 87.4683 168.139 92.4741 168.139 97.6087C168.139 116.879 160.328 134.325 147.7 146.954C135.071 159.582 117.624 167.393 98.3547 167.393C79.0846 167.393 61.6382 159.582 49.0098 146.954C36.3815 134.325 28.57 116.878 28.57 97.6087C28.57 78.3386 36.3815 60.8922 49.0098 48.2639C61.6382 35.6355 79.0851 27.824 98.3547 27.824C117.625 27.824 135.071 35.6355 147.7 48.2639C155.5 56.0642 161.462 65.7038 164.881 76.4749Z" fill="#A3523B"/>
</svg>
