<svg  viewBox="0 0 146 216" fill="none" xmlns="http://www.w3.org/2000/svg">
<path fill-rule="evenodd" clip-rule="evenodd" d="M144.709 0.416016V144.052V150.453V195.033H67.5154V214.801L52.3926 202.796L37.2693 214.801V195.033H26.1645C19.1519 195.033 12.778 192.165 8.16009 187.547C3.54215 182.929 0.674805 176.556 0.674805 169.543V25.9067C0.674805 18.8936 3.54163 12.5203 8.15957 7.9018C12.7775 3.28333 19.1514 0.416546 26.1645 0.416546H144.709V0.416016Z" fill="#FF7955" stroke="#373435" strokeWidth="0.66683" stroke-miterlimit="2.61313"/>
<path d="M26.1649 144.052H138.309V6.81641H26.1649C20.9183 6.81641 16.146 8.96491 12.6851 12.4264C9.22414 15.8873 7.07563 20.6596 7.07563 25.9062V152.691L7.0921 152.673L7.12495 152.636L7.14142 152.618L7.15785 152.599L7.17432 152.58L7.19074 152.562L7.20722 152.544L7.22364 152.525L7.24006 152.507L7.25654 152.489L7.27296 152.47L7.28943 152.452L7.30586 152.434L7.31435 152.423L7.32233 152.415L7.33875 152.397L7.35523 152.379L7.37217 152.36L7.38864 152.342L7.40506 152.324L7.42206 152.306L7.47246 152.252L7.48889 152.234L7.50588 152.216L7.52069 152.199L7.52282 152.197L7.53929 152.179L7.55629 152.161L7.57323 152.143L7.5897 152.125L7.64063 152.071L7.65757 152.053L7.67456 152.035L7.69155 152.018L7.70849 152L7.72548 151.982L7.73025 151.977L7.74299 151.964L7.75999 151.947L7.77693 151.929L7.88038 151.822L7.89738 151.804L7.91489 151.787L7.9324 151.769L7.94353 151.758L7.94991 151.752L7.96685 151.734L8.12335 151.576L8.14086 151.558L8.15837 151.541L8.37586 151.326L8.59603 151.113L8.81885 150.904V150.903L9.04431 150.696L9.27189 150.491L9.50263 150.29L9.73498 150.091L9.97003 149.895L10.2071 149.701L10.4469 149.51L10.6888 149.322L10.9334 149.137L11.1801 148.954L11.4294 148.775L11.6803 148.598L11.9334 148.425V148.424L12.189 148.254L12.4464 148.086L12.7057 147.922V147.921L12.9678 147.76L13.2315 147.601V147.601L13.4972 147.445L13.7651 147.294V147.293L14.0352 147.144V147.143L14.3068 146.998V146.998L14.5811 146.855L14.8564 146.715V146.715L15.1338 146.579L15.4134 146.446L15.6951 146.316L15.9779 146.19V146.19L16.2627 146.067L16.5492 145.947L16.8378 145.831L17.1274 145.719L17.4192 145.609V145.609L17.7125 145.503V145.503L18.0075 145.401L18.3041 145.302V145.302L18.6022 145.207V145.206L18.9014 145.115L19.2027 145.027L19.5056 144.942L19.8101 144.862L20.1157 144.785V144.784L20.4228 144.711L20.7311 144.642L21.0409 144.576L21.3517 144.514L21.6637 144.455L21.9777 144.401L22.2923 144.35L22.6085 144.304L22.9257 144.261L23.2445 144.222L23.5644 144.187L23.8854 144.156L24.2079 144.13L24.531 144.107L24.8551 144.088L25.1803 144.074L25.5071 144.063L25.8344 144.058L26.1622 144.055L26.1649 144.052ZM83.5754 62.7145V51.8309C83.5754 48.841 82.3499 46.1206 80.3765 44.1467C78.4025 42.1732 75.6822 40.9478 72.6923 40.9478C69.7025 40.9478 66.9821 42.1732 65.0076 44.1467C63.0342 46.1206 61.8087 48.841 61.8087 51.8309V62.7145H83.5754ZM55.4083 62.7145V51.8309C55.4083 47.0745 57.3521 42.7531 60.4825 39.6221C63.6135 36.4917 67.9359 34.5479 72.6912 34.5479C77.4476 34.5479 81.7696 36.4917 84.9006 39.6221C88.031 42.7531 89.9747 47.075 89.9747 51.8309V62.7145H100.058V117.448H45.3247V62.7145H48.5246H55.4078H55.4083ZM37.2697 169.542H52.393H67.5158V188.632H138.309V150.452H26.1649L25.9193 150.454L25.6742 150.459L25.4302 150.466L25.1872 150.477L24.9447 150.491L24.7029 150.508L24.4615 150.528L24.2217 150.551L23.9825 150.577L23.7437 150.606L23.506 150.638L23.2694 150.673L23.0334 150.711L22.7989 150.752L22.565 150.795V150.796L22.3321 150.842V150.843L22.1002 150.892L21.8695 150.944L21.6398 150.999L21.4112 151.056L21.183 151.117L20.9565 151.18V151.181L20.7311 151.246H20.7305L20.5066 151.315L20.2839 151.387H20.2833L20.0616 151.461V151.461L19.8409 151.538V151.538L19.6213 151.617V151.618L19.4027 151.699L19.1857 151.784L18.9698 151.871L18.755 151.961V151.961L18.5417 152.053V152.054L18.3301 152.148H18.3295L18.1189 152.245L17.9099 152.345L17.702 152.447L17.4956 152.551L17.2908 152.658H17.2903L17.0871 152.768V152.768L16.885 152.88L16.6844 152.994H16.6839L16.485 153.11H16.4845L16.2871 153.229V153.229L16.0908 153.35L15.8967 153.473L15.8962 153.474L15.7035 153.6L15.5121 153.727V153.728L15.3222 153.858L15.1344 153.99H15.1338L14.9476 154.125L14.763 154.261L14.7625 154.262L14.5795 154.4L14.398 154.541L14.2187 154.684L14.0405 154.83L13.8649 154.977H13.8643L13.6904 155.126L13.518 155.278L13.3471 155.431L13.1784 155.586L13.0119 155.744L12.8469 155.903L12.6835 156.064L12.5222 156.228L12.363 156.393L12.2055 156.559L12.0501 156.728L11.8967 156.899L11.7456 157.071L11.5965 157.245L11.449 157.421L11.3037 157.599L11.1604 157.779L11.0193 157.96L10.8809 158.143L10.744 158.328L10.6093 158.514L10.4772 158.702L10.3472 158.892L10.2188 159.084L10.0931 159.276L9.96946 159.471L9.84854 159.667V159.667L9.7297 159.865L9.6135 160.064L9.49947 160.264L9.38804 160.466V160.466L9.27826 160.669L9.17108 160.874V160.875L9.06658 161.081V161.081L8.96473 161.289V161.289L8.86501 161.498L8.76792 161.709L8.67348 161.92V161.921L8.58116 162.134L8.49097 162.348V162.349L8.40399 162.564V162.565L8.31913 162.782L8.23743 163V163L8.15786 163.22V163.22L8.08092 163.441L8.00663 163.662V163.663L7.93504 163.886V163.886L7.86608 164.11V164.111L7.80029 164.336V164.336L7.73662 164.563V164.563L7.67616 164.79V164.791L7.61835 165.019V165.019L7.56369 165.249V165.249L7.51168 165.48V165.48L7.46236 165.712L7.41568 165.945V165.946L7.37165 166.179V166.18L7.33083 166.414V166.415L7.29311 166.65V166.65L7.25814 166.887V166.887L7.22576 167.124V167.125L7.1966 167.363V167.364L7.17059 167.602V167.603L7.1478 167.843V167.843L7.12764 168.084V168.085L7.11065 168.326V168.327L7.09687 168.569V168.57L7.08573 168.813V168.813L7.07827 169.057V169.058L7.07351 169.302V169.303L7.0719 169.548V169.548C7.0719 174.795 9.22093 179.567 12.6819 183.028C16.1428 186.489 20.9151 188.638 26.1617 188.638H37.2665V169.548L37.2697 169.542ZM67.5163 195.032V214.8L52.3935 202.795L37.2702 214.8V195.032H26.1654C19.1528 195.032 12.779 192.165 8.16102 187.547C3.54307 182.929 0.675781 176.555 0.675781 169.542V25.9062C0.675781 18.8931 3.54256 12.5197 8.1605 7.90127C12.7784 3.2828 19.1523 0.416016 26.1654 0.416016H144.71V144.052V150.453V195.033H67.5163V195.032Z" fill="#A3523B"/>
</svg>
