<svg  viewBox="0 0 154 197" fill="none" xmlns="http://www.w3.org/2000/svg">
<path fill-rule="evenodd" clip-rule="evenodd" d="M77.6132 0.893555L153.574 21.2475V108.791C153.574 122.495 150.161 135.258 143.769 146.331V146.344C137.39 157.392 128.04 166.723 116.151 173.589L116.155 173.594L76.7872 196.323L37.4209 173.594L37.4241 173.589C25.5347 166.723 16.1853 157.392 9.80608 146.344C3.41364 135.272 0.000976562 122.504 0.000976562 108.791V21.248L75.9623 0.894086H77.6126L77.6132 0.893555Z" fill="#FF7955"/>
<path fill-rule="evenodd" clip-rule="evenodd" d="M78.5596 82.4425L80.289 73.796L82.0179 82.4425C85.2115 98.4119 97.6945 110.895 113.664 114.089L122.31 115.818L113.664 117.547C97.6951 120.74 85.212 133.223 82.0179 149.193L80.289 157.839L78.5596 149.193C75.3661 133.224 62.883 120.741 46.9136 117.547L38.2671 115.818L46.9136 114.089C62.883 110.895 75.3661 98.4119 78.5596 82.4425ZM147.173 26.1493L76.7873 7.28918L6.40093 26.1493V108.791C6.40093 121.381 9.50855 133.06 15.3302 143.143C21.164 153.247 29.7209 161.784 40.6071 168.069H40.6198L76.7867 188.95L112.954 168.069H112.966C123.853 161.784 132.41 153.248 138.244 143.143L138.249 143.146C144.067 133.065 147.173 121.386 147.173 108.791V26.1493ZM77.6122 0.893555L153.573 21.2475V108.791C153.573 122.495 150.16 135.258 143.768 146.331V146.344C137.389 157.392 128.039 166.723 116.15 173.589L116.154 173.594L76.7862 196.323L37.4199 173.594L37.4231 173.589C25.5337 166.723 16.1843 157.392 9.8051 146.344C3.41266 135.272 0 122.504 0 108.791V21.248L75.9613 0.894086H77.6116L77.6122 0.893555ZM114.731 48.6639L115.307 45.7823L115.883 48.6639C116.948 53.9874 121.108 58.1481 126.432 59.2128L129.314 59.7889L126.432 60.3655C121.109 61.4297 116.948 65.5909 115.883 70.9144L115.307 73.796L114.731 70.9144C113.666 65.5909 109.505 61.4302 104.182 60.3655L101.3 59.7889L104.182 59.2128C109.505 58.1481 113.666 53.9874 114.731 48.6639ZM44.4065 43.1017L45.2712 38.7782L46.1354 43.1017C47.7327 51.0861 53.9739 57.3274 61.9589 58.9247L66.2819 59.7889L61.9589 60.6536C53.9739 62.2504 47.7327 68.4921 46.1354 76.4771L45.2712 80.8001L44.4065 76.4771C42.8097 68.4921 36.5679 62.2504 28.5835 60.6536L24.2605 59.7889L28.5835 58.9247C36.5679 57.3274 42.8097 51.0861 44.4065 43.1017Z" fill="#A3523B"/>
</svg>
