<svg  viewBox="0 0 171 196" fill="none" xmlns="http://www.w3.org/2000/svg">
<path fill-rule="evenodd" clip-rule="evenodd" d="M111.734 19.2905C123.551 31.1077 130.86 47.4331 130.86 65.4646C130.86 83.2626 123.738 99.3986 112.19 111.178V136.97H126.261V138.293C134.756 129.081 141.559 118.551 146.457 107.195C150.642 97.491 153.434 87.1835 154.7 76.58C152.915 75.9673 151.316 74.954 150.008 73.6469L149.996 73.6341C147.776 71.4146 146.403 68.351 146.403 64.9738C146.403 61.5962 147.776 58.5337 149.996 56.3141L150.008 56.3014C152.228 54.0818 155.292 52.7083 158.669 52.7083C162.046 52.7083 165.109 54.0818 167.328 56.3014L167.341 56.3141C169.561 58.5337 170.934 61.5962 170.934 64.9738C170.934 68.3515 169.561 71.4146 167.341 73.6341L167.328 73.6469C165.654 75.3206 163.5 76.5131 161.093 76.9985C159.773 88.3299 156.805 99.3482 152.331 109.719C146.282 123.746 137.471 136.591 126.261 147.425V195.052H4.86024V136.969H8.06019H18.931V111.178C7.38221 99.3991 0.259766 83.2626 0.259766 65.4646C0.259766 47.4326 7.56948 31.1077 19.3862 19.2905C31.2035 7.47319 47.5289 0.164062 65.5603 0.164062C83.5918 0.164062 99.9171 7.47372 111.734 19.2905Z" fill="#FF7955"/>
<path d="M8.06019 136.969H18.931V111.178C7.38221 99.3991 0.259766 83.2626 0.259766 65.4646C0.259766 47.4326 7.56948 31.1077 19.3862 19.2905C31.2035 7.47319 47.5289 0.164062 65.5603 0.164062C83.5918 0.164062 99.9171 7.47372 111.734 19.2905C123.551 31.1077 130.86 47.4331 130.86 65.4646C130.86 83.2626 123.738 99.3986 112.19 111.178V136.97H126.261V138.293C134.756 129.081 141.559 118.551 146.457 107.195C150.642 97.491 153.434 87.1835 154.7 76.58C152.915 75.9673 151.316 74.954 150.008 73.6469L149.996 73.6341C147.776 71.4146 146.403 68.351 146.403 64.9738C146.403 61.5962 147.776 58.5337 149.996 56.3141L150.008 56.3014C152.228 54.0818 155.292 52.7083 158.669 52.7083C162.046 52.7083 165.109 54.0818 167.328 56.3014L167.341 56.3141C169.561 58.5337 170.934 61.5962 170.934 64.9738C170.934 68.3515 169.561 71.4146 167.341 73.6341L167.328 73.6469C165.654 75.3206 163.5 76.5131 161.093 76.9985C159.773 88.3299 156.805 99.3482 152.331 109.719C146.282 123.746 137.471 136.591 126.261 147.425V195.052H4.86024V136.969H8.06019ZM162.822 60.8201C161.763 59.7628 160.294 59.1087 158.669 59.1087C157.043 59.1087 155.575 59.7628 154.514 60.8201C153.457 61.88 152.803 63.3489 152.803 64.9738C152.803 66.5993 153.457 68.0677 154.514 69.1281C155.574 70.1854 157.043 70.8395 158.669 70.8395C160.294 70.8395 161.762 70.1854 162.822 69.1281C163.88 68.0682 164.534 66.5993 164.534 64.9738C164.534 63.3489 163.88 61.8805 162.822 60.8201ZM74.7187 149.977L69.5693 166.01H77.5861L56.4024 182.044L61.5524 166.01H53.5357L74.7193 149.977H74.7187ZM65.5603 53.1985C68.938 53.1985 72.0005 54.5719 74.2201 56.7915L74.2329 56.8043C76.4524 59.0238 77.8258 62.0869 77.8258 65.4646C77.8258 68.8422 76.4524 71.9047 74.2329 74.1243L74.2201 74.1371C72.0005 76.3566 68.938 77.7301 65.5603 77.7301C62.1827 77.7301 59.1196 76.3566 56.9 74.1371L56.8873 74.1243C54.6677 71.9047 53.2942 68.8422 53.2942 65.4646C53.2942 62.0864 54.6677 59.0238 56.8873 56.8043L56.9 56.7915C59.1196 54.5719 62.1832 53.1985 65.5603 53.1985ZM69.714 61.3103C68.6541 60.253 67.1852 59.5989 65.5603 59.5989C63.9349 59.5989 62.4665 60.253 61.406 61.3103C60.3487 62.3702 59.6947 63.8391 59.6947 65.4646C59.6947 67.09 60.3487 68.5579 61.406 69.6183C62.4659 70.6756 63.9349 71.3297 65.5603 71.3297C67.1852 71.3297 68.6536 70.6756 69.714 69.6183C70.7713 68.5584 71.4254 67.09 71.4254 65.4646C71.4254 63.8391 70.7713 62.3707 69.714 61.3103ZM25.3315 116.904V136.969H105.789V116.903C94.7014 125.587 80.7351 130.765 65.5603 130.765C50.3856 130.765 36.4193 125.587 25.3315 116.904ZM107.209 23.815C96.5512 13.1569 81.8258 6.56393 65.5603 6.56393C49.2949 6.56393 34.5695 13.1564 23.9114 23.815C13.2532 34.4732 6.66018 49.1986 6.66018 65.464C6.66018 81.7295 13.2527 96.4544 23.9114 107.113C34.5695 117.771 49.2954 124.364 65.5603 124.364C81.8258 124.364 96.5507 117.772 107.209 107.113C117.867 96.4549 124.46 81.7295 124.46 65.464C124.46 49.1986 117.868 34.4732 107.209 23.815ZM119.861 143.37H112.19H108.99H18.9316H11.2607V188.652H119.861V143.37H119.861Z" fill="#A3523B"/>
</svg>
