<svg viewBox="0 0 150 224" fill="none" xmlns="http://www.w3.org/2000/svg">
<path fill-rule="evenodd" clip-rule="evenodd" d="M122.945 45.6372L134.029 157.467H139.616V177.25H147.067V204.918V211.319V223.217H143.867H3.03255V211.319V204.918V177.25H10.4833V157.467H16.0694L27.1545 45.6372C27.6421 40.7153 29.9433 36.3908 33.3618 33.2948C36.7851 30.1941 41.3134 28.3283 46.2512 28.3283H103.849C108.787 28.3283 113.315 30.1941 116.738 33.2948C120.156 36.3908 122.458 40.7153 122.946 45.6372H122.945ZM131.358 27.6923L149.569 26.7925L149.869 33.1669L131.658 34.0667L131.358 27.6923ZM119.979 0L120.879 18.2113L114.504 18.5116L113.605 0.300259L119.979 0ZM141.796 10.3833L129.555 23.8966L124.83 19.6219L137.071 6.10863L141.796 10.3833ZM36.4949 0.300259L35.5953 18.5116L29.2209 18.2113L30.1205 0L36.4949 0.300259ZM13.0291 6.10863L25.2697 19.6219L20.5446 23.8966L8.30401 10.3833L13.0291 6.10863ZM0.530736 26.7925L18.742 27.6923L18.4417 34.0667L0.230469 33.1669L0.530736 26.7925Z" fill="#FF7955"/>
<path d="M9.43251 204.918H140.666V183.65H139.615H136.416H10.4828H9.43251V204.918ZM149.869 33.1669L131.657 34.0667L131.357 27.6923L149.569 26.7925L149.869 33.1669ZM119.979 0L120.878 18.2113L114.504 18.5116L113.604 0.300259L119.979 0ZM141.795 10.3833L129.555 23.8966L124.83 19.6219L137.07 6.10863L141.795 10.3833ZM0.529759 26.7925L18.741 27.6923L18.4407 34.0667L0.229492 33.1669L0.529759 26.7925ZM36.494 0.300259L35.5942 18.5116L29.2199 18.2113L30.1196 0L36.494 0.300259ZM13.0282 6.10863L25.2688 19.6219L20.5436 23.8966L8.30303 10.3833L13.0282 6.10863ZM127.618 157.467L116.595 46.2627C116.268 42.9673 114.736 40.0793 112.463 38.0204C110.194 35.9658 107.169 34.7287 103.848 34.7287H46.2503C42.9294 34.7287 39.904 35.9658 37.6356 38.0204C35.3619 40.0793 33.8299 42.9673 33.5036 46.2627L22.4805 157.467H127.618ZM16.069 157.467L27.1541 45.6372C27.6416 40.7153 29.9429 36.3908 33.3614 33.2948C36.7846 30.1941 41.313 28.3283 46.2508 28.3283H103.849C108.786 28.3283 113.315 30.1941 116.738 33.2948C120.156 36.3908 122.458 40.7153 122.945 45.6372L134.03 157.467H139.617V177.25H147.067V204.918V211.319V223.217H143.867H3.03313V211.319V204.918V177.25H10.4839V157.467H16.07H16.069ZM9.43251 216.816H140.666V211.319H9.43251V216.816ZM133.216 177.25V163.867H131.141H16.8832V177.25H133.216Z" fill="#A3523B"/>
</svg>
