<svg viewBox="0 0 268 196" fill="none" xmlns="http://www.w3.org/2000/svg">
<path fill-rule="evenodd" clip-rule="evenodd" d="M201.65 41.6538V86.6301H166.677V94.492H226.494C227.184 90.0114 229.299 86.0004 232.362 82.9379C236.138 79.1618 241.356 76.8255 247.117 76.8255C252.878 76.8255 258.095 79.1618 261.871 82.9379C265.647 86.7139 267.984 91.9308 267.984 97.6924C267.984 103.454 265.647 108.671 261.871 112.447C258.095 116.223 252.878 118.559 247.117 118.559C241.356 118.559 236.138 116.223 232.362 112.447C229.299 109.384 227.184 105.373 226.494 100.893H166.677V101.871C166.677 104.177 166.447 106.422 165.999 108.587H201.65V153.563C206.13 154.254 210.141 156.369 213.204 159.432C216.98 163.208 219.316 168.425 219.316 174.186C219.316 179.947 216.98 185.165 213.204 188.941C209.428 192.717 204.211 195.053 198.449 195.053C192.688 195.053 187.471 192.717 183.695 188.941C179.919 185.165 177.582 179.947 177.582 174.186C177.582 168.425 179.919 163.208 183.695 159.432C186.758 156.369 190.769 154.254 195.249 153.563V114.988H163.936C163.507 115.946 163.03 116.881 162.505 117.791V117.803C159.794 122.5 155.829 126.461 150.798 129.366H150.785L134.143 138.974L117.501 129.366H117.489C112.468 126.466 108.505 122.505 105.787 117.8L105.782 117.803C105.255 116.891 104.775 115.952 104.345 114.989H73.0376V153.564C77.5181 154.255 81.5292 156.37 84.5917 159.433C88.3677 163.209 90.704 168.426 90.704 174.187C90.704 179.949 88.3677 185.166 84.5917 188.942C80.8156 192.718 75.5988 195.054 69.8371 195.054C64.0759 195.054 58.8585 192.718 55.0825 188.942C51.3065 185.166 48.9702 179.949 48.9702 174.187C48.9702 168.426 51.3065 163.209 55.0825 159.433C58.1456 156.37 62.1566 154.255 66.6366 153.564V108.588H102.286C101.839 106.424 101.609 104.179 101.609 101.872V100.894H41.7926C41.1024 105.374 38.9873 109.386 35.9242 112.448C32.1482 116.224 26.9313 118.56 21.1697 118.56C15.4085 118.56 10.1911 116.224 6.41506 112.448C2.63901 108.672 0.302734 103.455 0.302734 97.6935C0.302734 91.9318 2.63901 86.715 6.41506 82.9389C10.1911 79.1629 15.4085 76.8266 21.1697 76.8266C26.9313 76.8266 32.1482 79.1629 35.9242 82.9389C38.9873 86.002 41.1024 90.0125 41.7926 94.493H101.609V86.6311H66.6366V41.6549C62.1566 40.9647 58.145 38.8496 55.0825 35.7866C51.3065 32.0105 48.9702 26.7931 48.9702 21.032C48.9702 15.2703 51.3065 10.0534 55.0825 6.27738C58.8585 2.50133 64.0759 0.165039 69.8371 0.165039C75.5988 0.165039 80.8156 2.50133 84.5917 6.27738C88.3677 10.0534 90.704 15.2703 90.704 21.032C90.704 26.7931 88.3677 32.0105 84.5917 35.7866C81.5286 38.8496 77.5181 40.9647 73.0376 41.6549V80.2307H101.61V65.5005L133.318 57.0042H134.968L166.676 65.5005V80.2307H195.249V41.6549C190.769 40.9647 186.757 38.8496 183.695 35.7866C179.919 32.0105 177.582 26.7931 177.582 21.032C177.582 15.2703 179.919 10.0534 183.695 6.27738C187.471 2.50133 192.688 0.165039 198.449 0.165039C204.211 0.165039 209.428 2.50133 213.204 6.27738C216.98 10.0534 219.316 15.2703 219.316 21.032C219.316 26.7931 216.98 32.0105 213.204 35.7866C210.141 38.8496 206.13 40.9647 201.65 41.6549V41.6538Z" fill="#FF7955"/>
<path d="M69.8376 188.652C73.8328 188.652 77.4497 187.033 80.0671 184.415C82.6846 181.798 84.3042 178.18 84.3042 174.186C84.3042 170.191 82.6851 166.574 80.0671 163.956C77.4497 161.339 73.8328 159.719 69.8376 159.719C65.8425 159.719 62.2256 161.338 59.6081 163.956C56.9907 166.574 55.3711 170.191 55.3711 174.186C55.3711 178.181 56.9901 181.798 59.6081 184.415C62.2256 187.033 65.843 188.652 69.8376 188.652ZM247.117 83.2259C243.122 83.2259 239.505 84.845 236.887 87.463C234.27 90.0804 232.65 93.6973 232.65 97.6924C232.65 101.688 234.269 105.304 236.887 107.922C239.505 110.539 243.122 112.159 247.117 112.159C251.112 112.159 254.729 110.54 257.346 107.922C259.964 105.304 261.583 101.687 261.583 97.6924C261.583 93.6973 259.964 90.0804 257.346 87.463C254.729 84.8455 251.112 83.2259 247.117 83.2259ZM232.362 82.9379C236.138 79.1618 241.356 76.8255 247.117 76.8255C252.878 76.8255 258.095 79.1618 261.871 82.9379C265.647 86.7139 267.984 91.9308 267.984 97.6924C267.984 103.454 265.647 108.671 261.871 112.447C258.095 116.223 252.878 118.559 247.117 118.559C241.356 118.559 236.138 116.223 232.362 112.447C229.299 109.384 227.184 105.373 226.494 100.893H166.677V101.871C166.677 104.177 166.447 106.422 165.999 108.587H201.65V153.563C206.13 154.254 210.141 156.369 213.204 159.432C216.98 163.208 219.316 168.425 219.316 174.186C219.316 179.947 216.98 185.165 213.204 188.941C209.428 192.717 204.211 195.053 198.449 195.053C192.688 195.053 187.471 192.717 183.695 188.941C179.919 185.165 177.582 179.947 177.582 174.186C177.582 168.425 179.919 163.208 183.695 159.432C186.758 156.369 190.769 154.254 195.249 153.563V114.988H163.936C163.507 115.946 163.03 116.881 162.505 117.791V117.803C159.794 122.5 155.829 126.461 150.798 129.366H150.785L134.143 138.974L117.501 129.366H117.489C112.468 126.466 108.505 122.505 105.787 117.8L105.782 117.803C105.255 116.891 104.775 115.952 104.345 114.989H73.0376V153.564C77.5181 154.255 81.5292 156.37 84.5917 159.433C88.3677 163.209 90.704 168.426 90.704 174.187C90.704 179.949 88.3677 185.166 84.5917 188.942C80.8156 192.718 75.5988 195.054 69.8371 195.054C64.0759 195.054 58.8585 192.718 55.0825 188.942C51.3065 185.166 48.9702 179.949 48.9702 174.187C48.9702 168.426 51.3065 163.209 55.0825 159.433C58.1456 156.37 62.1566 154.255 66.6366 153.564V108.588H102.286C101.839 106.424 101.609 104.179 101.609 101.872V100.894H41.7926C41.1024 105.374 38.9873 109.386 35.9242 112.448C32.1482 116.224 26.9313 118.56 21.1697 118.56C15.4085 118.56 10.1911 116.224 6.41506 112.448C2.63901 108.672 0.302734 103.455 0.302734 97.6935C0.302734 91.9318 2.63901 86.715 6.41506 82.9389C10.1911 79.1629 15.4085 76.8266 21.1697 76.8266C26.9313 76.8266 32.1482 79.1629 35.9242 82.9389C38.9873 86.002 41.1024 90.0125 41.7926 94.493H101.609V86.6311H66.6366V41.6549C62.1566 40.9647 58.145 38.8496 55.0825 35.7866C51.3065 32.0105 48.9702 26.7931 48.9702 21.032C48.9702 15.2703 51.3065 10.0534 55.0825 6.27738C58.8585 2.50133 64.0759 0.165039 69.8371 0.165039C75.5988 0.165039 80.8156 2.50133 84.5917 6.27738C88.3677 10.0534 90.704 15.2703 90.704 21.032C90.704 26.7931 88.3677 32.0105 84.5917 35.7866C81.5286 38.8496 77.5181 40.9647 73.0376 41.6549V80.2307H101.61V65.5005L133.318 57.0042H134.968L166.676 65.5005V80.2307H195.249V41.6549C190.769 40.9647 186.757 38.8496 183.695 35.7866C179.919 32.0105 177.582 26.7931 177.582 21.032C177.582 15.2703 179.919 10.0534 183.695 6.27738C187.471 2.50133 192.688 0.165039 198.449 0.165039C204.211 0.165039 209.428 2.50133 213.204 6.27738C216.98 10.0534 219.316 15.2703 219.316 21.032C219.316 26.7931 216.98 32.0105 213.204 35.7866C210.141 38.8496 206.13 40.9647 201.65 41.6549V86.6311H166.677V94.493H226.494C227.184 90.0125 229.299 86.0014 232.362 82.9389V82.9379ZM31.4002 87.463C28.7828 84.8455 25.1659 83.2259 21.1707 83.2259C17.1756 83.2259 13.5587 84.845 10.9412 87.463C8.32379 90.0804 6.70419 93.6973 6.70419 97.6924C6.70419 101.688 8.32326 105.304 10.9412 107.922C13.5587 110.539 17.1761 112.159 21.1707 112.159C25.1659 112.159 28.7828 110.54 31.4002 107.922C34.0177 105.304 35.6373 101.687 35.6373 97.6924C35.6373 93.6973 34.0182 90.0804 31.4002 87.463ZM188.22 184.416C190.837 187.033 194.455 188.653 198.449 188.653C202.444 188.653 206.061 187.034 208.679 184.416C211.296 181.798 212.916 178.181 212.916 174.186C212.916 170.191 211.297 166.574 208.679 163.957C206.061 161.339 202.444 159.72 198.449 159.72C194.454 159.72 190.837 161.339 188.22 163.957C185.602 166.574 183.983 170.191 183.983 174.186C183.983 178.181 185.602 181.798 188.22 184.416ZM198.449 6.5649C194.454 6.5649 190.837 8.18397 188.22 10.802C185.602 13.4194 183.983 17.0363 183.983 21.0314C183.983 25.0266 185.602 28.6435 188.22 31.2609C190.837 33.8784 194.455 35.498 198.449 35.498C202.444 35.498 206.061 33.8789 208.679 31.2609C211.296 28.6435 212.916 25.0261 212.916 21.0314C212.916 17.0363 211.297 13.4194 208.679 10.802C206.061 8.1845 202.444 6.5649 198.449 6.5649ZM80.0671 10.802C77.4497 8.1845 73.8328 6.5649 69.8376 6.5649C65.8425 6.5649 62.2256 8.18397 59.6081 10.802C56.9907 13.4194 55.3711 17.0363 55.3711 21.0314C55.3711 25.0266 56.9901 28.6435 59.6081 31.2609C62.2256 33.8784 65.843 35.498 69.8376 35.498C73.8328 35.498 77.4497 33.8789 80.0671 31.2609C82.6846 28.6435 84.3042 25.0261 84.3042 21.0314C84.3042 17.0363 82.6851 13.4194 80.0671 10.802Z" fill="#A3523B"/>
</svg>
