<svg viewBox="0 0 155 197" fill="none" xmlns="http://www.w3.org/2000/svg">
<path fill-rule="evenodd" clip-rule="evenodd" d="M78.327 0.893555L154.288 21.2475V108.791C154.288 122.495 150.875 135.258 144.483 146.331V146.344C138.104 157.392 128.754 166.723 116.865 173.589L116.868 173.594L77.501 196.323L38.1348 173.594L38.1379 173.589C26.2485 166.723 16.8991 157.392 10.5199 146.344C4.12751 135.272 0.714844 122.504 0.714844 108.791V21.248L76.6761 0.894086H78.3265L78.327 0.893555Z" fill="#FF7955"/>
<path d="M147.887 26.1493L77.5011 7.28918L7.1148 26.1493V108.791C7.1148 121.381 10.2224 133.06 16.0441 143.143C21.8779 153.247 30.4347 161.784 41.3209 168.069H41.3337L77.5005 188.95L113.667 168.069H113.68C124.566 161.784 133.124 153.248 138.958 143.143L138.963 143.146C144.781 133.065 147.887 121.386 147.887 108.791V26.1493ZM101.093 57.0043L87.8266 98.309H108.479L53.9074 139.614L67.174 98.309H46.5219L101.093 57.0043ZM78.326 0.893555L154.287 21.2475V108.791C154.287 122.495 150.874 135.258 144.482 146.331V146.344C138.103 157.392 128.753 166.723 116.864 173.589L116.867 173.594L77.5 196.323L38.1337 173.594L38.1369 173.589C26.2475 166.723 16.8981 157.392 10.519 146.344C4.12653 135.272 0.713867 122.504 0.713867 108.791V21.248L76.6752 0.894086H78.3255L78.326 0.893555Z" fill="#A3523B"/>
</svg>
