<svg  viewBox="0 0 151 224" fill="none" xmlns="http://www.w3.org/2000/svg">
<path d="M9.76649 205.039H141V183.771H139.949H136.75H10.8168H9.76649V205.039ZM150.203 33.288L131.991 34.1878L131.691 27.8134L149.903 26.9137L150.203 33.288ZM120.313 0.121094L121.212 18.3324L114.838 18.6327L113.938 0.421361L120.313 0.121094ZM142.129 10.5044L129.889 24.0177L125.164 19.743L137.404 6.22971L142.129 10.5044ZM0.863744 26.9137L19.075 27.8134L18.7747 34.1878L0.563477 33.288L0.863744 26.9137ZM36.828 0.421361L35.9282 18.6327L29.5539 18.3324L30.4535 0.121094L36.828 0.421361ZM13.3621 6.22971L25.6027 19.743L20.8776 24.0177L8.63702 10.5044L13.3621 6.22971ZM127.952 157.588L116.929 46.3838C116.602 43.0884 115.07 40.2004 112.797 38.1415C110.528 36.0869 107.503 34.8498 104.182 34.8498H46.5843C43.2634 34.8498 40.2379 36.0869 37.9695 38.1415C35.6959 40.2004 34.1639 43.0884 33.8376 46.3838L22.8144 157.588H127.952ZM16.4029 157.588L27.4881 45.7584C27.9756 40.8364 30.2769 36.5119 33.6953 33.4159C37.1186 30.3152 41.6469 28.4494 46.5848 28.4494H104.183C109.12 28.4494 113.649 30.3152 117.072 33.4159C120.49 36.5119 122.792 40.8364 123.279 45.7584L134.364 157.588H139.95V177.371H147.401V205.039V211.44V223.338H144.201H3.36711V211.44V205.039V177.371H10.8178V157.588H16.404H16.4029ZM9.76649 216.937H141V211.44H9.76649V216.937ZM133.55 177.371V163.988H131.475H17.2172V177.371H133.55Z" fill="#373435"/>
</svg>
