<svg viewBox="0 0 171 196" fill="none" xmlns="http://www.w3.org/2000/svg">
<path d="M7.92737 137.254H18.7982V111.463C7.2494 99.6843 0.126953 83.5477 0.126953 65.7497C0.126953 47.7177 7.43667 31.3929 19.2534 19.5756C31.0707 7.75835 47.396 0.449219 65.4274 0.449219C83.4589 0.449219 99.7843 7.75888 111.601 19.5756C123.418 31.3929 130.727 47.7183 130.727 65.7497C130.727 83.5477 123.606 99.6838 112.057 111.463V137.255H126.128V138.578C134.623 129.366 141.426 118.836 146.324 107.48C150.51 97.7761 153.301 87.4686 154.567 76.8651C152.782 76.2524 151.183 75.2392 149.876 73.932L149.863 73.9193C147.643 71.6997 146.27 68.6361 146.27 65.259C146.27 61.8814 147.643 58.8188 149.863 56.5993L149.876 56.5865C152.095 54.3669 155.159 52.9935 158.536 52.9935C161.914 52.9935 164.976 54.3669 167.196 56.5865L167.208 56.5993C169.428 58.8188 170.801 61.8814 170.801 65.259C170.801 68.6367 169.428 71.6997 167.208 73.9193L167.196 73.932C165.521 75.6057 163.368 76.7983 160.96 77.2837C159.64 88.615 156.672 99.6334 152.199 110.005C146.149 124.031 137.338 136.877 126.128 147.71V195.337H4.72743V137.254H7.92737ZM162.69 61.1053C161.63 60.048 160.161 59.3939 158.536 59.3939C156.91 59.3939 155.442 60.048 154.382 61.1053C153.324 62.1652 152.67 63.6341 152.67 65.259C152.67 66.8844 153.324 68.3528 154.382 69.4133C155.441 70.4706 156.91 71.1247 158.536 71.1247C160.161 71.1247 161.629 70.4706 162.69 69.4133C163.747 68.3534 164.401 66.8844 164.401 65.259C164.401 63.6341 163.747 62.1657 162.69 61.1053ZM74.5859 150.262L69.4364 166.296H77.4532L56.2696 182.329L61.4196 166.296H53.4027L74.5864 150.262H74.5859ZM65.4274 53.4837C68.8051 53.4837 71.8676 54.8571 74.0872 57.0767L74.0999 57.0894C76.3195 59.309 77.693 62.3721 77.693 65.7497C77.693 69.1274 76.3195 72.1899 74.0999 74.4095L74.0872 74.4222C71.8676 76.6418 68.8051 78.0153 65.4274 78.0153C62.0498 78.0153 58.9867 76.6418 56.7671 74.4222L56.7544 74.4095C54.5348 72.1899 53.1614 69.1274 53.1614 65.7497C53.1614 62.3715 54.5348 59.309 56.7544 57.0894L56.7671 57.0767C58.9867 54.8571 62.0503 53.4837 65.4274 53.4837ZM69.5812 61.5954C68.5213 60.5381 67.0523 59.8841 65.4274 59.8841C63.802 59.8841 62.3337 60.5381 61.2732 61.5954C60.2159 62.6553 59.5618 64.1243 59.5618 65.7497C59.5618 67.3751 60.2159 68.843 61.2732 69.9035C62.3331 70.9608 63.802 71.6148 65.4274 71.6148C67.0523 71.6148 68.5208 70.9608 69.5812 69.9035C70.6385 68.8436 71.2926 67.3751 71.2926 65.7497C71.2926 64.1243 70.6385 62.6559 69.5812 61.5954ZM25.1985 117.189V137.254H105.656V117.188C94.5685 125.872 80.6022 131.05 65.4274 131.05C50.2527 131.05 36.2864 125.873 25.1985 117.189ZM107.077 24.1002C96.4184 13.4421 81.6929 6.84909 65.4274 6.84909C49.162 6.84909 34.4366 13.4415 23.7784 24.1002C13.1203 34.7583 6.52737 49.4838 6.52737 65.7492C6.52737 82.0146 13.1198 96.7395 23.7784 107.398C34.4366 118.056 49.1625 124.649 65.4274 124.649C81.6929 124.649 96.4178 118.057 107.077 107.398C117.735 96.7401 124.328 82.0146 124.328 65.7492C124.328 49.4838 117.735 34.7583 107.077 24.1002ZM119.728 143.655H112.057H108.857H18.7987H11.1278V188.937H119.728V143.655H119.728Z" fill="#373435"/>
</svg>
