<svg  viewBox="0 0 269 196" fill="none" xmlns="http://www.w3.org/2000/svg">
<path d="M70.2381 188.938C74.2332 188.938 77.8501 187.318 80.4676 184.7C83.085 182.083 84.7046 178.466 84.7046 174.471C84.7046 170.476 83.0855 166.859 80.4676 164.241C77.8501 161.624 74.2332 160.004 70.2381 160.004C66.2429 160.004 62.626 161.623 60.0086 164.241C57.3911 166.859 55.7715 170.476 55.7715 174.471C55.7715 178.466 57.3906 182.083 60.0086 184.7C62.626 187.318 66.2434 188.938 70.2381 188.938ZM247.517 83.5111C243.522 83.5111 239.905 85.1301 237.288 87.7481C234.67 90.3656 233.051 93.9825 233.051 97.9776C233.051 101.973 234.67 105.59 237.288 108.207C239.905 110.825 243.522 112.444 247.517 112.444C251.512 112.444 255.129 110.825 257.747 108.207C260.364 105.59 261.984 101.972 261.984 97.9776C261.984 93.9825 260.365 90.3656 257.747 87.7481C255.129 85.1307 251.512 83.5111 247.517 83.5111ZM232.763 83.223C236.539 79.447 241.756 77.1106 247.517 77.1106C253.279 77.1106 258.496 79.447 262.272 83.223C266.048 86.9991 268.384 92.2159 268.384 97.9776C268.384 103.739 266.048 108.956 262.272 112.732C258.496 116.508 253.279 118.845 247.517 118.845C241.756 118.845 236.539 116.508 232.763 112.732C229.699 109.669 227.584 105.658 226.894 101.178H167.077V102.156C167.077 104.462 166.847 106.707 166.399 108.872H202.05V153.849C206.531 154.539 210.542 156.654 213.604 159.717C217.38 163.493 219.717 168.71 219.717 174.471C219.717 180.233 217.38 185.45 213.604 189.226C209.828 193.002 204.611 195.338 198.85 195.338C193.088 195.338 187.871 193.002 184.095 189.226C180.319 185.45 177.983 180.233 177.983 174.471C177.983 168.71 180.319 163.493 184.095 159.717C187.158 156.654 191.169 154.539 195.649 153.849V115.273H164.336C163.908 116.231 163.43 117.167 162.906 118.076V118.089C160.194 122.785 156.23 126.746 151.199 129.651H151.186L134.543 139.259L117.902 129.651H117.889C112.868 126.752 108.906 122.79 106.187 118.085L106.182 118.089C105.655 117.176 105.176 116.237 104.746 115.274H73.438V153.85C77.9185 154.54 81.9295 156.655 84.9921 159.718C88.7681 163.494 91.1045 168.711 91.1045 174.473C91.1045 180.234 88.7681 185.451 84.9921 189.227C81.216 193.003 75.9992 195.339 70.2375 195.339C64.4763 195.339 59.2589 193.003 55.4829 189.227C51.7068 185.451 49.3706 180.234 49.3706 174.473C49.3706 168.711 51.7068 163.494 55.4829 159.718C58.546 156.655 62.557 154.54 67.037 153.85V108.873H102.687C102.24 106.709 102.01 104.464 102.01 102.157V101.179H42.193C41.5028 105.659 39.3878 109.671 36.3247 112.733C32.5486 116.509 27.3318 118.846 21.5701 118.846C15.8089 118.846 10.5916 116.509 6.8155 112.733C3.03945 108.957 0.703125 103.74 0.703125 97.9787C0.703125 92.217 3.03945 87.0001 6.8155 83.2241C10.5916 79.448 15.8089 77.1117 21.5701 77.1117C27.3318 77.1117 32.5486 79.448 36.3247 83.2241C39.3878 86.2871 41.5028 90.2976 42.193 94.7782H102.01V86.9163H67.037V41.94C62.557 41.2499 58.5454 39.1348 55.4829 36.0717C51.7068 32.2957 49.3706 27.0783 49.3706 21.3171C49.3706 15.5554 51.7068 10.3386 55.4829 6.56252C59.2589 2.78647 64.4763 0.450195 70.2375 0.450195C75.9992 0.450195 81.216 2.78647 84.9921 6.56252C88.7681 10.3386 91.1045 15.5554 91.1045 21.3171C91.1045 27.0783 88.7681 32.2957 84.9921 36.0717C81.929 39.1348 77.9185 41.2499 73.438 41.94V80.5159H102.01V65.7857L133.718 57.2893H135.369L167.077 65.7857V80.5159H195.649V41.94C191.169 41.2499 187.158 39.1348 184.095 36.0717C180.319 32.2957 177.983 27.0783 177.983 21.3171C177.983 15.5554 180.319 10.3386 184.095 6.56252C187.871 2.78647 193.088 0.450195 198.85 0.450195C204.611 0.450195 209.828 2.78647 213.604 6.56252C217.38 10.3386 219.717 15.5554 219.717 21.3171C219.717 27.0783 217.38 32.2957 213.604 36.0717C210.541 39.1348 206.531 41.2499 202.05 41.94V86.9163H167.077V94.7782H226.894C227.584 90.2976 229.699 86.2866 232.763 83.2241V83.223ZM31.8006 87.7481C29.1832 85.1307 25.5663 83.5111 21.5711 83.5111C17.576 83.5111 13.9591 85.1301 11.3416 87.7481C8.72418 90.3656 7.10458 93.9825 7.10458 97.9776C7.10458 101.973 8.72365 105.59 11.3416 108.207C13.9591 110.825 17.5765 112.444 21.5711 112.444C25.5663 112.444 29.1832 110.825 31.8006 108.207C34.4181 105.59 36.0377 101.972 36.0377 97.9776C36.0377 93.9825 34.4186 90.3656 31.8006 87.7481ZM188.62 184.701C191.238 187.318 194.855 188.938 198.85 188.938C202.845 188.938 206.462 187.319 209.079 184.701C211.697 182.084 213.316 178.466 213.316 174.471C213.316 170.476 211.697 166.859 209.079 164.242C206.462 161.625 202.845 160.005 198.85 160.005C194.854 160.005 191.238 161.624 188.62 164.242C186.003 166.859 184.383 170.476 184.383 174.471C184.383 178.467 186.002 182.084 188.62 184.701ZM198.85 6.85004C194.854 6.85004 191.238 8.46911 188.62 11.0871C186.003 13.7045 184.383 17.3215 184.383 21.3166C184.383 25.3117 186.002 28.9286 188.62 31.5461C191.238 34.1635 194.855 35.7831 198.85 35.7831C202.845 35.7831 206.462 34.1641 209.079 31.5461C211.697 28.9286 213.316 25.3112 213.316 21.3166C213.316 17.3215 211.697 13.7045 209.079 11.0871C206.462 8.46964 202.845 6.85004 198.85 6.85004ZM80.4676 11.0871C77.8501 8.46964 74.2332 6.85004 70.2381 6.85004C66.2429 6.85004 62.626 8.46911 60.0086 11.0871C57.3911 13.7045 55.7715 17.3215 55.7715 21.3166C55.7715 25.3117 57.3906 28.9286 60.0086 31.5461C62.626 34.1635 66.2434 35.7831 70.2381 35.7831C74.2332 35.7831 77.8501 34.1641 80.4676 31.5461C83.085 28.9286 84.7046 25.3112 84.7046 21.3166C84.7046 17.3215 83.0855 13.7045 80.4676 11.0871Z" fill="#373435"/>
</svg>
