<svg viewBox="0 0 145 216" fill="none" xmlns="http://www.w3.org/2000/svg">
<path d="M26.0985 144.336H138.243V7.10059H26.0985C20.8519 7.10059 16.0796 9.24908 12.6187 12.7105C9.15773 16.1715 7.00927 20.9438 7.00927 26.1904V152.976L7.0257 152.957L7.05859 152.92L7.07502 152.902L7.09149 152.883L7.10791 152.865L7.12439 152.846L7.14081 152.828L7.15728 152.809L7.17371 152.791L7.19018 152.773L7.2066 152.754L7.22303 152.736L7.2395 152.718L7.248 152.708L7.25592 152.699L7.2724 152.681L7.28882 152.663L7.30581 152.645L7.32223 152.626L7.33871 152.608L7.35565 152.59L7.40606 152.536L7.42253 152.518L7.43947 152.5L7.45434 152.483L7.45646 152.481L7.47289 152.463L7.48988 152.445L7.50687 152.427L7.52329 152.409L7.57422 152.355L7.59121 152.337L7.6082 152.319L7.62514 152.302L7.64214 152.284L7.65913 152.266L7.66389 152.261L7.67664 152.248L7.69358 152.231L7.71057 152.213L7.81403 152.106L7.83097 152.089L7.84848 152.071L7.86599 152.054L7.87713 152.042L7.8835 152.036L7.90049 152.019L8.057 151.86L8.07451 151.842L8.09202 151.825L8.3095 151.61L8.52968 151.397L8.75244 151.188V151.187L8.9779 150.98L9.20548 150.776L9.43628 150.574L9.66863 150.375L9.90362 150.179L10.1407 149.985L10.3805 149.794L10.6224 149.606L10.867 149.421L11.1137 149.238L11.363 149.059L11.6139 148.882L11.867 148.709V148.708L12.1227 148.538L12.3799 148.37L12.6394 148.206V148.205L12.9014 148.044L13.1651 147.885V147.885L13.4309 147.729L13.6988 147.578V147.577L13.9688 147.428V147.428L14.2404 147.282V147.282L14.5147 147.139L14.79 147V146.999L15.0674 146.863L15.347 146.73L15.6287 146.601L15.9115 146.474V146.474L16.1963 146.351L16.4828 146.231L16.7714 146.115L17.061 146.003L17.3528 145.893V145.893L17.6462 145.787V145.787L17.9411 145.685L18.2377 145.586V145.586L18.5358 145.491V145.49L18.835 145.399L19.1363 145.311L19.4392 145.227L19.7437 145.146L20.0493 145.069V145.069L20.3565 144.995L20.6647 144.926L20.9745 144.86L21.2853 144.798L21.5973 144.74L21.9114 144.685L22.2259 144.635L22.5421 144.588L22.8593 144.545L23.1782 144.506L23.498 144.471L23.819 144.44L24.1415 144.414L24.4646 144.391L24.7887 144.373L25.1139 144.358L25.4407 144.348L25.768 144.342L26.0959 144.34L26.0985 144.336ZM83.509 62.9986V52.115C83.509 49.1252 82.2836 46.4048 80.3101 44.4309C78.3362 42.4574 75.6158 41.232 72.6259 41.232C69.6361 41.232 66.9157 42.4574 64.9412 44.4309C62.9678 46.4048 61.7423 49.1252 61.7423 52.115V62.9986H83.509ZM55.3419 62.9986V52.115C55.3419 47.3586 57.2856 43.0373 60.4161 39.9063C63.547 36.7759 67.8695 34.8321 72.6249 34.8321C77.3813 34.8321 81.7032 36.7759 84.8341 39.9063C87.9646 43.0373 89.9083 47.3592 89.9083 52.115V62.9986H99.9919V117.732H45.2583V62.9986H48.4583H55.3414H55.3419ZM37.2033 169.826H52.3266H67.4494V188.916H138.243V150.736H26.0985L25.8529 150.738L25.6078 150.743L25.3638 150.75L25.1208 150.761L24.8784 150.775L24.6365 150.792L24.3951 150.812L24.1553 150.835L23.916 150.861L23.6773 150.89L23.4397 150.923L23.2031 150.958L22.967 150.995L22.7325 151.036L22.4986 151.08V151.08L22.2657 151.126V151.127L22.0339 151.176L21.8031 151.228L21.5734 151.283L21.3448 151.341L21.1167 151.401L20.8902 151.464V151.465L20.6647 151.53H20.6641L20.4403 151.599L20.2175 151.671H20.2169L19.9952 151.745V151.745L19.7745 151.822V151.822L19.5549 151.901V151.902L19.3363 151.984L19.1193 152.068L18.9035 152.155L18.6886 152.245V152.246L18.4753 152.337V152.338L18.2637 152.432H18.2631L18.0525 152.529L17.8435 152.629L17.6356 152.731L17.4292 152.835L17.2244 152.943H17.2239L17.0207 153.052V153.052L16.8186 153.164L16.6181 153.278H16.6176L16.4186 153.394H16.4181L16.2207 153.513V153.513L16.0244 153.634L15.8303 153.757L15.8298 153.758L15.6372 153.884L15.4457 154.012V154.012L15.2557 154.142L15.068 154.274H15.0674L14.8812 154.409L14.6967 154.545L14.6961 154.546L14.5131 154.684L14.3316 154.825L14.1523 154.969L13.9741 155.114L13.7985 155.261H13.798L13.624 155.411L13.4516 155.562L13.2807 155.715L13.1121 155.87L12.9455 156.028L12.7805 156.187L12.6171 156.348L12.4558 156.512L12.2967 156.677L12.1391 156.843L11.9837 157.012L11.8304 157.183L11.6792 157.355L11.5301 157.529L11.3826 157.705L11.2373 157.884L11.0941 158.063L10.953 158.244L10.8145 158.427L10.6776 158.612L10.5429 158.798L10.4108 158.987L10.2808 159.176L10.1524 159.368L10.0267 159.561L9.9031 159.755L9.78214 159.951V159.952L9.66329 160.149L9.54714 160.348L9.43307 160.548L9.32169 160.75V160.75L9.21186 160.954L9.10472 161.158V161.159L9.00018 161.365V161.365L8.89833 161.573V161.573L8.7986 161.782L8.70152 161.993L8.60713 162.205V162.205L8.51481 162.418L8.42461 162.633V162.633L8.33763 162.849V162.849L8.25272 163.066L8.17102 163.284V163.285L8.09145 163.504V163.504L8.01452 163.725L7.94028 163.947V163.947L7.86863 164.17V164.171L7.79968 164.394V164.395L7.73394 164.62V164.62L7.67027 164.847V164.847L7.60976 165.074V165.075L7.55194 165.303V165.304L7.49729 165.533V165.533L7.44533 165.764V165.765L7.39601 165.996L7.34933 166.229V166.23L7.30529 166.463V166.464L7.26442 166.698V166.699L7.22676 166.934V166.934L7.19174 167.171V167.172L7.15941 167.409V167.409L7.13019 167.647V167.648L7.10424 167.887V167.887L7.08139 168.127V168.127L7.06124 168.368V168.369L7.0443 168.61V168.611L7.03046 168.853V168.854L7.01933 169.097V169.097L7.01192 169.341V169.342L7.00715 169.586V169.587L7.00554 169.832V169.833C7.00554 175.079 9.15457 179.851 12.6155 183.312C16.0764 186.773 20.8487 188.922 26.0953 188.922H37.2001V169.833L37.2033 169.826ZM67.4499 195.316V215.085L52.3272 203.08L37.2039 215.085V195.316H26.099C19.0865 195.316 12.7126 192.449 8.09466 187.831C3.47672 183.213 0.609375 176.839 0.609375 169.827V26.1904C0.609375 19.1773 3.47615 12.8039 8.09409 8.18546C12.712 3.56698 19.0859 0.700195 26.099 0.700195H144.644V144.336V150.737V195.317H67.4499V195.316Z" fill="#373435"/>
</svg>
