<svg viewBox="0 0 155 196" fill="none" xmlns="http://www.w3.org/2000/svg">
<path d="M147.688 25.4344L77.3019 6.57434L6.91558 25.4344V108.076C6.91558 120.666 10.0232 132.345 15.8449 142.428C21.6787 152.533 30.2356 161.069 41.1218 167.354H41.1346L77.3014 188.235L113.468 167.354H113.481C124.367 161.069 132.925 152.533 138.759 142.428L138.764 142.431C144.582 132.35 147.688 120.671 147.688 108.076V25.4344ZM100.894 56.2895L87.6275 97.5942H108.28L53.7083 138.899L66.9748 97.5942H46.3227L100.894 56.2895ZM78.1269 0.178711L154.088 20.5327V108.076C154.088 121.78 150.675 134.544 144.283 145.616V145.629C137.904 156.677 128.554 166.008 116.665 172.874L116.668 172.88L77.3009 195.608L37.9346 172.88L37.9378 172.874C26.0484 166.008 16.6989 156.677 10.3198 145.629C3.92731 134.557 0.514648 121.789 0.514648 108.076V20.5332L76.476 0.179255H78.1263L78.1269 0.178711Z" fill="#373435"/>
</svg>
