<svg viewBox="0 0 252 196" fill="none" xmlns="http://www.w3.org/2000/svg">
<path d="M97.8215 0.448786C124.729 0.448786 149.091 11.3562 166.725 28.9898C177.908 40.1737 186.384 54.0636 191.091 69.5927L206.964 65.3397L213.022 51.3681L243.207 43.2802L235.525 60.995L251.036 72.4955L220.851 80.584L208.618 71.5131L192.743 75.7671C194.394 82.8757 195.266 90.2819 195.266 97.8924C195.266 124.8 184.359 149.161 166.725 166.795C149.092 184.429 124.73 195.337 97.8221 195.337C70.9144 195.337 46.5531 184.429 28.919 166.795C11.2854 149.161 0.37793 124.8 0.37793 97.8924C0.37793 70.9847 11.2854 46.6229 28.919 28.9893C46.5531 11.3557 70.9144 0.448242 97.8221 0.448242L97.8215 0.448786ZM96.9971 94.8054L125.268 87.2305C123.775 83.3903 121.499 79.9399 118.637 77.0774C113.311 71.7507 105.951 68.4559 97.8215 68.4559C89.6928 68.4559 82.3333 71.7502 77.0061 77.0774C71.6794 82.4036 68.3845 89.7636 68.3845 97.8929C68.3845 106.022 71.6788 113.381 77.0061 118.708C82.3327 124.035 89.6923 127.33 97.8215 127.33C105.951 127.33 113.311 124.035 118.637 118.708C123.964 113.382 127.259 106.022 127.259 97.8929C127.259 96.3672 127.143 94.868 126.919 93.4049L98.648 100.98L96.9977 94.8054H96.9971ZM131.481 85.5653L158.158 78.4175C155.038 68.7466 149.659 60.09 142.642 53.0726C131.172 41.6028 115.325 34.508 97.8215 34.508C80.3179 34.508 64.471 41.6028 53.0012 53.0726C41.5315 64.5424 34.4366 80.3893 34.4366 97.8929C34.4366 115.396 41.5315 131.243 53.0012 142.713C64.471 154.183 80.3179 161.278 97.8215 161.278C115.325 161.278 131.172 154.183 142.642 142.713C154.112 131.243 161.206 115.396 161.206 97.8929C161.206 93.3306 160.723 88.8814 159.808 84.5924L133.132 91.7402C133.478 93.7397 133.658 95.7948 133.658 97.8929C133.658 107.788 129.647 116.748 123.162 123.233C116.677 129.718 107.717 133.73 97.8215 133.73C87.9262 133.73 78.9668 129.718 72.4815 123.233C65.9962 116.748 61.9846 107.788 61.9846 97.8929C61.9846 87.9971 65.9962 79.0376 72.4815 72.5528C78.9668 66.0675 87.9262 62.056 97.8215 62.056C107.717 62.056 116.677 66.0675 123.162 72.5528C126.808 76.1989 129.672 80.628 131.481 85.5653ZM164.347 76.7591L184.904 71.251C180.495 56.8227 172.6 43.9158 162.2 33.5149C145.724 17.0394 122.963 6.84918 97.8215 6.84918C72.6799 6.84918 49.9186 17.04 33.4436 33.5149C16.9681 49.9905 6.7778 72.7518 6.7778 97.8929C6.7778 123.035 16.9686 145.796 33.4436 162.271C49.9191 178.746 72.6804 188.937 97.8215 188.937C122.963 188.937 145.725 178.746 162.2 162.271C178.675 145.795 188.865 123.034 188.865 97.8929C188.865 90.8554 188.067 84.0041 186.555 77.4254L165.999 82.9335C167.052 87.7525 167.606 92.7582 167.606 97.8929C167.606 117.163 159.795 134.609 147.166 147.238C134.538 159.866 117.091 167.678 97.8215 167.678C78.5514 167.678 61.1051 159.866 48.4767 147.238C35.8483 134.609 28.0368 117.163 28.0368 97.8929C28.0368 78.6227 35.8483 61.1764 48.4767 48.548C61.1051 35.9197 78.5519 28.1081 97.8215 28.1081C117.092 28.1081 134.538 35.9197 147.166 48.548C154.967 56.3484 160.928 65.988 164.347 76.7591Z" fill="#373435"/>
</svg>
