<svg width="100" height="128" viewBox="0 0 100 128" fill="none" xmlns="http://www.w3.org/2000/svg">
<path fill-rule="evenodd" clip-rule="evenodd" d="M50.538 0.378906L99.994 13.632V70.6324C99.994 79.557 97.775 87.8675 93.6106 95.0777V95.0838C89.4584 102.276 83.3668 108.355 75.6277 112.823V112.83L49.997 127.627L24.3662 112.83V112.823C16.6272 108.355 10.5356 102.276 6.38337 95.0838C2.21898 87.8736 0 79.563 0 70.6324V13.632L49.4559 0.378906H50.532L50.538 0.378906Z" fill="#FF7955"/>
<path d="M95.8293 16.8239L50.0028 4.54351L4.17632 16.8239V70.6326C4.17632 78.8277 6.20076 86.433 9.98822 92.9987C13.7878 99.5767 19.3566 105.133 26.4452 109.231H26.4512L49.9967 122.824L73.5423 109.231H73.5484C80.6369 105.139 86.2056 99.5827 90.0052 92.9987H90.0113C93.7988 86.433 95.8232 78.8277 95.8232 70.6266V16.8178L95.8293 16.8239ZM52.082 50.0356C52.082 52.6133 51.0303 54.9539 49.3341 56.65C47.638 58.3462 45.2974 59.3979 42.7197 59.3979V55.2335C44.1484 55.2335 45.4494 54.6499 46.3917 53.7076C47.334 52.7653 47.9176 51.4643 47.9176 50.0356H47.9237L47.948 30.0587L47.8933 29.4143C47.7717 27.9796 47.103 26.6908 46.0938 25.7667C45.0968 24.8487 43.7654 24.2894 42.3124 24.2894C40.8533 24.2894 39.528 24.8487 38.531 25.7667C37.5218 26.6908 36.8531 27.9796 36.7315 29.4143L36.5735 31.3293H29.4423C27.1564 31.3293 25.0834 32.2656 23.5757 33.7733C22.068 35.2809 21.1318 37.3601 21.1318 39.6399C21.1318 39.9682 21.1439 40.26 21.1743 40.5153C21.2047 40.801 21.2533 41.0928 21.3141 41.3847L21.5877 42.6553L20.5481 43.4577C19.545 44.2359 18.7183 45.239 18.1529 46.388C17.6118 47.4823 17.3078 48.7225 17.3078 50.0356C17.3078 50.6375 17.3686 51.2211 17.4841 51.7683C17.6057 52.3458 17.7881 52.899 18.0191 53.4158L18.5176 54.5222L17.7942 55.501C17.2774 56.2002 16.864 56.9844 16.5844 57.8416C16.3169 58.6562 16.171 59.5256 16.171 60.4375C16.171 61.9269 16.5601 63.3191 17.241 64.5168C17.9523 65.7752 18.9857 66.8269 20.2199 67.5686L21.4114 68.286L21.2169 69.6478C21.1865 69.8423 21.1682 70.0369 21.1561 70.2436C21.1439 70.4077 21.1379 70.6083 21.1379 70.8393C21.1379 72.3835 21.5634 73.8304 22.299 75.0645C23.065 76.3473 24.1654 77.4173 25.4846 78.1346L26.7248 78.8155L26.5546 80.2138C26.5303 80.4205 26.5121 80.5907 26.506 80.7184C26.4999 80.8399 26.4938 81.0102 26.4938 81.2351C26.4938 83.521 27.43 85.6001 28.9377 87.1017C30.4454 88.6094 32.5246 89.5456 34.8043 89.5456H41.8747V92.2874C41.8747 93.1203 42.2151 93.8742 42.7684 94.4274C43.3155 94.9745 44.0754 95.3211 44.9083 95.3211C45.7412 95.3211 46.495 94.9806 47.0482 94.4274C47.5954 93.8802 47.9419 93.1203 47.9419 92.2874H47.9237L47.9541 71.9336H52.1063L52.1367 92.2874H52.1185C52.1185 93.1203 52.4589 93.8742 53.0121 94.4274C53.5593 94.9745 54.3192 95.3211 55.1521 95.3211C55.985 95.3211 56.7388 94.9806 57.292 94.4274C57.8392 93.8802 58.1857 93.1203 58.1857 92.2874V89.5456H65.2561C67.5419 89.5456 69.615 88.6094 71.1226 87.1017C72.6303 85.594 73.5666 83.5149 73.5666 81.2351C73.5666 81.0102 73.5605 80.8399 73.5544 80.7184C73.5483 80.5907 73.5301 80.4205 73.5058 80.2138L73.3356 78.8155L74.5758 78.1346C75.895 77.4112 76.9954 76.3473 77.7614 75.0645C78.497 73.8243 78.9225 72.3835 78.9225 70.8393C78.9225 70.6083 78.9165 70.4138 78.9043 70.2436C78.8921 70.0429 78.8678 69.8423 78.8435 69.6478L78.6489 68.286L79.8405 67.5686C81.0746 66.8269 82.1021 65.7752 82.8194 64.5168C83.5003 63.3191 83.8894 61.9209 83.8894 60.4375C83.8894 59.5317 83.7435 58.6562 83.476 57.8416C83.1903 56.9844 82.7829 56.2002 82.2662 55.501L81.5427 54.5222L82.0413 53.4158C82.2723 52.899 82.4547 52.3458 82.5762 51.7683C82.6917 51.2211 82.7525 50.6436 82.7525 50.0356C82.7525 48.7225 82.4486 47.4823 81.9075 46.388C81.3421 45.239 80.5153 44.2359 79.5122 43.4577L78.4726 42.6553L78.7462 41.3847C78.807 41.0928 78.8557 40.801 78.886 40.5153C78.9104 40.26 78.9286 39.9682 78.9286 39.6399C78.9286 37.354 77.9924 35.2749 76.4847 33.7733C74.977 32.2656 72.8979 31.3293 70.6181 31.3293H63.4869L63.3289 29.4143C63.2073 27.9796 62.5386 26.6908 61.5294 25.7667C60.5324 24.8487 59.2009 24.2894 57.748 24.2894C56.2889 24.2894 54.9636 24.8487 53.9666 25.7667C52.9574 26.6908 52.2887 27.9796 52.1671 29.4143L52.1428 50.0296H52.1489L52.082 50.0356ZM47.9176 71.9215C47.9176 69.3438 48.9693 67.0032 50.6655 65.3071C52.3616 63.6109 54.7022 62.5592 57.2799 62.5592V66.7236C55.8512 66.7236 54.5502 67.3072 53.6079 68.2495C52.6656 69.1918 52.082 70.4928 52.082 71.9215H47.9176ZM32.8285 65.2341C34.4456 63.617 35.2481 61.4892 35.2481 59.3554C35.2481 57.6896 34.7557 56.0238 33.7708 54.6073C31.181 56.2488 28.1109 57.2033 24.8341 57.2033V53.0389C28.2994 53.0389 31.4546 51.6163 33.7404 49.3304C36.0263 47.0446 37.4489 43.8894 37.4489 40.4241H41.6133C41.6133 44.8864 39.8503 48.9535 36.9929 51.9628C38.604 54.1514 39.4125 56.7595 39.4125 59.3614C39.4125 62.5592 38.1966 65.757 35.771 68.1826L32.8224 65.2341H32.8285ZM39.5828 81.7275C39.5828 80.3475 39.0173 79.0891 38.1054 78.1772C37.1935 77.2653 35.9351 76.6999 34.5551 76.6999V72.5355C37.0841 72.5355 39.3821 73.569 41.0479 75.2347C42.7136 76.9005 43.7471 79.1985 43.7471 81.7275H39.5828ZM64.2286 68.1766C61.8029 65.7509 60.5871 62.547 60.5871 59.3554C60.5871 56.7534 61.3956 54.1453 63.0067 51.9567C60.1493 48.9474 58.3863 44.8742 58.3863 40.418H62.5507C62.5507 43.8894 63.9733 47.0385 66.2591 49.3304C68.545 51.6163 71.7002 53.0389 75.1655 53.0389V57.2033C71.8887 57.2033 68.8186 56.2488 66.2287 54.6073C65.2439 56.0238 64.7514 57.6896 64.7514 59.3554C64.7514 61.4892 65.56 63.617 67.171 65.2341L64.2225 68.1826L64.2286 68.1766ZM56.2585 81.7275C56.2585 79.1985 57.292 76.9005 58.9578 75.2347C60.6236 73.569 62.9216 72.5355 65.4506 72.5355V76.6999C64.0706 76.6999 62.8121 77.2653 61.9002 78.1772C60.9883 79.0891 60.4229 80.3475 60.4229 81.7275H56.2585ZM16.9795 70.3712C15.6238 69.3438 14.4809 68.0428 13.6359 66.5594C12.6024 64.7417 12.0066 62.6443 12.0066 60.4253C12.0066 59.0696 12.2255 57.7565 12.6328 56.5284C12.9246 55.6409 13.3197 54.7958 13.8 53.9994C13.648 53.5495 13.5204 53.0875 13.417 52.6194C13.2346 51.7744 13.1434 50.905 13.1434 50.0296C13.1434 48.072 13.6055 46.2117 14.4262 44.5459C15.0828 43.2146 15.9765 42.0108 17.0464 40.9956L17.0403 40.9409C16.9917 40.4788 16.9674 40.0411 16.9674 39.6338C16.9674 36.1989 18.3717 33.0802 20.6333 30.8187C22.8948 28.5571 26.0135 27.1528 29.4484 27.1528H32.944C33.4486 25.4202 34.4274 23.8882 35.7223 22.6966C37.4671 21.0916 39.7834 20.1128 42.3245 20.1128C44.8596 20.1128 47.182 21.0977 48.9268 22.6966C49.322 23.0553 49.6806 23.4504 50.015 23.8699C50.3433 23.4504 50.708 23.0553 51.1032 22.6966C52.848 21.0916 55.1643 20.1128 57.7054 20.1128C60.2406 20.1128 62.5629 21.0977 64.3077 22.6966C65.6026 23.8882 66.5753 25.4202 67.086 27.1528H70.5816C74.0165 27.1528 77.1352 28.5571 79.3967 30.8187C81.6583 33.0802 83.0626 36.1989 83.0626 39.6338C83.0626 40.0411 83.0383 40.4788 82.9896 40.9409L82.9836 40.9956C84.0535 42.0108 84.9411 43.2146 85.6038 44.5459C86.4245 46.2117 86.8866 48.072 86.8866 50.0296C86.8866 50.905 86.7893 51.7744 86.613 52.6255C86.5157 53.0936 86.388 53.5556 86.23 54.0055C86.7102 54.8019 87.1054 55.6469 87.3972 56.5345C87.8045 57.7626 88.0234 59.0757 88.0234 60.4314C88.0234 62.6504 87.4337 64.7417 86.3941 66.5655C85.5491 68.0489 84.4062 69.3499 83.0505 70.3773C83.0565 70.5354 83.0626 70.6874 83.0626 70.8272C83.0626 73.1374 82.4243 75.3077 81.3178 77.168C80.4059 78.7061 79.1718 80.0314 77.7127 81.0466V81.2169C77.7127 84.6517 76.3084 87.7705 74.0468 90.032C71.7853 92.2935 68.6666 93.6979 65.2317 93.6979H62.186C61.9002 95.1083 61.2011 96.3728 60.2162 97.3516C58.9152 98.6526 57.1096 99.4672 55.1338 99.4672C53.152 99.4672 51.3525 98.6587 50.0515 97.3516L50.0211 97.3212L49.9907 97.3516C48.6897 98.6526 46.8841 99.4672 44.9083 99.4672C42.9264 99.4672 41.1269 98.6587 39.8259 97.3516C38.8411 96.3667 38.1419 95.1083 37.8562 93.6979H34.8104C31.3756 93.6979 28.2568 92.2935 25.9953 90.032C23.7337 87.7705 22.3294 84.6517 22.3294 81.2169V81.0466C20.8704 80.0253 19.6423 78.7 18.7243 77.168C17.6179 75.3016 16.9795 73.1374 16.9795 70.8272C16.9795 70.6813 16.9856 70.5354 16.9917 70.3773L16.9795 70.3712ZM50.5439 0.373047L99.9998 13.6261V70.6266C99.9998 79.5511 97.7808 87.8616 93.6164 95.0718V95.0779C89.4642 102.27 83.3727 108.349 75.6336 112.818V112.824L50.0028 127.621L24.3721 112.824V112.818C16.633 108.349 10.5415 102.27 6.38923 95.0779C2.22484 87.8677 0.00585938 79.5572 0.00585938 70.6266V13.6261L49.4618 0.373047H50.5378H50.5439Z" fill="white"/>
</svg>
