<svg width="100" height="128" viewBox="0 0 100 128" fill="none" xmlns="http://www.w3.org/2000/svg">
<path fill-rule="evenodd" clip-rule="evenodd" d="M50.5411 0.37207L100 13.626V70.6299C100 79.555 97.7809 87.866 93.6162 95.0766V95.0827C89.4638 102.275 83.3718 108.355 75.6323 112.823V112.83L50 127.628L24.3677 112.83V112.823C16.6282 108.355 10.5362 102.275 6.38376 95.0827C2.21912 87.8721 0 79.561 0 70.6299V13.626L49.4589 0.37207H50.535L50.5411 0.37207Z" fill="#FF7955"/>
<path d="M95.8354 16.8178L50.0061 4.53671L4.1768 16.8178V70.6299C4.1768 78.187 5.89737 85.2395 9.13789 91.4409L14.3239 62.7566L19.206 35.7442L19.7288 32.8502L21.802 21.3716L22.1 19.73L22.3553 18.3195H26.5747L26.0214 21.3716H61.0956L58.8096 34.0114H85.9071H90.9229L69.9295 54.9927L82.9645 75.3964H37.6155L38.0593 72.9523L39.9015 62.7505H18.5372L12.4027 96.706C16.008 101.673 20.7381 105.929 26.4531 109.224H26.4591L50.0061 122.819L73.553 109.224H73.5591C80.6481 105.133 86.2172 99.5756 90.017 92.9912H90.0231C93.8108 86.4251 95.8354 78.8193 95.8354 70.6177V16.8057V16.8178ZM53.6114 62.7566L45.1179 71.25H75.3891L64.634 54.4151L80.8913 38.1639H58.0557L53.8667 61.3217L53.6053 62.7566H53.6114ZM47.7323 62.7566H44.1148L43.3183 67.1644L47.7323 62.7566ZM50.1398 58.6041L53.8363 38.1639L54.5841 34.0114L56.1162 25.518H25.2614L23.3706 35.9873L23.2794 36.4798L19.2789 58.6041H40.6432H42.376H50.1338H50.1398ZM50.5411 0.37207L100 13.626V70.6299C100 79.555 97.7809 87.866 93.6162 95.0766V95.0827C89.4638 102.275 83.3718 108.355 75.6323 112.823V112.83L50 127.628L24.3677 112.83V112.823C16.6282 108.355 10.5362 102.275 6.38376 95.0827C2.21912 87.8721 0 79.561 0 70.6299V13.626L49.4589 0.37207H50.535L50.5411 0.37207Z" fill="white"/>
</svg>
