<svg width="100" height="128" viewBox="0 0 100 128" fill="none" xmlns="http://www.w3.org/2000/svg">
<path fill-rule="evenodd" clip-rule="evenodd" d="M50.5411 0.37207L100 13.626V70.6298C100 79.5549 97.7809 87.866 93.6162 95.0766V95.0827C89.4638 102.275 83.3718 108.355 75.6323 112.823V112.829L50 127.628L24.3677 112.829V112.823C16.6282 108.355 10.5362 102.275 6.38375 95.0827C2.21911 87.8721 0 79.561 0 70.6298V13.626L49.4589 0.37207H50.535L50.5411 0.37207Z" fill="#FF7955"/>
<path d="M95.8353 16.8178L50.0061 4.53671L4.1768 16.8178V70.6298C4.1768 78.8254 6.20136 86.4312 9.98905 92.9973C13.7889 99.5756 19.358 105.133 26.447 109.23H26.4531L50 122.825L73.5469 109.23H73.553C80.642 105.139 86.2111 99.5817 90.0109 92.9973H90.017C93.8047 86.4312 95.8293 78.8254 95.8293 70.6238V16.8118L95.8353 16.8178ZM32.8551 73.1894H67.151V77.3541H32.8551V73.1894ZM32.8551 64.7021H67.151V68.8667H32.8551V64.7021ZM32.8551 56.2147H67.151V60.3794H32.8551V56.2147ZM32.8551 47.7274H67.151V51.892H32.8551V47.7274ZM32.8551 39.24H67.151V43.4047H32.8551V39.24ZM41.2087 30.7527H58.7974V34.9173H41.2087V30.7527ZM24.4589 16.7692H77.6325V24.2108V91.3314V98.7731H22.3735V91.3314V24.2108V16.7692H24.4589ZM73.4679 91.3375H26.5443V94.6145H73.4679V91.3375ZM73.4679 20.9399H26.5443V87.1729H73.4679V20.9399ZM50.5411 0.37207L100 13.626V70.6298C100 79.5549 97.7809 87.866 93.6162 95.0766V95.0827C89.4638 102.275 83.3718 108.355 75.6323 112.823V112.829L50 127.628L24.3677 112.829V112.823C16.6282 108.355 10.5362 102.275 6.38375 95.0827C2.21911 87.8721 0 79.561 0 70.6298V13.626L49.4589 0.37207H50.535L50.5411 0.37207Z" fill="white"/>
</svg>
