<svg width="100" height="128" viewBox="0 0 100 128" fill="none" xmlns="http://www.w3.org/2000/svg">
<path fill-rule="evenodd" clip-rule="evenodd" d="M50.5411 0.375L100 13.6289V70.6328C100 79.5579 97.7809 87.8689 93.6162 95.0795V95.0856C89.4637 102.278 83.3718 108.358 75.6323 112.826V112.832L65.9168 118.444V125.898L60.4815 121.581L50 127.631L39.5185 121.581L34.0832 125.898V118.444L24.3677 112.832V112.826C16.6282 108.358 10.5362 102.278 6.38375 95.0856C2.21911 87.875 0 79.5639 0 70.6328V13.6289L49.4589 0.375H50.535L50.5411 0.375Z" fill="#FF7955"/>
<path d="M95.8351 16.821L50.0059 4.53986L4.17658 16.821V70.633C4.17658 78.8285 6.20115 86.4343 9.98884 93.0004C13.7887 99.5787 19.3578 105.136 26.4468 109.233H26.4528L34.089 113.641V88.0697L24.8174 86.1729C23.7474 85.954 22.8111 85.4433 22.0815 84.7198L22.0754 84.7137C21.3458 83.9841 20.8412 83.0479 20.6223 81.9778L18.2148 70.2135C18.1965 70.1284 18.1722 70.0493 18.1479 69.9825C18.1236 69.9277 18.0871 69.8609 18.0384 69.7818L11.4237 59.7563C10.8157 58.8382 10.5117 57.8108 10.5117 56.7833C10.5117 55.7558 10.8157 54.7283 11.4237 53.8103L18.0384 43.7847H18.0445C18.0871 43.7179 18.1236 43.651 18.154 43.5841C18.1844 43.5172 18.2026 43.4382 18.2208 43.3531L20.6284 31.5887C20.8473 30.5187 21.358 29.5824 22.0815 28.8528L22.0876 28.8468C22.8171 28.1172 23.7534 27.6126 24.8235 27.3937L36.5878 24.9861C36.6729 24.9679 36.752 24.9435 36.8188 24.9192C36.8736 24.8949 36.9404 24.8584 37.0195 24.8098L47.045 18.195C47.9631 17.587 48.9905 17.283 50.018 17.283C51.0455 17.283 52.073 17.587 52.991 18.195L63.0166 24.8098C63.0956 24.8645 63.1625 24.901 63.2172 24.9192C63.2841 24.9496 63.3631 24.9679 63.4482 24.9861L75.2126 27.3937C76.2887 27.6126 77.2311 28.1233 77.9545 28.8468C78.678 29.5703 79.1887 30.5126 79.4076 31.5887L81.8152 43.3531C81.8334 43.4382 81.8577 43.5172 81.8821 43.5841C81.9125 43.651 81.9429 43.7179 81.9915 43.7847H81.9976L88.6124 53.8103C89.2204 54.7283 89.5243 55.7558 89.5243 56.7833C89.5243 57.8108 89.2204 58.8382 88.6124 59.7563L81.9976 69.7818C81.9429 69.8609 81.9064 69.9277 81.8882 69.9825C81.8578 70.0493 81.8395 70.1284 81.8213 70.2135L79.4137 81.9778C79.1948 83.0479 78.6841 83.9841 77.9606 84.7137L77.9545 84.7198C77.2311 85.4433 76.2948 85.954 75.2187 86.1729L65.947 88.0697V113.641L73.5832 109.233H73.5893C80.6783 105.142 86.2474 99.5848 90.0472 93.0004H90.0533C93.841 86.4343 95.8655 78.8285 95.8655 70.6269V16.8149L95.8351 16.821ZM50.0059 43.4017L54.2252 52.3815L64.0744 53.6218L56.8334 60.4129L58.6999 70.1588L50.0059 65.374L41.3118 70.1588L43.1783 60.4129L35.9373 53.6218L45.7865 52.3815L50.0059 43.4017ZM50.0059 31.2908C57.0462 31.2908 63.4178 34.1422 68.0324 38.7568C72.6469 43.3713 75.4983 49.7429 75.4983 56.7833C75.4983 63.8236 72.6469 70.1952 68.0324 74.8098C63.4178 79.4243 57.0462 82.2757 50.0059 82.2757C42.9655 82.2757 36.5939 79.4243 31.9794 74.8098C27.3648 70.1952 24.5134 63.8236 24.5134 56.7833C24.5134 49.7429 27.3648 43.3713 31.9794 38.7568C36.5939 34.1422 42.9655 31.2908 50.0059 31.2908ZM65.0837 41.7055C61.223 37.8448 55.8972 35.4615 50.0059 35.4615C44.1206 35.4615 38.7887 37.8509 34.928 41.7055C31.0674 45.5661 28.6841 50.892 28.6841 56.7833C28.6841 62.6685 31.0735 68.0005 34.928 71.8611C38.7887 75.7217 44.1146 78.105 50.0059 78.105C55.8972 78.105 61.223 75.7157 65.0837 71.8611C68.9443 68.0005 71.3276 62.6746 71.3276 56.7833C71.3276 50.892 68.9382 45.5661 65.0837 41.7055ZM38.2598 89.5775V117.277L50.0059 107.951L61.752 117.277V89.5775L52.9728 95.3715C52.0547 95.9795 51.0273 96.2835 49.9998 96.2835C48.9723 96.2835 47.9448 95.9795 47.0268 95.3715L38.2476 89.5775H38.2598ZM60.7063 28.2753L50.6807 21.6605C50.4679 21.5206 50.2369 21.4538 50.0059 21.4538C49.7748 21.4538 49.5377 21.5206 49.331 21.6605L39.3055 28.2753C39.0136 28.4637 38.7157 28.6279 38.3935 28.7616C38.0834 28.8893 37.7612 28.9866 37.4147 29.0596L25.6503 31.4671C25.395 31.5219 25.1822 31.6313 25.0241 31.7894L25.018 31.7954C24.8599 31.9535 24.7444 32.1663 24.6958 32.4217L22.2882 44.186C22.2153 44.5326 22.118 44.8548 21.9903 45.1648C21.8626 45.4749 21.7045 45.7728 21.5039 46.0707V46.0768L14.8891 56.1023C14.7493 56.3151 14.6824 56.5462 14.6824 56.7772C14.6824 57.0082 14.7554 57.2393 14.8891 57.4521L21.5039 67.4776C21.6985 67.7694 21.8565 68.0673 21.9903 68.3896C22.118 68.6996 22.2153 69.0219 22.2882 69.3684L24.6958 81.1327C24.7505 81.3881 24.8599 81.6009 25.018 81.7589L25.0241 81.765C25.1822 81.9231 25.395 82.0386 25.6503 82.0873L37.4147 84.4948C37.7734 84.5678 38.0956 84.6651 38.3996 84.7928C38.7218 84.9265 39.0197 85.0846 39.3055 85.2731L49.331 91.8878C49.5438 92.0277 49.7748 92.0946 50.0059 92.0946C50.2369 92.0946 50.4679 92.0216 50.6807 91.8878L60.7063 85.2731C60.9981 85.0785 61.296 84.9204 61.6182 84.7867C61.9283 84.659 62.2505 84.5617 62.597 84.4888L74.3614 82.0812C74.6107 82.0325 74.8296 81.917 74.9937 81.7529C75.1579 81.5887 75.2734 81.3759 75.322 81.1206L77.7296 69.3562C77.8026 69.0097 77.8937 68.6875 78.0275 68.3774C78.1613 68.0552 78.3193 67.7512 78.5139 67.4654L85.1287 57.4399C85.2685 57.2271 85.3354 56.9961 85.3354 56.765C85.3354 56.534 85.2685 56.303 85.1287 56.0902L78.5139 46.0647V46.0586C78.3133 45.7607 78.1552 45.4628 78.0275 45.1527C77.8998 44.8426 77.8026 44.5204 77.7296 44.1738L75.322 32.4095C75.2734 32.1602 75.1579 31.9474 74.9876 31.7833C74.8235 31.6191 74.6107 31.5036 74.3614 31.4489L62.597 29.0413C62.2505 28.9684 61.9283 28.8711 61.6182 28.7434C61.2899 28.6096 60.992 28.4516 60.7063 28.257V28.2753ZM34.089 118.438L24.3736 112.827V112.82C16.634 108.352 10.5421 102.272 6.38961 95.0797C2.22497 87.8691 0.00585938 79.5581 0.00585938 70.6269V13.623L49.4648 0.369141H50.5409L99.9998 13.623V70.6269C99.9998 79.552 97.7807 87.863 93.616 95.0736V95.0797C89.4635 102.272 83.3716 108.352 75.6321 112.82V112.827L65.9166 118.438V125.892L60.4813 121.575L49.9998 127.625L39.5183 121.575L34.083 125.892V118.438H34.089ZM56.9854 118.797L50.0059 113.258L43.0263 118.797L50.0059 122.828L56.9854 118.797Z" fill="white"/>
</svg>
